<svg width="15" height="15" viewBox="0 0 15 15" fill="none" xmlns="http://www.w3.org/2000/svg">
<g clip-path="url(#clip0_1387_56763)">
<path d="M14.8861 7.00049L12.1185 4.63702C12.1217 4.62085 12.1249 4.60469 12.1282 4.58529V1.49435C12.1249 1.31005 11.9794 1.16133 11.7952 1.15486H10.2497C10.0719 1.15486 9.92637 1.31329 9.92637 1.49435V2.77469L7.71163 0.886503C7.592 0.783041 7.41417 0.783041 7.29131 0.886503L0.116845 6.99726C-0.0221828 7.11042 -0.0383488 7.31411 0.0748131 7.45314C0.187975 7.59217 0.391666 7.60833 0.530694 7.49517C0.533927 7.49194 0.533927 7.49194 0.53716 7.4887L7.50147 1.55901L9.99426 3.68322L11.4848 4.95064L14.469 7.49194C14.6048 7.60833 14.8085 7.59216 14.9249 7.45637C15.0381 7.32058 15.0219 7.11688 14.8861 7.00049ZM11.4783 4.09061L10.573 3.32757V1.80473H11.4783V4.09061Z" fill="black"/>
<path d="M13.4601 7.65359L12.5516 6.87762L7.71149 2.74236C7.59186 2.6389 7.41403 2.6389 7.29117 2.74236L2.45107 6.87762L1.54255 7.65359C1.40675 7.76998 1.39059 7.97367 1.50698 8.10947C1.62014 8.24526 1.8206 8.26143 1.95316 8.14827L1.9564 8.14503L2.36054 7.79585V13.8581C2.36378 14.0392 2.51251 14.1879 2.69356 14.1911H12.3059C12.4869 14.1879 12.6356 14.0424 12.6389 13.8581V7.79585L13.043 8.14503C13.1012 8.19353 13.1724 8.22263 13.25 8.22263C13.3437 8.22263 13.4342 8.1806 13.4957 8.10947C13.6153 7.97044 13.5959 7.76675 13.4601 7.65359ZM8.79461 13.5412H6.20805V10.0494H8.79461V13.5412ZM9.44125 13.5412V9.73577C9.44125 9.55794 9.30869 9.40275 9.13086 9.40275H5.8718C5.69397 9.40275 5.56141 9.55794 5.56141 9.73577V13.5412H3.00718V7.24297L7.50133 3.41487L11.9955 7.24297V13.5412H9.44125Z" fill="black"/>
</g>
<defs>
<clipPath id="clip0_1387_56763">
<rect width="15" height="15" fill="white"/>
</clipPath>
</defs>
</svg>
