<svg width="10" height="10" viewBox="0 0 10 10" fill="none" xmlns="http://www.w3.org/2000/svg">
<g clip-path="url(#clip0_1387_56772)">
<path d="M9.93896 9.64437L6.89627 6.60166C7.52826 5.89996 7.91668 4.97479 7.91668 3.95832C7.91666 1.77572 6.14096 0 3.95834 0C1.77572 0 0 1.77572 0 3.95834C0 6.14096 1.77572 7.91668 3.95834 7.91668C4.9748 7.91668 5.89996 7.52826 6.60168 6.89627L9.64437 9.93896C9.68506 9.97965 9.73838 10 9.79168 10C9.84498 10 9.89828 9.97965 9.93898 9.93896C10.0204 9.85758 10.0204 9.72574 9.93896 9.64437ZM3.95834 7.5C2.00563 7.5 0.41668 5.91125 0.41668 3.95834C0.41668 2.00543 2.00563 0.41666 3.95834 0.41666C5.91105 0.41666 7.5 2.00541 7.5 3.95834C7.5 5.91127 5.91105 7.5 3.95834 7.5Z" fill="black"/>
</g>
<defs>
<clipPath id="clip0_1387_56772">
<rect width="10" height="10" fill="white"/>
</clipPath>
</defs>
</svg>
