<svg width="20" height="20" viewBox="0 0 20 20" fill="none" xmlns="http://www.w3.org/2000/svg">
<path d="M14.9582 9.42314H5.04454C4.972 9.42314 4.90565 9.38229 4.87292 9.3176C4.65296 8.88245 4.39865 8.45545 4.11719 8.04852C3.58504 7.27933 3.30846 6.37629 3.31735 5.4371C3.32823 4.2891 3.79662 3.18672 4.63627 2.33291C5.47604 1.47902 6.57046 0.992524 7.71792 0.963139C8.29742 0.948139 8.86181 1.04137 9.39777 1.23875C9.59069 1.30983 9.79327 1.34583 9.99981 1.34583C10.2063 1.34583 10.4089 1.30979 10.6018 1.23875C11.1385 1.04114 11.704 0.9481 12.2837 0.963177C13.4302 0.993062 14.5236 1.47925 15.3628 2.33214C16.2018 3.18491 16.6704 4.28622 16.6823 5.4331C16.692 6.37379 16.4154 7.27822 15.8825 8.04856C15.6012 8.4551 15.3481 8.88187 15.1302 9.31699C15.0976 9.38206 15.031 9.42314 14.9582 9.42314ZM5.16208 9.03852H14.8402C15.0537 8.6241 15.2976 8.21795 15.5661 7.82968C16.0536 7.1251 16.3065 6.29772 16.2977 5.43702C16.2753 3.2766 14.4326 1.40391 12.2738 1.34764C11.7425 1.33379 11.2256 1.41891 10.7347 1.59964C10.4991 1.68645 10.2518 1.73041 9.99981 1.73041C9.74777 1.73041 9.50046 1.68641 9.26485 1.59964C8.77462 1.41914 8.25815 1.33372 7.72777 1.3476C5.56604 1.40299 3.72242 3.27741 3.70192 5.44072C3.69377 6.30006 3.94673 7.12614 4.43346 7.82968C4.70215 8.2181 4.94692 8.62425 5.16208 9.03852Z" fill="black"/>
<path d="M13.4613 10.9616H6.53826C6.43206 10.9616 6.34595 10.8755 6.34595 10.7692V9.23079C6.34595 9.12456 6.43206 9.03848 6.53826 9.03848C6.64445 9.03848 6.73056 9.12456 6.73056 9.23079V10.5769H13.269V9.23079C13.269 9.12456 13.3551 9.03848 13.4613 9.03848C13.5676 9.03848 13.6537 9.12456 13.6537 9.23079V10.7692C13.6537 10.8755 13.5676 10.9616 13.4613 10.9616Z" fill="black"/>
<path d="M9.9999 19.0385C9.9574 19.0385 9.9149 19.0245 9.87975 18.9964L7.95668 17.4579C7.91106 17.4214 7.88452 17.3661 7.88452 17.3078V10.7693C7.88452 10.6631 7.97064 10.577 8.07683 10.577C8.18302 10.577 8.26914 10.6631 8.26914 10.7693V17.2153L9.9999 18.6L11.7307 17.2153V10.7693C11.7307 10.6631 11.8167 10.577 11.923 10.577C12.0292 10.577 12.1153 10.6631 12.1153 10.7693V17.3078C12.1153 17.3662 12.0887 17.4214 12.0431 17.4579L10.12 18.9964C10.0849 19.0245 10.0424 19.0385 9.9999 19.0385Z" fill="black"/>
<path d="M7.30731 12.8847C7.21316 12.8847 7.13089 12.8155 7.1172 12.7196C7.10216 12.6145 7.17523 12.517 7.28039 12.502L12.665 11.7328C12.77 11.7176 12.8676 11.7908 12.8826 11.8959C12.8976 12.0011 12.8245 12.0985 12.7194 12.1135L7.33477 12.8828C7.3255 12.8841 7.31635 12.8847 7.30731 12.8847Z" fill="black"/>
<path d="M7.30731 14.4232C7.21316 14.4232 7.13089 14.3539 7.1172 14.258C7.10216 14.1529 7.17523 14.0554 7.28039 14.0404L12.665 13.2712C12.77 13.2562 12.8676 13.3292 12.8826 13.4344C12.8976 13.5395 12.8245 13.637 12.7194 13.652L7.33477 14.4212C7.3255 14.4225 7.31635 14.4232 7.30731 14.4232Z" fill="black"/>
<path d="M7.30731 15.9616C7.21316 15.9616 7.13089 15.8924 7.1172 15.7965C7.10216 15.6914 7.17523 15.5939 7.28039 15.5789L12.665 14.8097C12.77 14.7946 12.8676 14.8678 12.8826 14.9729C12.8976 15.078 12.8245 15.1754 12.7194 15.1904L7.33477 15.9597C7.3255 15.961 7.31635 15.9616 7.30731 15.9616Z" fill="black"/>
<path d="M7.30731 17.5002C7.21316 17.5002 7.13089 17.4309 7.1172 17.335C7.10216 17.2299 7.17523 17.1324 7.28039 17.1174L12.665 16.3482C12.77 16.333 12.8676 16.4062 12.8826 16.5114C12.8976 16.6165 12.8245 16.714 12.7194 16.729L7.33477 17.4982C7.3255 17.4995 7.31635 17.5002 7.30731 17.5002Z" fill="black"/>
<path d="M12.3074 9.42318C12.2012 9.42318 12.1151 9.33706 12.1151 9.23087V6.34625H7.88437V9.23087C7.88437 9.33706 7.79826 9.42318 7.69206 9.42318C7.58587 9.42318 7.49976 9.33706 7.49976 9.23087V6.15395C7.49976 6.04772 7.58587 5.96164 7.69206 5.96164H12.3074C12.4137 5.96164 12.4998 6.04772 12.4998 6.15395V9.23087C12.4998 9.33706 12.4137 9.42318 12.3074 9.42318Z" fill="black"/>
<path d="M9.99974 7.88467H7.69206C7.58587 7.88467 7.49976 7.79856 7.49976 7.69237C7.49976 7.58614 7.58587 7.50006 7.69206 7.50006H9.99974C10.106 7.50006 10.192 7.58614 10.192 7.69237C10.192 7.79856 10.106 7.88467 9.99974 7.88467Z" fill="black"/>
<path d="M1.92296 2.88523C1.39277 2.88523 0.961426 2.45389 0.961426 1.92369C0.961426 1.3935 1.39277 0.962158 1.92296 0.962158C2.45315 0.962158 2.8845 1.3935 2.8845 1.92369C2.8845 2.45389 2.45315 2.88523 1.92296 2.88523ZM1.92296 1.34677C1.60485 1.34677 1.34604 1.60558 1.34604 1.92369C1.34604 2.24181 1.60485 2.50062 1.92296 2.50062C2.24108 2.50062 2.49988 2.24181 2.49988 1.92369C2.49988 1.60554 2.24108 1.34677 1.92296 1.34677Z" fill="black"/>
<path d="M18.0768 10.577C17.5466 10.577 17.1152 10.1457 17.1152 9.61547C17.1152 9.08528 17.5466 8.65393 18.0768 8.65393C18.607 8.65393 19.0383 9.08528 19.0383 9.61547C19.0383 10.1457 18.607 10.577 18.0768 10.577ZM18.0768 9.03855C17.7587 9.03855 17.4998 9.29735 17.4998 9.61547C17.4998 9.93358 17.7587 10.1924 18.0768 10.1924C18.3949 10.1924 18.6537 9.93358 18.6537 9.61547C18.6537 9.29735 18.3949 9.03855 18.0768 9.03855Z" fill="black"/>
<path d="M2.69225 12.8847C2.16206 12.8847 1.73071 12.4533 1.73071 11.9231C1.73071 11.393 2.16206 10.9616 2.69225 10.9616C3.22244 10.9616 3.65379 11.393 3.65379 11.9231C3.65379 12.4533 3.22244 12.8847 2.69225 12.8847ZM2.69225 11.3462C2.37413 11.3462 2.11533 11.605 2.11533 11.9231C2.11533 12.2413 2.37413 12.5001 2.69225 12.5001C3.01036 12.5001 3.26917 12.2413 3.26917 11.9231C3.26917 11.605 3.01036 11.3462 2.69225 11.3462Z" fill="black"/>
<path d="M16.1537 15.9616C15.6235 15.9616 15.1921 15.5302 15.1921 15C15.1921 14.4698 15.6235 14.0385 16.1537 14.0385C16.6839 14.0385 17.1152 14.4698 17.1152 15C17.1152 15.5302 16.6839 15.9616 16.1537 15.9616ZM16.1537 14.4231C15.8356 14.4231 15.5768 14.6819 15.5768 15C15.5768 15.3181 15.8356 15.5769 16.1537 15.5769C16.4718 15.5769 16.7306 15.3181 16.7306 15C16.7306 14.6819 16.4718 14.4231 16.1537 14.4231Z" fill="black"/>
<path d="M3.84612 16.3462C3.73992 16.3462 3.65381 16.2602 3.65381 16.1539V14.6155C3.65381 14.5092 3.73992 14.4232 3.84612 14.4232C3.95231 14.4232 4.03842 14.5092 4.03842 14.6155V16.1539C4.03842 16.2602 3.95231 16.3462 3.84612 16.3462Z" fill="black"/>
<path d="M4.61529 15.577H3.07683C2.97064 15.577 2.88452 15.4909 2.88452 15.3847C2.88452 15.2785 2.97064 15.1924 3.07683 15.1924H4.61529C4.72148 15.1924 4.80759 15.2785 4.80759 15.3847C4.80759 15.4909 4.72148 15.577 4.61529 15.577Z" fill="black"/>
<path d="M17.6923 3.65391C17.5861 3.65391 17.5 3.56779 17.5 3.4616V1.92314C17.5 1.81691 17.5861 1.73083 17.6923 1.73083C17.7985 1.73083 17.8846 1.81691 17.8846 1.92314V3.4616C17.8846 3.56779 17.7985 3.65391 17.6923 3.65391Z" fill="black"/>
<path d="M18.4615 2.88468H16.923C16.8168 2.88468 16.7307 2.79856 16.7307 2.69237C16.7307 2.58614 16.8168 2.50006 16.923 2.50006H18.4615C18.5677 2.50006 18.6538 2.58614 18.6538 2.69237C18.6538 2.79856 18.5677 2.88468 18.4615 2.88468Z" fill="black"/>
<path d="M5.01733 5.57699C5.0156 5.57699 5.01387 5.57695 5.0121 5.57691C4.90594 5.57407 4.82218 5.48572 4.82502 5.37953C4.8581 4.14222 5.42714 3.52853 5.89868 3.23153C6.40948 2.90987 6.91129 2.88568 6.93241 2.8848C7.03795 2.88018 7.12806 2.96287 7.13248 3.06903C7.13687 3.17495 7.05468 3.26441 6.94883 3.26907C6.8791 3.27241 5.26341 3.37318 5.20952 5.3898C5.20668 5.49422 5.12114 5.57699 5.01733 5.57699Z" fill="black"/>
</svg>
