<svg width="10" height="10" viewBox="0 0 10 10" fill="none" xmlns="http://www.w3.org/2000/svg">
<path d="M5 0C2.2365 0 0 2.23625 0 5C0 7.76346 2.23625 10 5 10C7.7635 10 10 7.76375 10 5C10 2.23654 7.76375 0 5 0ZM5 9.30232C2.6277 9.30232 0.697676 7.37232 0.697676 5C0.697676 2.62768 2.6277 0.697676 5 0.697676C7.3723 0.697676 9.30232 2.62768 9.30232 5C9.30232 7.37232 7.3723 9.30232 5 9.30232Z" fill="#32404F"/>
<path d="M5.00019 4.16797C4.70401 4.16797 4.49341 4.29305 4.49341 4.47732V6.98486C4.49341 7.14283 4.70401 7.30076 5.00019 7.30076C5.28319 7.30076 5.51353 7.14283 5.51353 6.98486V4.47728C5.51353 4.29303 5.28319 4.16797 5.00019 4.16797Z" fill="#32404F"/>
<path d="M5.00012 2.62122C4.69736 2.62122 4.46045 2.8384 4.46045 3.0885C4.46045 3.33862 4.69738 3.56239 5.00012 3.56239C5.29629 3.56239 5.53324 3.33862 5.53324 3.0885C5.53324 2.8384 5.29627 2.62122 5.00012 2.62122Z" fill="#32404F"/>
</svg>
