<svg width="20" height="20" viewBox="0 0 20 20" fill="none" xmlns="http://www.w3.org/2000/svg">
<g clip-path="url(#clip0_1038_32065)">
<path d="M14.166 1.11627H5.83398C5.23809 1.11627 4.68742 1.4342 4.38949 1.95026L0.223477 9.166C-0.0744922 9.68205 -0.0744922 10.3179 0.223477 10.834L4.38949 18.0497C4.68746 18.5658 5.23809 18.8837 5.83398 18.8837H14.166C14.7619 18.8837 15.3126 18.5658 15.6105 18.0497L19.7765 10.834C20.0745 10.3179 20.0745 9.68205 19.7765 9.166L15.6105 1.95026C15.3126 1.43416 14.7619 1.11627 14.166 1.11627ZM10 13.7529C7.9273 13.7529 6.24707 12.0727 6.24707 9.99998C6.24707 7.92729 7.9273 6.24705 10 6.24705C12.0727 6.24705 13.7529 7.92729 13.7529 9.99998C13.7529 12.0727 12.0727 13.7529 10 13.7529Z" fill="#C5D3DD"/>
<path d="M17.1514 4.61932C16.9274 6.76202 16.0939 9.00073 14.6368 11.0228C11.6767 15.1306 7.05465 17.0826 3.29297 16.1506L4.38945 18.0498C4.68742 18.5658 5.23805 18.8837 5.83395 18.8837H14.166C14.7619 18.8837 15.3125 18.5658 15.6105 18.0498L19.7765 10.834C20.0745 10.318 20.0745 9.6821 19.7765 9.16604L17.1514 4.61932Z" fill="#B6C4CF"/>
<path d="M13.8772 2.45068H6.12298C5.82501 2.45068 5.5497 2.60963 5.40071 2.86768L1.5236 9.58303C1.37462 9.84107 1.37462 10.159 1.5236 10.417L5.40075 17.1324C5.54974 17.3904 5.82505 17.5494 6.12302 17.5494H13.8772C14.1752 17.5494 14.4505 17.3904 14.5995 17.1324L18.4766 10.417C18.6256 10.159 18.6256 9.84107 18.4766 9.58303L14.5994 2.86768C14.4505 2.60963 14.1751 2.45068 13.8772 2.45068ZM10.0001 13.7529C7.92739 13.7529 6.24716 12.0727 6.24716 10C6.24716 7.92732 7.92739 6.24709 10.0001 6.24709C12.0728 6.24709 13.753 7.92732 13.753 10C13.753 12.0727 12.0728 13.7529 10.0001 13.7529Z" fill="#9FACBA"/>
<path d="M16.7684 6.6246C16.3521 8.12535 15.6434 9.62577 14.6367 11.0228C12.1028 14.5392 8.35108 16.4754 4.96362 16.3755L5.40058 17.1323C5.54956 17.3904 5.82487 17.5493 6.12284 17.5493H13.877C14.175 17.5493 14.4503 17.3904 14.5993 17.1323L18.4764 10.417C18.6254 10.1589 18.6254 9.84105 18.4764 9.583L16.7684 6.6246Z" fill="#8D9CA8"/>
<path d="M9.9999 4.91269C7.19471 4.91269 4.9126 7.19484 4.9126 9.99999C4.9126 12.8052 7.19471 15.0873 9.9999 15.0873C12.8051 15.0873 15.0872 12.8052 15.0872 9.99999C15.0872 7.19484 12.8051 4.91269 9.9999 4.91269ZM9.9999 13.7529C7.92721 13.7529 6.24697 12.0727 6.24697 9.99999C6.24697 7.9273 7.92721 6.24706 9.9999 6.24706C12.0726 6.24706 13.7528 7.9273 13.7528 9.99999C13.7528 12.0727 12.0726 13.7529 9.9999 13.7529Z" fill="#596C76"/>
</g>
<defs>
<clipPath id="clip0_1038_32065">
<rect width="20" height="20" fill="white"/>
</clipPath>
</defs>
</svg>
