<svg width="216" height="212" viewBox="0 0 216 212" fill="none" xmlns="http://www.w3.org/2000/svg">
<g filter="url(#filter0_d_1909_77424)">
<rect x="36" y="113" width="33" height="33" fill="#B0D8A4"/>
</g>
<g filter="url(#filter1_d_1909_77424)">
<rect x="69" y="113" width="33" height="33" fill="#B0D8A4"/>
</g>
<g filter="url(#filter2_d_1909_77424)">
<rect x="102" y="113" width="33" height="33" fill="#B0D8A4"/>
</g>
<g filter="url(#filter3_d_1909_77424)">
<rect x="135" y="113" width="33" height="33" fill="#FEE191"/>
</g>
<g filter="url(#filter4_d_1909_77424)">
<path d="M168 113H201V146H168V113Z" fill="#E84258"/>
</g>
<g filter="url(#filter5_d_1909_77424)">
<rect x="36" y="80" width="33" height="33" fill="#B0D8A4"/>
</g>
<g filter="url(#filter6_d_1909_77424)">
<rect x="69" y="80" width="33" height="33" fill="#B0D8A4"/>
</g>
<g filter="url(#filter7_d_1909_77424)">
<rect x="102" y="80" width="33" height="33" fill="#FEE191"/>
</g>
<g filter="url(#filter8_d_1909_77424)">
<rect x="135" y="80" width="33" height="33" fill="#FEE191"/>
</g>
<g filter="url(#filter9_d_1909_77424)">
<path d="M168 80H201V113H168V80Z" fill="#E84258"/>
</g>
<g filter="url(#filter10_d_1909_77424)">
<rect x="36" y="47" width="33" height="33" fill="#B0D8A4"/>
</g>
<g filter="url(#filter11_d_1909_77424)">
<rect x="69" y="47" width="33" height="33" fill="#FEE191"/>
</g>
<g filter="url(#filter12_d_1909_77424)">
<rect x="102" y="47" width="33" height="33" fill="#FEE191"/>
</g>
<g filter="url(#filter13_d_1909_77424)">
<rect x="135" y="47" width="33" height="33" fill="#E84258"/>
</g>
<g filter="url(#filter14_d_1909_77424)">
<path d="M168 47H201V80H168V47Z" fill="#E84258"/>
</g>
<g filter="url(#filter15_d_1909_77424)">
<rect x="36" y="14" width="33" height="33" fill="#B0D8A4"/>
</g>
<g filter="url(#filter16_d_1909_77424)">
<rect x="69" y="14" width="33" height="33" fill="#FEE191"/>
</g>
<g filter="url(#filter17_d_1909_77424)">
<rect x="102" y="14" width="33" height="33" fill="#E84258"/>
</g>
<g filter="url(#filter18_d_1909_77424)">
<rect x="135" y="14" width="33" height="33" fill="#E84258"/>
</g>
<g filter="url(#filter19_d_1909_77424)">
<path d="M168 14H201V47H168V14Z" fill="#E84258"/>
</g>
<path d="M35.5 0L32.6132 5H38.3868L35.5 0ZM35 4.5L35 180H36L36 4.5H35Z" fill="black"/>
<path d="M215.354 179.854C215.549 179.658 215.549 179.342 215.354 179.146L212.172 175.964C211.976 175.769 211.66 175.769 211.464 175.964C211.269 176.16 211.269 176.476 211.464 176.672L214.293 179.5L211.464 182.328C211.269 182.524 211.269 182.84 211.464 183.036C211.66 183.231 211.976 183.231 212.172 183.036L215.354 179.854ZM35 180H215V179H35V180Z" fill="black"/>
<path d="M91.124 206.911C91.124 207.376 91.0076 207.774 90.7749 208.103C90.5457 208.429 90.2235 208.678 89.8081 208.85C89.3927 209.021 88.904 209.107 88.3418 209.107C88.0446 209.107 87.7635 209.093 87.4985 209.064C87.2336 209.036 86.9901 208.995 86.7681 208.941C86.5461 208.887 86.3509 208.821 86.1826 208.742V207.867C86.4512 207.978 86.7788 208.082 87.1655 208.178C87.5522 208.271 87.9569 208.318 88.3794 208.318C88.7733 208.318 89.1063 208.266 89.3784 208.162C89.6506 208.055 89.8564 207.903 89.9961 207.706C90.1393 207.505 90.2109 207.265 90.2109 206.986C90.2109 206.717 90.1519 206.493 90.0337 206.314C89.9155 206.132 89.7186 205.967 89.4429 205.82C89.1707 205.67 88.7983 205.511 88.3257 205.342C87.9927 205.224 87.6991 205.095 87.4448 204.956C87.1906 204.812 86.9775 204.651 86.8057 204.472C86.6338 204.293 86.5031 204.085 86.4136 203.849C86.3276 203.613 86.2847 203.342 86.2847 203.038C86.2847 202.619 86.3903 202.261 86.6016 201.964C86.8164 201.663 87.1118 201.434 87.4878 201.276C87.8674 201.115 88.3024 201.035 88.793 201.035C89.2119 201.035 89.5986 201.074 89.9531 201.153C90.3112 201.232 90.6388 201.337 90.936 201.47L90.6514 202.254C90.3685 202.136 90.0677 202.037 89.749 201.958C89.4339 201.88 89.1081 201.84 88.7715 201.84C88.4349 201.84 88.1502 201.89 87.9175 201.991C87.6883 202.087 87.5129 202.225 87.3911 202.404C87.2694 202.583 87.2085 202.796 87.2085 203.043C87.2085 203.319 87.2658 203.548 87.3804 203.731C87.4985 203.914 87.6847 204.076 87.939 204.22C88.1968 204.359 88.5369 204.506 88.9595 204.66C89.4214 204.828 89.8135 205.007 90.1357 205.197C90.458 205.383 90.7033 205.613 90.8716 205.885C91.0399 206.153 91.124 206.495 91.124 206.911ZM94.9536 209.107C94.4237 209.107 93.9564 208.998 93.5518 208.78C93.1471 208.561 92.832 208.228 92.6064 207.781C92.3809 207.333 92.2681 206.769 92.2681 206.089C92.2681 205.376 92.3862 204.794 92.6226 204.343C92.8625 203.889 93.1919 203.552 93.6108 203.333C94.0298 203.115 94.506 203.006 95.0396 203.006C95.3332 203.006 95.616 203.036 95.8882 203.097C96.1639 203.154 96.3895 203.228 96.5649 203.317L96.2964 204.064C96.1174 203.992 95.9097 203.928 95.6733 203.871C95.4406 203.813 95.2222 203.785 95.0181 203.785C94.6099 203.785 94.2697 203.872 93.9976 204.048C93.729 204.223 93.5267 204.481 93.3906 204.821C93.2581 205.161 93.1919 205.58 93.1919 206.078C93.1919 206.554 93.2563 206.961 93.3853 207.297C93.5177 207.634 93.7129 207.892 93.9707 208.071C94.2321 208.246 94.5579 208.334 94.9482 208.334C95.2598 208.334 95.5409 208.302 95.7915 208.237C96.0422 208.169 96.2695 208.09 96.4736 208.001V208.796C96.2767 208.896 96.0565 208.973 95.813 209.027C95.5731 209.081 95.2866 209.107 94.9536 209.107ZM98.7617 200.643V203.14C98.7617 203.283 98.7581 203.428 98.751 203.575C98.7438 203.718 98.7313 203.851 98.7134 203.973H98.7725C98.8942 203.765 99.0482 203.591 99.2344 203.452C99.4242 203.308 99.639 203.201 99.8789 203.129C100.119 203.054 100.373 203.017 100.642 203.017C101.114 203.017 101.508 203.092 101.823 203.242C102.142 203.393 102.38 203.625 102.538 203.94C102.699 204.256 102.779 204.664 102.779 205.165V209H101.898V205.224C101.898 204.734 101.786 204.367 101.56 204.123C101.338 203.88 100.996 203.758 100.534 203.758C100.097 203.758 99.7482 203.842 99.4868 204.01C99.229 204.175 99.0428 204.418 98.9282 204.741C98.8172 205.063 98.7617 205.457 98.7617 205.922V209H97.8701V200.643H98.7617ZM109.407 208.989L108.36 205.562C108.313 205.416 108.269 205.272 108.226 205.133C108.186 204.99 108.149 204.854 108.113 204.725C108.081 204.592 108.05 204.47 108.021 204.359C107.996 204.245 107.975 204.146 107.957 204.064H107.919C107.905 204.146 107.885 204.245 107.86 204.359C107.835 204.47 107.805 204.592 107.769 204.725C107.737 204.857 107.701 204.997 107.662 205.144C107.622 205.287 107.577 205.432 107.527 205.579L106.432 208.989H105.427L103.805 203.103H104.729L105.578 206.352C105.635 206.567 105.689 206.78 105.739 206.991C105.792 207.199 105.837 207.396 105.873 207.582C105.912 207.765 105.941 207.924 105.959 208.06H106.002C106.023 207.971 106.047 207.863 106.072 207.738C106.1 207.612 106.131 207.48 106.163 207.34C106.199 207.197 106.236 207.056 106.276 206.916C106.315 206.773 106.355 206.639 106.394 206.513L107.479 203.103H108.44L109.488 206.508C109.542 206.68 109.593 206.859 109.644 207.045C109.697 207.231 109.746 207.412 109.789 207.587C109.832 207.759 109.862 207.913 109.88 208.049H109.923C109.937 207.928 109.964 207.777 110.003 207.598C110.043 207.419 110.088 207.222 110.138 207.007C110.191 206.792 110.247 206.574 110.304 206.352L111.164 203.103H112.071L110.444 208.989H109.407ZM115.412 203.006C115.913 203.006 116.343 203.117 116.701 203.339C117.059 203.561 117.333 203.872 117.523 204.273C117.713 204.671 117.808 205.136 117.808 205.67V206.223H113.742C113.752 206.914 113.924 207.441 114.257 207.802C114.59 208.164 115.059 208.345 115.665 208.345C116.037 208.345 116.366 208.311 116.653 208.243C116.939 208.175 117.236 208.074 117.544 207.942V208.726C117.247 208.859 116.952 208.955 116.658 209.016C116.368 209.077 116.024 209.107 115.627 209.107C115.061 209.107 114.567 208.993 114.145 208.764C113.726 208.531 113.4 208.191 113.167 207.743C112.934 207.296 112.818 206.748 112.818 206.1C112.818 205.466 112.924 204.918 113.135 204.456C113.35 203.991 113.65 203.632 114.037 203.382C114.427 203.131 114.886 203.006 115.412 203.006ZM115.401 203.736C114.925 203.736 114.546 203.892 114.263 204.204C113.98 204.515 113.812 204.95 113.758 205.509H116.873C116.869 205.158 116.814 204.85 116.707 204.585C116.603 204.316 116.443 204.109 116.229 203.962C116.014 203.812 115.738 203.736 115.401 203.736ZM121.997 203.006C122.115 203.006 122.239 203.013 122.368 203.027C122.497 203.038 122.611 203.054 122.711 203.076L122.599 203.903C122.502 203.878 122.395 203.858 122.276 203.844C122.158 203.829 122.047 203.822 121.943 203.822C121.707 203.822 121.483 203.871 121.272 203.967C121.064 204.06 120.882 204.196 120.724 204.375C120.567 204.551 120.443 204.764 120.354 205.015C120.264 205.262 120.219 205.537 120.219 205.842V209H119.322V203.113H120.063L120.16 204.198H120.198C120.319 203.98 120.466 203.781 120.638 203.602C120.81 203.419 121.009 203.274 121.234 203.167C121.464 203.06 121.718 203.006 121.997 203.006ZM126.09 203.006C126.591 203.006 127.021 203.117 127.379 203.339C127.737 203.561 128.011 203.872 128.201 204.273C128.39 204.671 128.485 205.136 128.485 205.67V206.223H124.419C124.43 206.914 124.602 207.441 124.935 207.802C125.268 208.164 125.737 208.345 126.342 208.345C126.715 208.345 127.044 208.311 127.331 208.243C127.617 208.175 127.914 208.074 128.222 207.942V208.726C127.925 208.859 127.63 208.955 127.336 209.016C127.046 209.077 126.702 209.107 126.305 209.107C125.739 209.107 125.245 208.993 124.822 208.764C124.403 208.531 124.077 208.191 123.845 207.743C123.612 207.296 123.496 206.748 123.496 206.1C123.496 205.466 123.601 204.918 123.812 204.456C124.027 203.991 124.328 203.632 124.715 203.382C125.105 203.131 125.563 203.006 126.09 203.006ZM126.079 203.736C125.603 203.736 125.223 203.892 124.94 204.204C124.658 204.515 124.489 204.95 124.436 205.509H127.551C127.547 205.158 127.492 204.85 127.384 204.585C127.28 204.316 127.121 204.109 126.906 203.962C126.691 203.812 126.416 203.736 126.079 203.736ZM131.644 211.643C130.87 211.643 130.274 211.498 129.855 211.208C129.436 210.921 129.227 210.518 129.227 209.999C129.227 209.63 129.343 209.315 129.576 209.054C129.812 208.792 130.138 208.619 130.553 208.533C130.399 208.461 130.267 208.354 130.156 208.21C130.048 208.067 129.995 207.903 129.995 207.716C129.995 207.501 130.054 207.313 130.172 207.152C130.294 206.988 130.478 206.83 130.725 206.68C130.417 206.554 130.167 206.343 129.973 206.046C129.783 205.745 129.688 205.396 129.688 204.999C129.688 204.576 129.776 204.216 129.952 203.919C130.127 203.618 130.381 203.389 130.714 203.231C131.047 203.074 131.45 202.995 131.923 202.995C132.027 202.995 132.131 203 132.234 203.011C132.342 203.018 132.444 203.031 132.541 203.049C132.637 203.063 132.721 203.081 132.793 203.103H134.812V203.677L133.728 203.812C133.835 203.951 133.924 204.119 133.996 204.316C134.068 204.513 134.104 204.732 134.104 204.972C134.104 205.559 133.905 206.026 133.507 206.374C133.11 206.717 132.564 206.889 131.869 206.889C131.704 206.889 131.536 206.875 131.364 206.846C131.189 206.943 131.055 207.05 130.961 207.168C130.872 207.287 130.827 207.423 130.827 207.577C130.827 207.691 130.861 207.783 130.929 207.851C131.001 207.919 131.103 207.969 131.235 208.001C131.368 208.03 131.527 208.044 131.713 208.044H132.75C133.391 208.044 133.882 208.178 134.222 208.447C134.565 208.715 134.737 209.107 134.737 209.623C134.737 210.275 134.472 210.774 133.942 211.122C133.412 211.469 132.646 211.643 131.644 211.643ZM131.67 210.944C132.157 210.944 132.56 210.894 132.879 210.794C133.201 210.697 133.441 210.556 133.599 210.37C133.76 210.187 133.84 209.969 133.84 209.714C133.84 209.478 133.787 209.299 133.679 209.177C133.572 209.059 133.414 208.98 133.207 208.941C132.999 208.898 132.745 208.876 132.444 208.876H131.423C131.158 208.876 130.927 208.918 130.73 209C130.534 209.082 130.381 209.204 130.274 209.365C130.17 209.526 130.118 209.727 130.118 209.967C130.118 210.285 130.252 210.527 130.521 210.692C130.79 210.86 131.173 210.944 131.67 210.944ZM131.901 206.239C132.327 206.239 132.648 206.132 132.863 205.917C133.078 205.702 133.185 205.389 133.185 204.977C133.185 204.537 133.076 204.207 132.857 203.989C132.639 203.767 132.317 203.656 131.891 203.656C131.482 203.656 131.167 203.77 130.945 204C130.727 204.225 130.618 204.556 130.618 204.993C130.618 205.394 130.729 205.702 130.951 205.917C131.173 206.132 131.49 206.239 131.901 206.239ZM138.647 203.006C138.766 203.006 138.889 203.013 139.018 203.027C139.147 203.038 139.262 203.054 139.362 203.076L139.249 203.903C139.152 203.878 139.045 203.858 138.927 203.844C138.809 203.829 138.698 203.822 138.594 203.822C138.357 203.822 138.134 203.871 137.922 203.967C137.715 204.06 137.532 204.196 137.375 204.375C137.217 204.551 137.093 204.764 137.004 205.015C136.914 205.262 136.87 205.537 136.87 205.842V209H135.973V203.113H136.714L136.811 204.198H136.848C136.97 203.98 137.117 203.781 137.289 203.602C137.46 203.419 137.659 203.274 137.885 203.167C138.114 203.06 138.368 203.006 138.647 203.006ZM142.676 203.017C143.378 203.017 143.899 203.174 144.239 203.489C144.579 203.804 144.749 204.307 144.749 204.999V209H144.099L143.927 208.13H143.884C143.72 208.345 143.548 208.526 143.369 208.672C143.19 208.816 142.982 208.925 142.746 209C142.513 209.072 142.226 209.107 141.886 209.107C141.528 209.107 141.209 209.045 140.93 208.919C140.654 208.794 140.436 208.604 140.275 208.35C140.117 208.096 140.039 207.774 140.039 207.383C140.039 206.796 140.271 206.345 140.737 206.03C141.202 205.715 141.911 205.543 142.864 205.514L143.879 205.471V205.111C143.879 204.603 143.77 204.247 143.551 204.042C143.333 203.838 143.025 203.736 142.627 203.736C142.319 203.736 142.026 203.781 141.747 203.871C141.467 203.96 141.202 204.066 140.952 204.188L140.678 203.511C140.943 203.375 141.247 203.258 141.591 203.162C141.935 203.065 142.296 203.017 142.676 203.017ZM143.868 206.1L142.971 206.137C142.237 206.166 141.72 206.286 141.419 206.497C141.118 206.708 140.968 207.007 140.968 207.394C140.968 207.731 141.07 207.979 141.274 208.141C141.478 208.302 141.748 208.382 142.085 208.382C142.608 208.382 143.036 208.237 143.369 207.947C143.702 207.657 143.868 207.222 143.868 206.642V206.1ZM148.681 209.107C147.936 209.107 147.345 208.853 146.908 208.345C146.475 207.836 146.258 207.081 146.258 206.078C146.258 205.065 146.48 204.3 146.924 203.785C147.368 203.265 147.959 203.006 148.697 203.006C149.008 203.006 149.28 203.047 149.513 203.129C149.746 203.212 149.946 203.323 150.115 203.462C150.283 203.598 150.424 203.754 150.539 203.93H150.604C150.589 203.819 150.575 203.667 150.561 203.473C150.546 203.28 150.539 203.122 150.539 203V200.643H151.431V209H150.711L150.577 208.162H150.539C150.428 208.338 150.287 208.497 150.115 208.64C149.946 208.783 149.744 208.898 149.508 208.984C149.275 209.066 148.999 209.107 148.681 209.107ZM148.82 208.366C149.451 208.366 149.896 208.187 150.158 207.829C150.419 207.471 150.55 206.939 150.55 206.234V206.073C150.55 205.324 150.424 204.75 150.174 204.349C149.927 203.948 149.476 203.747 148.82 203.747C148.272 203.747 147.862 203.958 147.59 204.381C147.318 204.8 147.182 205.373 147.182 206.1C147.182 206.823 147.316 207.382 147.585 207.775C147.857 208.169 148.269 208.366 148.82 208.366Z" fill="black"/>
<path d="M2.14746 135.371L10 137.471V138.39L4.71484 139.947C4.56445 139.994 4.41406 140.039 4.26367 140.082C4.1097 140.121 3.96468 140.159 3.82861 140.194C3.68896 140.23 3.56722 140.261 3.46338 140.286C3.35596 140.307 3.27539 140.323 3.22168 140.334C3.27539 140.341 3.35417 140.355 3.45801 140.377C3.56185 140.395 3.6818 140.42 3.81787 140.452C3.95394 140.481 4.09896 140.517 4.25293 140.56C4.4069 140.599 4.56266 140.642 4.72021 140.688L10 142.203V143.122L2.14746 145.206V144.255L7.07275 142.993C7.23747 142.95 7.40039 142.91 7.56152 142.875C7.71908 142.835 7.87305 142.801 8.02344 142.772C8.17383 142.74 8.32064 142.712 8.46387 142.687C8.6071 142.661 8.74674 142.638 8.88281 142.617C8.74316 142.599 8.59814 142.576 8.44775 142.547C8.29378 142.518 8.13802 142.488 7.98047 142.456C7.82292 142.42 7.66357 142.382 7.50244 142.343C7.34131 142.3 7.18018 142.255 7.01904 142.208L2.14746 140.796V139.856L7.05664 138.384C7.22493 138.334 7.39144 138.288 7.55615 138.245C7.72087 138.202 7.882 138.164 8.03955 138.132C8.19352 138.096 8.34212 138.066 8.48535 138.041C8.625 138.012 8.75749 137.987 8.88281 137.965C8.70736 137.94 8.52295 137.91 8.32959 137.874C8.13623 137.838 7.93392 137.797 7.72266 137.75C7.51139 137.7 7.29297 137.647 7.06738 137.589L2.14746 136.327V135.371ZM4.0166 132.062C4.0166 131.361 4.17415 130.84 4.48926 130.5C4.80436 130.159 5.30745 129.989 5.99854 129.989H10V130.639L9.12988 130.811V130.854C9.34473 131.019 9.52555 131.191 9.67236 131.37C9.81559 131.549 9.9248 131.756 10 131.993C10.0716 132.225 10.1074 132.512 10.1074 132.852C10.1074 133.21 10.0448 133.529 9.91943 133.808C9.79411 134.084 9.60433 134.302 9.3501 134.463C9.09587 134.621 8.7736 134.7 8.3833 134.7C7.79606 134.7 7.34489 134.467 7.02979 134.001C6.71468 133.536 6.54281 132.827 6.51416 131.875L6.47119 130.859H6.11133C5.60286 130.859 5.24658 130.969 5.04248 131.187C4.83838 131.405 4.73633 131.713 4.73633 132.111C4.73633 132.419 4.78109 132.712 4.87061 132.992C4.96012 133.271 5.06576 133.536 5.1875 133.787L4.51074 134.061C4.37467 133.796 4.2583 133.491 4.16162 133.147C4.06494 132.804 4.0166 132.442 4.0166 132.062ZM7.09961 130.87L7.13721 131.767C7.16585 132.501 7.28581 133.019 7.49707 133.319C7.70833 133.62 8.00732 133.771 8.39404 133.771C8.73063 133.771 8.97949 133.668 9.14063 133.464C9.30176 133.26 9.38232 132.99 9.38232 132.653C9.38232 132.131 9.2373 131.703 8.94727 131.37C8.65723 131.037 8.22217 130.87 7.64209 130.87H7.09961ZM1.64258 127.261H4.14014C4.28337 127.261 4.42839 127.264 4.5752 127.271C4.71842 127.279 4.85091 127.291 4.97266 127.309V127.25C4.76497 127.128 4.59131 126.974 4.45166 126.788C4.30843 126.598 4.20101 126.383 4.12939 126.144C4.0542 125.904 4.0166 125.649 4.0166 125.381C4.0166 124.908 4.0918 124.514 4.24219 124.199C4.39258 123.881 4.62533 123.642 4.94043 123.485C5.25553 123.324 5.66374 123.243 6.16504 123.243H10V124.124H6.22412C5.73356 124.124 5.36654 124.237 5.12305 124.462C4.87956 124.684 4.75781 125.026 4.75781 125.488C4.75781 125.925 4.84196 126.274 5.01025 126.536C5.17497 126.793 5.41846 126.98 5.74072 127.094C6.06299 127.205 6.45687 127.261 6.92236 127.261H10V128.152H1.64258L1.64258 127.261ZM4.00586 118.731C4.00586 118.613 4.01302 118.49 4.02734 118.361C4.03809 118.232 4.0542 118.117 4.07568 118.017L4.90283 118.13C4.87777 118.227 4.85807 118.334 4.84375 118.452C4.82943 118.57 4.82227 118.681 4.82227 118.785C4.82227 119.021 4.87061 119.245 4.96729 119.457C5.06038 119.664 5.19645 119.847 5.37549 120.004C5.55094 120.162 5.764 120.285 6.01465 120.375C6.26172 120.465 6.53743 120.509 6.8418 120.509H10V121.406H4.11328V120.665L5.19824 120.568V120.531C4.97982 120.409 4.78109 120.262 4.60205 120.09C4.41943 119.918 4.27441 119.72 4.16699 119.494C4.05957 119.265 4.00586 119.011 4.00586 118.731ZM8.38867 113.097C8.76465 113.097 9.08154 113.192 9.33936 113.382C9.59359 113.568 9.78516 113.837 9.91406 114.188C10.043 114.535 10.1074 114.95 10.1074 115.434C10.1074 115.845 10.0752 116.202 10.0107 116.502C9.94629 116.803 9.85498 117.066 9.73682 117.292H8.91504C9.0332 117.052 9.14063 116.766 9.2373 116.433C9.33398 116.1 9.38232 115.759 9.38232 115.412C9.38232 114.904 9.29997 114.535 9.13525 114.306C8.97054 114.076 8.74674 113.962 8.46387 113.962C8.30273 113.962 8.1613 114.008 8.03955 114.102C7.91423 114.191 7.79427 114.343 7.67969 114.558C7.56152 114.773 7.43262 115.07 7.29297 115.45C7.14974 115.826 7.0083 116.152 6.86865 116.427C6.72542 116.699 6.55176 116.911 6.34766 117.061C6.14355 117.208 5.87858 117.281 5.55273 117.281C5.05501 117.281 4.67367 117.081 4.40869 116.68C4.14014 116.275 4.00586 115.745 4.00586 115.09C4.00586 114.735 4.04167 114.404 4.11328 114.096C4.18132 113.785 4.27441 113.495 4.39258 113.226L5.10693 113.527C5.00309 113.77 4.91536 114.03 4.84375 114.306C4.77214 114.581 4.73633 114.862 4.73633 115.149C4.73633 115.561 4.80436 115.878 4.94043 116.1C5.0765 116.318 5.2627 116.427 5.49902 116.427C5.68164 116.427 5.83203 116.377 5.9502 116.277C6.06836 116.173 6.17936 116.008 6.2832 115.783C6.38704 115.557 6.50879 115.26 6.64844 114.891C6.78451 114.522 6.92594 114.204 7.07275 113.935C7.21598 113.667 7.39144 113.461 7.59912 113.317C7.80322 113.171 8.06641 113.097 8.38867 113.097ZM10.1074 109.305C10.1074 109.835 9.99821 110.302 9.77979 110.707C9.56136 111.112 9.22835 111.427 8.78076 111.652C8.33317 111.878 7.76921 111.991 7.08887 111.991C6.3763 111.991 5.79443 111.873 5.34326 111.636C4.88851 111.396 4.55192 111.067 4.3335 110.648C4.11507 110.229 4.00586 109.753 4.00586 109.219C4.00586 108.926 4.0363 108.643 4.09717 108.371C4.15446 108.095 4.22786 107.869 4.31738 107.694L5.06396 107.962C4.99235 108.141 4.9279 108.349 4.87061 108.585C4.81331 108.818 4.78467 109.037 4.78467 109.241C4.78467 109.649 4.8724 109.989 5.04785 110.261C5.22331 110.53 5.48112 110.732 5.82129 110.868C6.16146 111.001 6.5804 111.067 7.07813 111.067C7.55436 111.067 7.96077 111.002 8.29736 110.874C8.63395 110.741 8.89176 110.546 9.0708 110.288C9.24626 110.027 9.33398 109.701 9.33398 109.311C9.33398 108.999 9.30176 108.718 9.2373 108.467C9.16927 108.217 9.09049 107.989 9.00098 107.785H9.7959C9.89616 107.982 9.97314 108.202 10.0269 108.446C10.0806 108.686 10.1074 108.972 10.1074 109.305ZM1.64258 105.497H4.14014C4.28337 105.497 4.42839 105.501 4.5752 105.508C4.71842 105.515 4.85091 105.528 4.97266 105.545V105.486C4.76497 105.365 4.59131 105.211 4.45166 105.024C4.30843 104.835 4.20101 104.62 4.12939 104.38C4.0542 104.14 4.0166 103.886 4.0166 103.617C4.0166 103.145 4.0918 102.751 4.24219 102.436C4.39258 102.117 4.62533 101.879 4.94043 101.721C5.25553 101.56 5.66374 101.479 6.16504 101.479H10V102.36H6.22412C5.73356 102.36 5.36654 102.473 5.12305 102.699C4.87956 102.921 4.75781 103.263 4.75781 103.725C4.75781 104.161 4.84196 104.511 5.01025 104.772C5.17497 105.03 5.41846 105.216 5.74072 105.331C6.06299 105.442 6.45687 105.497 6.92236 105.497H10V106.389H1.64258V105.497ZM4.00586 97.376C4.00586 96.8747 4.11686 96.445 4.33887 96.0869C4.56087 95.7288 4.8724 95.4549 5.27344 95.2651C5.6709 95.0754 6.13639 94.9805 6.66992 94.9805H7.22314L7.22314 99.0464C7.91423 99.0356 8.44059 98.8638 8.80225 98.5308C9.1639 98.1978 9.34473 97.7287 9.34473 97.1235C9.34473 96.7511 9.31071 96.4217 9.24268 96.1353C9.17464 95.8488 9.07438 95.5516 8.94189 95.2437H9.72607C9.85856 95.5409 9.95524 95.8363 10.0161 96.1299C10.077 96.4199 10.1074 96.7637 10.1074 97.1611C10.1074 97.7269 9.99284 98.221 9.76367 98.6436C9.53092 99.0625 9.19076 99.3883 8.74316 99.6211C8.29557 99.8538 7.74772 99.9702 7.09961 99.9702C6.46582 99.9702 5.91797 99.8646 5.45605 99.6533C4.99056 99.4385 4.63249 99.1377 4.38184 98.751C4.13118 98.3607 4.00586 97.9023 4.00586 97.376ZM4.73633 97.3867C4.73633 97.863 4.89209 98.2425 5.20361 98.5254C5.51514 98.8083 5.9502 98.9766 6.50879 99.0303V95.915C6.15788 95.9186 5.84993 95.9741 5.58496 96.0815C5.31641 96.1854 5.10872 96.3447 4.96191 96.5596C4.81152 96.7744 4.73633 97.0501 4.73633 97.3867ZM4.11328 92.5742H10V93.4658H4.11328V92.5742ZM1.91113 93.0093C1.91113 92.8625 1.95947 92.7371 2.05615 92.6333C2.14925 92.5259 2.29606 92.4722 2.49658 92.4722C2.69352 92.4722 2.84033 92.5259 2.93701 92.6333C3.03369 92.7371 3.08203 92.8625 3.08203 93.0093C3.08203 93.1632 3.03369 93.2922 2.93701 93.396C2.84033 93.4963 2.69352 93.5464 2.49658 93.5464C2.29606 93.5464 2.14925 93.4963 2.05615 93.396C1.95947 93.2922 1.91113 93.1632 1.91113 93.0093ZM4.00586 87.896C4.00586 87.1978 4.17773 86.6696 4.52148 86.3115C4.86165 85.9535 5.40951 85.7744 6.16504 85.7744H10V86.6553H6.22412C5.73356 86.6553 5.36654 86.7681 5.12305 86.9937C4.87956 87.2157 4.75781 87.5576 4.75781 88.0195C4.75781 88.6712 4.94222 89.1296 5.31104 89.3945C5.67985 89.6595 6.21517 89.792 6.91699 89.792H10V90.6836H4.11328V89.9639L4.96191 89.8296V89.7812C4.75423 89.6559 4.58057 89.4966 4.44092 89.3032C4.29769 89.1099 4.19027 88.8932 4.11865 88.6533C4.04346 88.4134 4.00586 88.161 4.00586 87.896ZM10 83.0405V83.9375H1.64258L1.64258 83.0405H10ZM4.11328 80.2637H10V81.1553H4.11328V80.2637ZM1.91113 80.6987C1.91113 80.5519 1.95947 80.4266 2.05615 80.3228C2.14925 80.2153 2.29606 80.1616 2.49658 80.1616C2.69352 80.1616 2.84033 80.2153 2.93701 80.3228C3.03369 80.4266 3.08203 80.5519 3.08203 80.6987C3.08203 80.8527 3.03369 80.9816 2.93701 81.0854C2.84033 81.1857 2.69352 81.2358 2.49658 81.2358C2.29606 81.2358 2.14925 81.1857 2.05615 81.0854C1.95947 80.9816 1.91113 80.8527 1.91113 80.6987ZM10.1074 76.0151C10.1074 76.5451 9.99821 77.0124 9.77979 77.417C9.56136 77.8216 9.22835 78.1367 8.78076 78.3623C8.33317 78.5879 7.76921 78.7007 7.08887 78.7007C6.3763 78.7007 5.79443 78.5825 5.34326 78.3462C4.88851 78.1063 4.55192 77.7769 4.3335 77.3579C4.11507 76.939 4.00586 76.4627 4.00586 75.9292C4.00586 75.6356 4.0363 75.3527 4.09717 75.0806C4.15446 74.8049 4.22786 74.5793 4.31738 74.4038L5.06396 74.6724C4.99235 74.8514 4.9279 75.0591 4.87061 75.2954C4.81331 75.5282 4.78467 75.7466 4.78467 75.9507C4.78467 76.3589 4.8724 76.6991 5.04785 76.9712C5.22331 77.2397 5.48112 77.4421 5.82129 77.5781C6.16146 77.7106 6.5804 77.7769 7.07813 77.7769C7.55436 77.7769 7.96077 77.7124 8.29736 77.5835C8.63395 77.451 8.89176 77.2559 9.0708 76.998C9.24626 76.7367 9.33398 76.4108 9.33398 76.0205C9.33398 75.709 9.30176 75.4279 9.2373 75.1772C9.16927 74.9266 9.09049 74.6992 9.00098 74.4951H9.7959C9.89616 74.6921 9.97314 74.9123 10.0269 75.1558C10.0806 75.3957 10.1074 75.6821 10.1074 76.0151ZM1.64258 72.207H4.14014C4.28337 72.207 4.42839 72.2106 4.5752 72.2178C4.71842 72.2249 4.85091 72.2375 4.97266 72.2554V72.1963C4.76497 72.0745 4.59131 71.9206 4.45166 71.7344C4.30843 71.5446 4.20101 71.3298 4.12939 71.0898C4.0542 70.8499 4.0166 70.5957 4.0166 70.3271C4.0166 69.8545 4.0918 69.4606 4.24219 69.1455C4.39258 68.8268 4.62533 68.5887 4.94043 68.4312C5.25553 68.27 5.66374 68.1895 6.16504 68.1895H10V69.0703H6.22412C5.73356 69.0703 5.36654 69.1831 5.12305 69.4087C4.87956 69.6307 4.75781 69.9727 4.75781 70.4346C4.75781 70.8714 4.84196 71.2205 5.01025 71.4819C5.17497 71.7397 5.41846 71.9259 5.74072 72.0405C6.06299 72.1515 6.45687 72.207 6.92236 72.207H10V73.0986H1.64258V72.207ZM1.64258 65.4663H5.98242C6.12565 65.4663 6.30111 65.4717 6.50879 65.4824C6.71289 65.4932 6.89372 65.5021 7.05127 65.5093V65.4717C6.95817 65.3965 6.82031 65.2873 6.6377 65.144C6.45508 64.9972 6.30827 64.8737 6.19727 64.7734L4.11328 62.8184V61.771L6.62695 64.1396L10 61.5991V62.6733L7.2124 64.752L7.86768 65.4663H10V66.3525H1.64258L1.64258 65.4663ZM4.00586 58.3066C4.00586 57.8053 4.11686 57.3757 4.33887 57.0176C4.56087 56.6595 4.8724 56.3856 5.27344 56.1958C5.6709 56.006 6.13639 55.9111 6.66992 55.9111H7.22314L7.22314 59.9771C7.91423 59.9663 8.44059 59.7944 8.80225 59.4614C9.1639 59.1284 9.34473 58.6593 9.34473 58.0542C9.34473 57.6818 9.31071 57.3524 9.24268 57.0659C9.17464 56.7795 9.07438 56.4823 8.94189 56.1743H9.72607C9.85856 56.4715 9.95524 56.7669 10.0161 57.0605C10.077 57.3506 10.1074 57.6943 10.1074 58.0918C10.1074 58.6576 9.99284 59.1517 9.76367 59.5742C9.53092 59.9932 9.19076 60.319 8.74316 60.5518C8.29557 60.7845 7.74772 60.9009 7.09961 60.9009C6.46582 60.9009 5.91797 60.7952 5.45605 60.584C4.99056 60.3691 4.63249 60.0684 4.38184 59.6816C4.13118 59.2913 4.00586 58.833 4.00586 58.3066ZM4.73633 58.3174C4.73633 58.7936 4.89209 59.1732 5.20361 59.4561C5.51514 59.7389 5.9502 59.9072 6.50879 59.9609L6.50879 56.8457C6.15788 56.8493 5.84993 56.9048 5.58496 57.0122C5.31641 57.116 5.10872 57.2754 4.96191 57.4902C4.81152 57.7051 4.73633 57.9808 4.73633 58.3174ZM4.11328 53.5049H10V54.3965H4.11328V53.5049ZM1.91113 53.9399C1.91113 53.7931 1.95947 53.6678 2.05615 53.564C2.14925 53.4565 2.29606 53.4028 2.49658 53.4028C2.69352 53.4028 2.84033 53.4565 2.93701 53.564C3.03369 53.6678 3.08203 53.7931 3.08203 53.9399C3.08203 54.0939 3.03369 54.2228 2.93701 54.3267C2.84033 54.4269 2.69352 54.4771 2.49658 54.4771C2.29606 54.4771 2.14925 54.4269 2.05615 54.3267C1.95947 54.2228 1.91113 54.0939 1.91113 53.9399ZM9.37695 49.7129C9.37695 49.5661 9.36442 49.4157 9.33936 49.2617C9.31429 49.1077 9.28385 48.9824 9.24805 48.8857H9.94092C9.98747 48.9896 10.0269 49.1346 10.0591 49.3208C10.0913 49.5034 10.1074 49.6825 10.1074 49.8579C10.1074 50.1694 10.0537 50.4523 9.94629 50.7065C9.83529 50.9608 9.64909 51.1649 9.3877 51.3188C9.1263 51.4692 8.76465 51.5444 8.30273 51.5444H4.81152V52.3823H4.37646L4.02734 51.5391L2.74902 51.1846L2.74902 50.6475H4.11328V48.9233H4.81152V50.6475H8.27588C8.64469 50.6475 8.92041 50.5633 9.10303 50.395C9.28564 50.2231 9.37695 49.9958 9.37695 49.7129Z" fill="black"/>
<path d="M53.2144 195H52.3442V189.436C52.3442 189.224 52.3442 189.043 52.3442 188.893C52.3478 188.739 52.3514 188.599 52.355 188.474C52.3621 188.345 52.3711 188.215 52.3818 188.082C52.2708 188.197 52.167 188.295 52.0703 188.377C51.9736 188.456 51.8537 188.555 51.7104 188.673L50.8135 189.393L50.3462 188.786L52.4731 187.147H53.2144V195Z" fill="black"/>
<path d="M24.7144 167H23.8442V161.436C23.8442 161.224 23.8442 161.043 23.8442 160.893C23.8478 160.739 23.8514 160.599 23.855 160.474C23.8621 160.345 23.8711 160.215 23.8818 160.082C23.7708 160.197 23.667 160.295 23.5703 160.377C23.4736 160.456 23.3537 160.555 23.2104 160.673L22.3135 161.393L21.8462 160.786L23.9731 159.147H24.7144V167Z" fill="black"/>
<path d="M26.5405 134H21.395V133.253L23.4951 131.121C23.8854 130.727 24.2131 130.376 24.478 130.068C24.7466 129.76 24.9507 129.458 25.0903 129.161C25.23 128.86 25.2998 128.53 25.2998 128.172C25.2998 127.728 25.1673 127.39 24.9023 127.157C24.641 126.921 24.2954 126.803 23.8657 126.803C23.4897 126.803 23.1567 126.867 22.8667 126.996C22.5767 127.125 22.2795 127.308 21.9751 127.544L21.4971 126.942C21.7048 126.767 21.9303 126.611 22.1738 126.475C22.4209 126.339 22.6841 126.232 22.9634 126.153C23.2463 126.074 23.547 126.035 23.8657 126.035C24.3491 126.035 24.7663 126.119 25.1172 126.287C25.4681 126.455 25.7384 126.695 25.9282 127.007C26.1216 127.318 26.2183 127.689 26.2183 128.119C26.2183 128.534 26.1359 128.921 25.9712 129.279C25.8065 129.633 25.5755 129.986 25.2783 130.337C24.9811 130.684 24.6338 131.053 24.2363 131.443L22.5283 133.146V133.184H26.5405V134Z" fill="black"/>
<path d="M26.2505 94.979C26.2505 95.3299 26.1825 95.6343 26.0464 95.8921C25.9103 96.1499 25.7205 96.3612 25.4771 96.5259C25.2336 96.687 24.9471 96.7998 24.6177 96.8643V96.9072C25.2407 96.986 25.708 97.1865 26.0195 97.5088C26.3346 97.8311 26.4922 98.2536 26.4922 98.7764C26.4922 99.2311 26.3848 99.634 26.1699 99.9849C25.9587 100.336 25.6328 100.611 25.1924 100.812C24.7555 101.009 24.1951 101.107 23.5112 101.107C23.0959 101.107 22.7109 101.073 22.3564 101.005C22.0055 100.941 21.6689 100.832 21.3467 100.678V99.8398C21.6725 100.001 22.027 100.128 22.4102 100.221C22.7933 100.311 23.1639 100.355 23.522 100.355C24.2381 100.355 24.7555 100.214 25.0742 99.9312C25.3929 99.6447 25.5522 99.2544 25.5522 98.7603C25.5522 98.4201 25.4627 98.1462 25.2837 97.9385C25.1082 97.7272 24.854 97.5732 24.521 97.4766C24.1916 97.3763 23.7941 97.3262 23.3286 97.3262H22.5444V96.5635H23.334C23.7601 96.5635 24.1217 96.5008 24.4189 96.3755C24.7161 96.2502 24.9417 96.0747 25.0957 95.8491C25.2533 95.62 25.332 95.3496 25.332 95.0381C25.332 94.6406 25.1995 94.3345 24.9346 94.1196C24.6696 93.9012 24.3097 93.792 23.855 93.792C23.5757 93.792 23.3215 93.8206 23.0923 93.8779C22.8631 93.9352 22.6483 94.014 22.4478 94.1143C22.2472 94.2145 22.0467 94.3309 21.8462 94.4634L21.395 93.8511C21.6815 93.6291 22.0306 93.4375 22.4424 93.2764C22.8542 93.1152 23.3215 93.0347 23.8442 93.0347C24.6463 93.0347 25.2479 93.2173 25.6489 93.5825C26.05 93.9478 26.2505 94.4132 26.2505 94.979Z" fill="black"/>
<path d="M26.9326 66.1792H25.7563V68H24.8862V66.1792H21.0889V65.4272L24.8271 60.1045H25.7563V65.3735H26.9326V66.1792ZM24.8862 65.3735V62.8062C24.8862 62.6092 24.888 62.432 24.8916 62.2744C24.8952 62.1133 24.9006 61.9647 24.9077 61.8286C24.9149 61.689 24.9202 61.5565 24.9238 61.4312C24.931 61.3058 24.9364 61.1823 24.9399 61.0605H24.897C24.8289 61.2038 24.7502 61.356 24.6606 61.5171C24.5747 61.6746 24.487 61.8161 24.3975 61.9414L21.9751 65.3735H24.8862Z" fill="black"/>
<path d="M23.8765 30.1982C24.41 30.1982 24.8737 30.2896 25.2676 30.4722C25.6615 30.6512 25.9658 30.9126 26.1807 31.2563C26.3991 31.6001 26.5083 32.0173 26.5083 32.5078C26.5083 33.0449 26.3919 33.5086 26.1592 33.8989C25.9264 34.2856 25.5916 34.5846 25.1548 34.7959C24.7179 35.0036 24.1951 35.1074 23.5864 35.1074C23.1782 35.1074 22.7987 35.0716 22.4478 35C22.0968 34.9284 21.8014 34.821 21.5615 34.6777V33.8291C21.8229 33.9867 22.1398 34.112 22.5122 34.2051C22.8846 34.2982 23.2463 34.3447 23.5972 34.3447C23.9946 34.3447 24.342 34.2821 24.6392 34.1567C24.9399 34.0278 25.1727 33.8345 25.3374 33.5767C25.5057 33.3153 25.5898 32.9876 25.5898 32.5938C25.5898 32.071 25.4287 31.6681 25.1064 31.3853C24.7878 31.0988 24.2829 30.9556 23.5918 30.9556C23.3698 30.9556 23.1263 30.9735 22.8613 31.0093C22.5964 31.0451 22.3779 31.0845 22.2061 31.1274L21.7549 30.832L22.0557 27.1475H25.9604V27.9639H22.8184L22.6196 30.3325C22.7557 30.3039 22.9312 30.2752 23.146 30.2466C23.3608 30.2144 23.6043 30.1982 23.8765 30.1982Z" fill="black"/>
<path d="M88.0405 195H82.895V194.253L84.9951 192.121C85.3854 191.727 85.7131 191.376 85.978 191.068C86.2466 190.76 86.4507 190.458 86.5903 190.161C86.73 189.86 86.7998 189.53 86.7998 189.172C86.7998 188.728 86.6673 188.39 86.4023 188.157C86.141 187.921 85.7954 187.803 85.3657 187.803C84.9897 187.803 84.6567 187.867 84.3667 187.996C84.0767 188.125 83.7795 188.308 83.4751 188.544L82.9971 187.942C83.2048 187.767 83.4303 187.611 83.6738 187.475C83.9209 187.339 84.1841 187.232 84.4634 187.153C84.7463 187.074 85.047 187.035 85.3657 187.035C85.8491 187.035 86.2663 187.119 86.6172 187.287C86.9681 187.455 87.2384 187.695 87.4282 188.007C87.6216 188.318 87.7183 188.689 87.7183 189.119C87.7183 189.534 87.6359 189.921 87.4712 190.279C87.3065 190.633 87.0755 190.986 86.7783 191.337C86.4811 191.684 86.1338 192.053 85.7363 192.443L84.0283 194.146V194.184H88.0405V195Z" fill="black"/>
<path d="M120.75 188.979C120.75 189.33 120.682 189.634 120.546 189.892C120.41 190.15 120.221 190.361 119.977 190.526C119.734 190.687 119.447 190.8 119.118 190.864V190.907C119.741 190.986 120.208 191.187 120.52 191.509C120.835 191.831 120.992 192.254 120.992 192.776C120.992 193.231 120.885 193.634 120.67 193.985C120.459 194.336 120.133 194.611 119.692 194.812C119.256 195.009 118.695 195.107 118.011 195.107C117.596 195.107 117.211 195.073 116.856 195.005C116.506 194.941 116.169 194.832 115.847 194.678V193.84C116.173 194.001 116.527 194.128 116.91 194.221C117.293 194.311 117.664 194.355 118.022 194.355C118.738 194.355 119.256 194.214 119.574 193.931C119.893 193.645 120.052 193.254 120.052 192.76C120.052 192.42 119.963 192.146 119.784 191.938C119.608 191.727 119.354 191.573 119.021 191.477C118.692 191.376 118.294 191.326 117.829 191.326H117.044V190.563H117.834C118.26 190.563 118.622 190.501 118.919 190.375C119.216 190.25 119.442 190.075 119.596 189.849C119.753 189.62 119.832 189.35 119.832 189.038C119.832 188.641 119.7 188.334 119.435 188.12C119.17 187.901 118.81 187.792 118.355 187.792C118.076 187.792 117.821 187.821 117.592 187.878C117.363 187.935 117.148 188.014 116.948 188.114C116.747 188.215 116.547 188.331 116.346 188.463L115.895 187.851C116.181 187.629 116.531 187.438 116.942 187.276C117.354 187.115 117.821 187.035 118.344 187.035C119.146 187.035 119.748 187.217 120.149 187.583C120.55 187.948 120.75 188.413 120.75 188.979Z" fill="black"/>
<path d="M154.433 193.179H153.256V195H152.386V193.179H148.589V192.427L152.327 187.104H153.256V192.374H154.433V193.179ZM152.386 192.374V189.806C152.386 189.609 152.388 189.432 152.392 189.274C152.395 189.113 152.401 188.965 152.408 188.829C152.415 188.689 152.42 188.556 152.424 188.431C152.431 188.306 152.436 188.182 152.44 188.061H152.397C152.329 188.204 152.25 188.356 152.161 188.517C152.075 188.675 151.987 188.816 151.897 188.941L149.475 192.374H152.386Z" fill="black"/>
<path d="M184.376 190.198C184.91 190.198 185.374 190.29 185.768 190.472C186.161 190.651 186.466 190.913 186.681 191.256C186.899 191.6 187.008 192.017 187.008 192.508C187.008 193.045 186.892 193.509 186.659 193.899C186.426 194.286 186.092 194.585 185.655 194.796C185.218 195.004 184.695 195.107 184.086 195.107C183.678 195.107 183.299 195.072 182.948 195C182.597 194.928 182.301 194.821 182.062 194.678V193.829C182.323 193.987 182.64 194.112 183.012 194.205C183.385 194.298 183.746 194.345 184.097 194.345C184.495 194.345 184.842 194.282 185.139 194.157C185.44 194.028 185.673 193.834 185.837 193.577C186.006 193.315 186.09 192.988 186.09 192.594C186.09 192.071 185.929 191.668 185.606 191.385C185.288 191.099 184.783 190.956 184.092 190.956C183.87 190.956 183.626 190.973 183.361 191.009C183.096 191.045 182.878 191.084 182.706 191.127L182.255 190.832L182.556 187.147H186.46V187.964H183.318L183.12 190.333C183.256 190.304 183.431 190.275 183.646 190.247C183.861 190.214 184.104 190.198 184.376 190.198Z" fill="black"/>
<g filter="url(#filter20_d_1909_77424)">
<rect x="36" y="146" width="33" height="33" fill="#B0D8A4"/>
</g>
<g filter="url(#filter21_d_1909_77424)">
<rect x="69" y="146" width="33" height="33" fill="#B0D8A4"/>
</g>
<g filter="url(#filter22_d_1909_77424)">
<rect x="102" y="146" width="33" height="33" fill="#B0D8A4"/>
</g>
<g filter="url(#filter23_d_1909_77424)">
<rect x="135" y="146" width="33" height="33" fill="#B0D8A4"/>
</g>
<g filter="url(#filter24_d_1909_77424)">
<path d="M168 146H201V179H168V146Z" fill="#FEE191"/>
</g>
<defs>
<filter id="filter0_d_1909_77424" x="36" y="109" width="41" height="41" filterUnits="userSpaceOnUse" color-interpolation-filters="sRGB">
<feFlood flood-opacity="0" result="BackgroundImageFix"/>
<feColorMatrix in="SourceAlpha" type="matrix" values="0 0 0 0 0 0 0 0 0 0 0 0 0 0 0 0 0 0 127 0" result="hardAlpha"/>
<feOffset dx="4"/>
<feGaussianBlur stdDeviation="2"/>
<feComposite in2="hardAlpha" operator="out"/>
<feColorMatrix type="matrix" values="0 0 0 0 0 0 0 0 0 0 0 0 0 0 0 0 0 0 0.25 0"/>
<feBlend mode="normal" in2="BackgroundImageFix" result="effect1_dropShadow_1909_77424"/>
<feBlend mode="normal" in="SourceGraphic" in2="effect1_dropShadow_1909_77424" result="shape"/>
</filter>
<filter id="filter1_d_1909_77424" x="69" y="109" width="41" height="41" filterUnits="userSpaceOnUse" color-interpolation-filters="sRGB">
<feFlood flood-opacity="0" result="BackgroundImageFix"/>
<feColorMatrix in="SourceAlpha" type="matrix" values="0 0 0 0 0 0 0 0 0 0 0 0 0 0 0 0 0 0 127 0" result="hardAlpha"/>
<feOffset dx="4"/>
<feGaussianBlur stdDeviation="2"/>
<feComposite in2="hardAlpha" operator="out"/>
<feColorMatrix type="matrix" values="0 0 0 0 0 0 0 0 0 0 0 0 0 0 0 0 0 0 0.25 0"/>
<feBlend mode="normal" in2="BackgroundImageFix" result="effect1_dropShadow_1909_77424"/>
<feBlend mode="normal" in="SourceGraphic" in2="effect1_dropShadow_1909_77424" result="shape"/>
</filter>
<filter id="filter2_d_1909_77424" x="102" y="109" width="41" height="41" filterUnits="userSpaceOnUse" color-interpolation-filters="sRGB">
<feFlood flood-opacity="0" result="BackgroundImageFix"/>
<feColorMatrix in="SourceAlpha" type="matrix" values="0 0 0 0 0 0 0 0 0 0 0 0 0 0 0 0 0 0 127 0" result="hardAlpha"/>
<feOffset dx="4"/>
<feGaussianBlur stdDeviation="2"/>
<feComposite in2="hardAlpha" operator="out"/>
<feColorMatrix type="matrix" values="0 0 0 0 0 0 0 0 0 0 0 0 0 0 0 0 0 0 0.25 0"/>
<feBlend mode="normal" in2="BackgroundImageFix" result="effect1_dropShadow_1909_77424"/>
<feBlend mode="normal" in="SourceGraphic" in2="effect1_dropShadow_1909_77424" result="shape"/>
</filter>
<filter id="filter3_d_1909_77424" x="135" y="109" width="41" height="41" filterUnits="userSpaceOnUse" color-interpolation-filters="sRGB">
<feFlood flood-opacity="0" result="BackgroundImageFix"/>
<feColorMatrix in="SourceAlpha" type="matrix" values="0 0 0 0 0 0 0 0 0 0 0 0 0 0 0 0 0 0 127 0" result="hardAlpha"/>
<feOffset dx="4"/>
<feGaussianBlur stdDeviation="2"/>
<feComposite in2="hardAlpha" operator="out"/>
<feColorMatrix type="matrix" values="0 0 0 0 0 0 0 0 0 0 0 0 0 0 0 0 0 0 0.25 0"/>
<feBlend mode="normal" in2="BackgroundImageFix" result="effect1_dropShadow_1909_77424"/>
<feBlend mode="normal" in="SourceGraphic" in2="effect1_dropShadow_1909_77424" result="shape"/>
</filter>
<filter id="filter4_d_1909_77424" x="168" y="109" width="41" height="41" filterUnits="userSpaceOnUse" color-interpolation-filters="sRGB">
<feFlood flood-opacity="0" result="BackgroundImageFix"/>
<feColorMatrix in="SourceAlpha" type="matrix" values="0 0 0 0 0 0 0 0 0 0 0 0 0 0 0 0 0 0 127 0" result="hardAlpha"/>
<feOffset dx="4"/>
<feGaussianBlur stdDeviation="2"/>
<feComposite in2="hardAlpha" operator="out"/>
<feColorMatrix type="matrix" values="0 0 0 0 0 0 0 0 0 0 0 0 0 0 0 0 0 0 0.25 0"/>
<feBlend mode="normal" in2="BackgroundImageFix" result="effect1_dropShadow_1909_77424"/>
<feBlend mode="normal" in="SourceGraphic" in2="effect1_dropShadow_1909_77424" result="shape"/>
</filter>
<filter id="filter5_d_1909_77424" x="36" y="76" width="41" height="41" filterUnits="userSpaceOnUse" color-interpolation-filters="sRGB">
<feFlood flood-opacity="0" result="BackgroundImageFix"/>
<feColorMatrix in="SourceAlpha" type="matrix" values="0 0 0 0 0 0 0 0 0 0 0 0 0 0 0 0 0 0 127 0" result="hardAlpha"/>
<feOffset dx="4"/>
<feGaussianBlur stdDeviation="2"/>
<feComposite in2="hardAlpha" operator="out"/>
<feColorMatrix type="matrix" values="0 0 0 0 0 0 0 0 0 0 0 0 0 0 0 0 0 0 0.25 0"/>
<feBlend mode="normal" in2="BackgroundImageFix" result="effect1_dropShadow_1909_77424"/>
<feBlend mode="normal" in="SourceGraphic" in2="effect1_dropShadow_1909_77424" result="shape"/>
</filter>
<filter id="filter6_d_1909_77424" x="69" y="76" width="41" height="41" filterUnits="userSpaceOnUse" color-interpolation-filters="sRGB">
<feFlood flood-opacity="0" result="BackgroundImageFix"/>
<feColorMatrix in="SourceAlpha" type="matrix" values="0 0 0 0 0 0 0 0 0 0 0 0 0 0 0 0 0 0 127 0" result="hardAlpha"/>
<feOffset dx="4"/>
<feGaussianBlur stdDeviation="2"/>
<feComposite in2="hardAlpha" operator="out"/>
<feColorMatrix type="matrix" values="0 0 0 0 0 0 0 0 0 0 0 0 0 0 0 0 0 0 0.25 0"/>
<feBlend mode="normal" in2="BackgroundImageFix" result="effect1_dropShadow_1909_77424"/>
<feBlend mode="normal" in="SourceGraphic" in2="effect1_dropShadow_1909_77424" result="shape"/>
</filter>
<filter id="filter7_d_1909_77424" x="102" y="76" width="41" height="41" filterUnits="userSpaceOnUse" color-interpolation-filters="sRGB">
<feFlood flood-opacity="0" result="BackgroundImageFix"/>
<feColorMatrix in="SourceAlpha" type="matrix" values="0 0 0 0 0 0 0 0 0 0 0 0 0 0 0 0 0 0 127 0" result="hardAlpha"/>
<feOffset dx="4"/>
<feGaussianBlur stdDeviation="2"/>
<feComposite in2="hardAlpha" operator="out"/>
<feColorMatrix type="matrix" values="0 0 0 0 0 0 0 0 0 0 0 0 0 0 0 0 0 0 0.25 0"/>
<feBlend mode="normal" in2="BackgroundImageFix" result="effect1_dropShadow_1909_77424"/>
<feBlend mode="normal" in="SourceGraphic" in2="effect1_dropShadow_1909_77424" result="shape"/>
</filter>
<filter id="filter8_d_1909_77424" x="135" y="76" width="41" height="41" filterUnits="userSpaceOnUse" color-interpolation-filters="sRGB">
<feFlood flood-opacity="0" result="BackgroundImageFix"/>
<feColorMatrix in="SourceAlpha" type="matrix" values="0 0 0 0 0 0 0 0 0 0 0 0 0 0 0 0 0 0 127 0" result="hardAlpha"/>
<feOffset dx="4"/>
<feGaussianBlur stdDeviation="2"/>
<feComposite in2="hardAlpha" operator="out"/>
<feColorMatrix type="matrix" values="0 0 0 0 0 0 0 0 0 0 0 0 0 0 0 0 0 0 0.25 0"/>
<feBlend mode="normal" in2="BackgroundImageFix" result="effect1_dropShadow_1909_77424"/>
<feBlend mode="normal" in="SourceGraphic" in2="effect1_dropShadow_1909_77424" result="shape"/>
</filter>
<filter id="filter9_d_1909_77424" x="168" y="76" width="41" height="41" filterUnits="userSpaceOnUse" color-interpolation-filters="sRGB">
<feFlood flood-opacity="0" result="BackgroundImageFix"/>
<feColorMatrix in="SourceAlpha" type="matrix" values="0 0 0 0 0 0 0 0 0 0 0 0 0 0 0 0 0 0 127 0" result="hardAlpha"/>
<feOffset dx="4"/>
<feGaussianBlur stdDeviation="2"/>
<feComposite in2="hardAlpha" operator="out"/>
<feColorMatrix type="matrix" values="0 0 0 0 0 0 0 0 0 0 0 0 0 0 0 0 0 0 0.25 0"/>
<feBlend mode="normal" in2="BackgroundImageFix" result="effect1_dropShadow_1909_77424"/>
<feBlend mode="normal" in="SourceGraphic" in2="effect1_dropShadow_1909_77424" result="shape"/>
</filter>
<filter id="filter10_d_1909_77424" x="36" y="43" width="41" height="41" filterUnits="userSpaceOnUse" color-interpolation-filters="sRGB">
<feFlood flood-opacity="0" result="BackgroundImageFix"/>
<feColorMatrix in="SourceAlpha" type="matrix" values="0 0 0 0 0 0 0 0 0 0 0 0 0 0 0 0 0 0 127 0" result="hardAlpha"/>
<feOffset dx="4"/>
<feGaussianBlur stdDeviation="2"/>
<feComposite in2="hardAlpha" operator="out"/>
<feColorMatrix type="matrix" values="0 0 0 0 0 0 0 0 0 0 0 0 0 0 0 0 0 0 0.25 0"/>
<feBlend mode="normal" in2="BackgroundImageFix" result="effect1_dropShadow_1909_77424"/>
<feBlend mode="normal" in="SourceGraphic" in2="effect1_dropShadow_1909_77424" result="shape"/>
</filter>
<filter id="filter11_d_1909_77424" x="69" y="43" width="41" height="41" filterUnits="userSpaceOnUse" color-interpolation-filters="sRGB">
<feFlood flood-opacity="0" result="BackgroundImageFix"/>
<feColorMatrix in="SourceAlpha" type="matrix" values="0 0 0 0 0 0 0 0 0 0 0 0 0 0 0 0 0 0 127 0" result="hardAlpha"/>
<feOffset dx="4"/>
<feGaussianBlur stdDeviation="2"/>
<feComposite in2="hardAlpha" operator="out"/>
<feColorMatrix type="matrix" values="0 0 0 0 0 0 0 0 0 0 0 0 0 0 0 0 0 0 0.25 0"/>
<feBlend mode="normal" in2="BackgroundImageFix" result="effect1_dropShadow_1909_77424"/>
<feBlend mode="normal" in="SourceGraphic" in2="effect1_dropShadow_1909_77424" result="shape"/>
</filter>
<filter id="filter12_d_1909_77424" x="102" y="43" width="41" height="41" filterUnits="userSpaceOnUse" color-interpolation-filters="sRGB">
<feFlood flood-opacity="0" result="BackgroundImageFix"/>
<feColorMatrix in="SourceAlpha" type="matrix" values="0 0 0 0 0 0 0 0 0 0 0 0 0 0 0 0 0 0 127 0" result="hardAlpha"/>
<feOffset dx="4"/>
<feGaussianBlur stdDeviation="2"/>
<feComposite in2="hardAlpha" operator="out"/>
<feColorMatrix type="matrix" values="0 0 0 0 0 0 0 0 0 0 0 0 0 0 0 0 0 0 0.25 0"/>
<feBlend mode="normal" in2="BackgroundImageFix" result="effect1_dropShadow_1909_77424"/>
<feBlend mode="normal" in="SourceGraphic" in2="effect1_dropShadow_1909_77424" result="shape"/>
</filter>
<filter id="filter13_d_1909_77424" x="135" y="43" width="41" height="41" filterUnits="userSpaceOnUse" color-interpolation-filters="sRGB">
<feFlood flood-opacity="0" result="BackgroundImageFix"/>
<feColorMatrix in="SourceAlpha" type="matrix" values="0 0 0 0 0 0 0 0 0 0 0 0 0 0 0 0 0 0 127 0" result="hardAlpha"/>
<feOffset dx="4"/>
<feGaussianBlur stdDeviation="2"/>
<feComposite in2="hardAlpha" operator="out"/>
<feColorMatrix type="matrix" values="0 0 0 0 0 0 0 0 0 0 0 0 0 0 0 0 0 0 0.25 0"/>
<feBlend mode="normal" in2="BackgroundImageFix" result="effect1_dropShadow_1909_77424"/>
<feBlend mode="normal" in="SourceGraphic" in2="effect1_dropShadow_1909_77424" result="shape"/>
</filter>
<filter id="filter14_d_1909_77424" x="168" y="43" width="41" height="41" filterUnits="userSpaceOnUse" color-interpolation-filters="sRGB">
<feFlood flood-opacity="0" result="BackgroundImageFix"/>
<feColorMatrix in="SourceAlpha" type="matrix" values="0 0 0 0 0 0 0 0 0 0 0 0 0 0 0 0 0 0 127 0" result="hardAlpha"/>
<feOffset dx="4"/>
<feGaussianBlur stdDeviation="2"/>
<feComposite in2="hardAlpha" operator="out"/>
<feColorMatrix type="matrix" values="0 0 0 0 0 0 0 0 0 0 0 0 0 0 0 0 0 0 0.25 0"/>
<feBlend mode="normal" in2="BackgroundImageFix" result="effect1_dropShadow_1909_77424"/>
<feBlend mode="normal" in="SourceGraphic" in2="effect1_dropShadow_1909_77424" result="shape"/>
</filter>
<filter id="filter15_d_1909_77424" x="36" y="10" width="41" height="41" filterUnits="userSpaceOnUse" color-interpolation-filters="sRGB">
<feFlood flood-opacity="0" result="BackgroundImageFix"/>
<feColorMatrix in="SourceAlpha" type="matrix" values="0 0 0 0 0 0 0 0 0 0 0 0 0 0 0 0 0 0 127 0" result="hardAlpha"/>
<feOffset dx="4"/>
<feGaussianBlur stdDeviation="2"/>
<feComposite in2="hardAlpha" operator="out"/>
<feColorMatrix type="matrix" values="0 0 0 0 0 0 0 0 0 0 0 0 0 0 0 0 0 0 0.25 0"/>
<feBlend mode="normal" in2="BackgroundImageFix" result="effect1_dropShadow_1909_77424"/>
<feBlend mode="normal" in="SourceGraphic" in2="effect1_dropShadow_1909_77424" result="shape"/>
</filter>
<filter id="filter16_d_1909_77424" x="69" y="10" width="41" height="41" filterUnits="userSpaceOnUse" color-interpolation-filters="sRGB">
<feFlood flood-opacity="0" result="BackgroundImageFix"/>
<feColorMatrix in="SourceAlpha" type="matrix" values="0 0 0 0 0 0 0 0 0 0 0 0 0 0 0 0 0 0 127 0" result="hardAlpha"/>
<feOffset dx="4"/>
<feGaussianBlur stdDeviation="2"/>
<feComposite in2="hardAlpha" operator="out"/>
<feColorMatrix type="matrix" values="0 0 0 0 0 0 0 0 0 0 0 0 0 0 0 0 0 0 0.25 0"/>
<feBlend mode="normal" in2="BackgroundImageFix" result="effect1_dropShadow_1909_77424"/>
<feBlend mode="normal" in="SourceGraphic" in2="effect1_dropShadow_1909_77424" result="shape"/>
</filter>
<filter id="filter17_d_1909_77424" x="102" y="10" width="41" height="41" filterUnits="userSpaceOnUse" color-interpolation-filters="sRGB">
<feFlood flood-opacity="0" result="BackgroundImageFix"/>
<feColorMatrix in="SourceAlpha" type="matrix" values="0 0 0 0 0 0 0 0 0 0 0 0 0 0 0 0 0 0 127 0" result="hardAlpha"/>
<feOffset dx="4"/>
<feGaussianBlur stdDeviation="2"/>
<feComposite in2="hardAlpha" operator="out"/>
<feColorMatrix type="matrix" values="0 0 0 0 0 0 0 0 0 0 0 0 0 0 0 0 0 0 0.25 0"/>
<feBlend mode="normal" in2="BackgroundImageFix" result="effect1_dropShadow_1909_77424"/>
<feBlend mode="normal" in="SourceGraphic" in2="effect1_dropShadow_1909_77424" result="shape"/>
</filter>
<filter id="filter18_d_1909_77424" x="135" y="10" width="41" height="41" filterUnits="userSpaceOnUse" color-interpolation-filters="sRGB">
<feFlood flood-opacity="0" result="BackgroundImageFix"/>
<feColorMatrix in="SourceAlpha" type="matrix" values="0 0 0 0 0 0 0 0 0 0 0 0 0 0 0 0 0 0 127 0" result="hardAlpha"/>
<feOffset dx="4"/>
<feGaussianBlur stdDeviation="2"/>
<feComposite in2="hardAlpha" operator="out"/>
<feColorMatrix type="matrix" values="0 0 0 0 0 0 0 0 0 0 0 0 0 0 0 0 0 0 0.25 0"/>
<feBlend mode="normal" in2="BackgroundImageFix" result="effect1_dropShadow_1909_77424"/>
<feBlend mode="normal" in="SourceGraphic" in2="effect1_dropShadow_1909_77424" result="shape"/>
</filter>
<filter id="filter19_d_1909_77424" x="168" y="10" width="41" height="41" filterUnits="userSpaceOnUse" color-interpolation-filters="sRGB">
<feFlood flood-opacity="0" result="BackgroundImageFix"/>
<feColorMatrix in="SourceAlpha" type="matrix" values="0 0 0 0 0 0 0 0 0 0 0 0 0 0 0 0 0 0 127 0" result="hardAlpha"/>
<feOffset dx="4"/>
<feGaussianBlur stdDeviation="2"/>
<feComposite in2="hardAlpha" operator="out"/>
<feColorMatrix type="matrix" values="0 0 0 0 0 0 0 0 0 0 0 0 0 0 0 0 0 0 0.25 0"/>
<feBlend mode="normal" in2="BackgroundImageFix" result="effect1_dropShadow_1909_77424"/>
<feBlend mode="normal" in="SourceGraphic" in2="effect1_dropShadow_1909_77424" result="shape"/>
</filter>
<filter id="filter20_d_1909_77424" x="36" y="142" width="41" height="41" filterUnits="userSpaceOnUse" color-interpolation-filters="sRGB">
<feFlood flood-opacity="0" result="BackgroundImageFix"/>
<feColorMatrix in="SourceAlpha" type="matrix" values="0 0 0 0 0 0 0 0 0 0 0 0 0 0 0 0 0 0 127 0" result="hardAlpha"/>
<feOffset dx="4"/>
<feGaussianBlur stdDeviation="2"/>
<feComposite in2="hardAlpha" operator="out"/>
<feColorMatrix type="matrix" values="0 0 0 0 0 0 0 0 0 0 0 0 0 0 0 0 0 0 0.25 0"/>
<feBlend mode="normal" in2="BackgroundImageFix" result="effect1_dropShadow_1909_77424"/>
<feBlend mode="normal" in="SourceGraphic" in2="effect1_dropShadow_1909_77424" result="shape"/>
</filter>
<filter id="filter21_d_1909_77424" x="69" y="142" width="41" height="41" filterUnits="userSpaceOnUse" color-interpolation-filters="sRGB">
<feFlood flood-opacity="0" result="BackgroundImageFix"/>
<feColorMatrix in="SourceAlpha" type="matrix" values="0 0 0 0 0 0 0 0 0 0 0 0 0 0 0 0 0 0 127 0" result="hardAlpha"/>
<feOffset dx="4"/>
<feGaussianBlur stdDeviation="2"/>
<feComposite in2="hardAlpha" operator="out"/>
<feColorMatrix type="matrix" values="0 0 0 0 0 0 0 0 0 0 0 0 0 0 0 0 0 0 0.25 0"/>
<feBlend mode="normal" in2="BackgroundImageFix" result="effect1_dropShadow_1909_77424"/>
<feBlend mode="normal" in="SourceGraphic" in2="effect1_dropShadow_1909_77424" result="shape"/>
</filter>
<filter id="filter22_d_1909_77424" x="102" y="142" width="41" height="41" filterUnits="userSpaceOnUse" color-interpolation-filters="sRGB">
<feFlood flood-opacity="0" result="BackgroundImageFix"/>
<feColorMatrix in="SourceAlpha" type="matrix" values="0 0 0 0 0 0 0 0 0 0 0 0 0 0 0 0 0 0 127 0" result="hardAlpha"/>
<feOffset dx="4"/>
<feGaussianBlur stdDeviation="2"/>
<feComposite in2="hardAlpha" operator="out"/>
<feColorMatrix type="matrix" values="0 0 0 0 0 0 0 0 0 0 0 0 0 0 0 0 0 0 0.25 0"/>
<feBlend mode="normal" in2="BackgroundImageFix" result="effect1_dropShadow_1909_77424"/>
<feBlend mode="normal" in="SourceGraphic" in2="effect1_dropShadow_1909_77424" result="shape"/>
</filter>
<filter id="filter23_d_1909_77424" x="135" y="142" width="41" height="41" filterUnits="userSpaceOnUse" color-interpolation-filters="sRGB">
<feFlood flood-opacity="0" result="BackgroundImageFix"/>
<feColorMatrix in="SourceAlpha" type="matrix" values="0 0 0 0 0 0 0 0 0 0 0 0 0 0 0 0 0 0 127 0" result="hardAlpha"/>
<feOffset dx="4"/>
<feGaussianBlur stdDeviation="2"/>
<feComposite in2="hardAlpha" operator="out"/>
<feColorMatrix type="matrix" values="0 0 0 0 0 0 0 0 0 0 0 0 0 0 0 0 0 0 0.25 0"/>
<feBlend mode="normal" in2="BackgroundImageFix" result="effect1_dropShadow_1909_77424"/>
<feBlend mode="normal" in="SourceGraphic" in2="effect1_dropShadow_1909_77424" result="shape"/>
</filter>
<filter id="filter24_d_1909_77424" x="168" y="142" width="41" height="41" filterUnits="userSpaceOnUse" color-interpolation-filters="sRGB">
<feFlood flood-opacity="0" result="BackgroundImageFix"/>
<feColorMatrix in="SourceAlpha" type="matrix" values="0 0 0 0 0 0 0 0 0 0 0 0 0 0 0 0 0 0 127 0" result="hardAlpha"/>
<feOffset dx="4"/>
<feGaussianBlur stdDeviation="2"/>
<feComposite in2="hardAlpha" operator="out"/>
<feColorMatrix type="matrix" values="0 0 0 0 0 0 0 0 0 0 0 0 0 0 0 0 0 0 0.25 0"/>
<feBlend mode="normal" in2="BackgroundImageFix" result="effect1_dropShadow_1909_77424"/>
<feBlend mode="normal" in="SourceGraphic" in2="effect1_dropShadow_1909_77424" result="shape"/>
</filter>
</defs>
</svg>
