<svg width="20" height="20" viewBox="0 0 20 20" fill="none" xmlns="http://www.w3.org/2000/svg">
<path d="M4.70703 0H5.87891V2.93945H4.70703V0Z" fill="#4C5D81"/>
<path d="M7.06055 0H8.23242V2.93945H7.06055V0Z" fill="#4C5D81"/>
<path d="M9.41406 0H10.5859V2.93945H9.41406V0Z" fill="#4C5D81"/>
<path d="M10 0H10.5859V2.93945H10V0Z" fill="#3D4467"/>
<path d="M11.7676 0H12.9395V2.93945H11.7676V0Z" fill="#3D4467"/>
<path d="M14.1211 0H15.293V2.93945H14.1211V0Z" fill="#3D4467"/>
<path d="M4.70703 17.0605H5.87891V20H4.70703V17.0605Z" fill="#4C5D81"/>
<path d="M7.06055 17.0605H8.23242V20H7.06055V17.0605Z" fill="#4C5D81"/>
<path d="M9.41406 17.0605H10.5859V20H9.41406V17.0605Z" fill="#4C5D81"/>
<path d="M10 17.0605H10.5859V20H10V17.0605Z" fill="#3D4467"/>
<path d="M11.7676 17.0605H12.9395V20H11.7676V17.0605Z" fill="#3D4467"/>
<path d="M14.1211 17.0605H15.293V20H14.1211V17.0605Z" fill="#3D4467"/>
<path d="M17.0605 4.70703H20V5.87891H17.0605V4.70703Z" fill="#3D4467"/>
<path d="M17.0605 7.06055H20V8.23242H17.0605V7.06055Z" fill="#3D4467"/>
<path d="M17.0605 9.41406H20V10.5859H17.0605V9.41406Z" fill="#3D4467"/>
<path d="M17.0605 11.7676H20V12.9395H17.0605V11.7676Z" fill="#3D4467"/>
<path d="M17.0605 14.1211H20V15.293H17.0605V14.1211Z" fill="#3D4467"/>
<path d="M0 4.70703H2.93945V5.87891H0V4.70703Z" fill="#4C5D81"/>
<path d="M0 7.06055H2.93945V8.23242H0V7.06055Z" fill="#4C5D81"/>
<path d="M0 9.41406H2.93945V10.5859H0V9.41406Z" fill="#4C5D81"/>
<path d="M0 11.7676H2.93945V12.9395H0V11.7676Z" fill="#4C5D81"/>
<path d="M0 14.1211H2.93945V15.293H0V14.1211Z" fill="#4C5D81"/>
<path d="M17.5621 5.63242L17.0605 6.18828L17.5621 6.8043V10.6742L17.0605 11.2215L17.5621 11.848V14.4551L17.0605 15.0012L17.5621 15.627V16.3016L16.302 17.5617H3.69766L2.4375 16.3016V14.3668L2.93945 13.7809L2.4375 13.1949V9.325L2.93945 8.73906L2.4375 8.15312V5.54414L2.93945 4.90273L2.4375 4.37227V3.69766L3.69766 2.4375H16.302L17.5621 3.69766V5.63242Z" fill="#00DE77"/>
<path d="M17.5621 5.63242L17.0605 6.18828L17.5621 6.8043V10.6742L17.0605 11.2215L17.5621 11.848V14.4551L17.0605 15.0012L17.5621 15.627V16.3016L16.302 17.5617H10V2.4375H16.302L17.5621 3.69766V5.63242Z" fill="#00AB8E"/>
<path d="M17.5625 5.63271V6.80459H10.3875L10 6.41709L9.12695 5.54443H2.4375V4.37256H9.6125L10 4.76006L10.873 5.63271H17.5625Z" fill="#00AB8E"/>
<path d="M17.5625 14.4555V15.6273H10.3875L10 15.2398L9.12695 14.3672H2.4375V13.1953H9.6125L10 13.5828L10.873 14.4555H17.5625Z" fill="#00AB8E"/>
<path d="M17.5625 10.6744V11.8463H11.0176L10 10.8287L8.49687 9.3252H2.4375V8.15332H8.98242L10 9.1709L11.5031 10.6744H17.5625Z" fill="#00AB8E"/>
<path d="M17.5625 5.63291V6.80478H10.3875L10 6.41728V4.76025L10.873 5.63291H17.5625Z" fill="#00767B"/>
<path d="M11.5031 10.6749H17.5625V11.8468H11.0176L10 10.8292V9.17139L11.5031 10.6749Z" fill="#00767B"/>
<path d="M10.873 14.4552H17.5625V15.6271H10.3875L10 15.2396V13.5825L10.873 14.4552Z" fill="#00767B"/>
<path d="M13.7811 7.47927C14.4772 7.47927 15.0415 6.91498 15.0415 6.21888C15.0415 5.52279 14.4772 4.9585 13.7811 4.9585C13.085 4.9585 12.5208 5.52279 12.5208 6.21888C12.5208 6.91498 13.085 7.47927 13.7811 7.47927Z" fill="#FBB31A"/>
<path d="M13.7811 12.5208C14.4772 12.5208 15.0415 11.9565 15.0415 11.2604C15.0415 10.5643 14.4772 10 13.7811 10C13.085 10 12.5208 10.5643 12.5208 11.2604C12.5208 11.9565 13.085 12.5208 13.7811 12.5208Z" fill="#FBB31A"/>
<path d="M6.21888 10.0003C6.91498 10.0003 7.47927 9.43598 7.47927 8.73988C7.47927 8.04379 6.91498 7.47949 6.21888 7.47949C5.52279 7.47949 4.9585 8.04379 4.9585 8.73988C4.9585 9.43598 5.52279 10.0003 6.21888 10.0003Z" fill="#FEDB16"/>
<path d="M6.21888 15.0413C6.91498 15.0413 7.47927 14.477 7.47927 13.7809C7.47927 13.0848 6.91498 12.5205 6.21888 12.5205C5.52279 12.5205 4.9585 13.0848 4.9585 13.7809C4.9585 14.477 5.52279 15.0413 6.21888 15.0413Z" fill="#FEDB16"/>
</svg>
