<svg width="20" height="20" viewBox="0 0 20 20" fill="none" xmlns="http://www.w3.org/2000/svg">
<g clip-path="url(#clip0_1038_42395)">
<path d="M6.0174 17.6634C6.0174 18.3067 5.54636 19.2325 5.21097 19.81C5.06387 20.0633 4.69904 20.0633 4.55194 19.81C4.2164 19.2325 3.74536 18.3067 3.74536 17.6634C3.74536 15.2917 3.74536 4.17999 3.74536 4.17999H6.01755C6.0174 4.17999 6.0174 15.2834 6.0174 17.6634Z" fill="#CAE5ED"/>
<path d="M5.11194 4.17999V17.6634C5.11194 18.3067 4.82858 19.2325 4.62686 19.81C4.61847 19.8338 4.60901 19.8553 4.59863 19.8747C4.76556 20.061 5.07761 20.0395 5.21082 19.81C5.54636 19.2325 6.0174 18.3067 6.0174 17.6634C6.0174 15.2834 6.0174 4.17999 6.0174 4.17999H5.11194Z" fill="#9BB8D1"/>
<path d="M3.74536 5.08606H6.0174C6.0174 4.51706 6.0174 4.17999 6.0174 4.17999H3.74536V5.08606Z" fill="#9BB8D1"/>
<path d="M3.74536 10.1421L6.0174 11.4539C6.0174 11.1531 6.0174 10.8517 6.0174 10.5518L3.74536 9.23996V10.1421Z" fill="#9BB8D1"/>
<path d="M3.74536 12.1034L6.0174 13.4154C6.0174 13.1198 6.0174 12.8185 6.0174 12.5133L3.74536 11.2013V12.1034Z" fill="#9BB8D1"/>
<path d="M6.0174 14.4746L3.74536 13.1627V14.0648L6.0174 15.3767C6.0174 15.0902 6.0174 14.7882 6.0174 14.4746Z" fill="#9BB8D1"/>
<path d="M3.74536 8.18069L6.0174 9.49249C6.0174 9.1864 6.0174 8.88489 6.0174 8.59039L3.74536 7.27859V8.18069Z" fill="#9BB8D1"/>
<path d="M6.0174 16.436L3.74536 15.1242V16.0263L6.0174 17.3381C6.0174 17.0876 6.0174 16.783 6.0174 16.436Z" fill="#9BB8D1"/>
<path d="M6.89077 9.35043C6.82455 9.35043 6.75726 9.33364 6.69577 9.29809L2.6766 6.97769C2.48968 6.86965 2.42575 6.63085 2.53363 6.44409C2.6415 6.25717 2.88046 6.19323 3.06723 6.30111L7.08639 8.62152C7.27331 8.7294 7.33724 8.96835 7.22936 9.15512C7.15704 9.28039 7.02581 9.35043 6.89077 9.35043ZM7.22936 11.1165C7.3374 10.9297 7.27331 10.6908 7.08654 10.5829L3.06723 8.26248C2.88046 8.1546 2.6415 8.21853 2.53363 8.40545C2.42575 8.59222 2.48968 8.83117 2.6766 8.93905L6.69577 11.2595C6.75726 11.295 6.82455 11.3119 6.89077 11.3119C7.02581 11.3119 7.15704 11.2418 7.22936 11.1165ZM7.22936 13.078C7.3374 12.8911 7.27331 12.6523 7.08654 12.5444L3.06723 10.2238C2.88046 10.116 2.6415 10.18 2.53363 10.3668C2.42575 10.5536 2.48968 10.7925 2.6766 10.9004L6.69577 13.2208C6.75726 13.2564 6.82455 13.2733 6.89077 13.2733C7.02581 13.2733 7.15704 13.2033 7.22936 13.078ZM7.22936 15.0394C7.3374 14.8526 7.27331 14.6136 7.08654 14.5058L3.06723 12.1852C2.88046 12.0773 2.6415 12.1414 2.53363 12.3282C2.42575 12.5151 2.48968 12.7539 2.6766 12.8618L6.69577 15.1823C6.75726 15.2177 6.82455 15.2347 6.89077 15.2347C7.02581 15.2348 7.15704 15.1646 7.22936 15.0394ZM7.22936 17.0007C7.3374 16.814 7.27331 16.575 7.08654 16.4671L3.06723 14.1466C2.88046 14.0388 2.6415 14.1028 2.53363 14.2895C2.42575 14.4765 2.48968 14.7153 2.6766 14.8231L6.69577 17.1437C6.75726 17.1793 6.82455 17.1962 6.89077 17.1962C7.02581 17.1962 7.15704 17.1262 7.22936 17.0007Z" fill="#CAE5ED"/>
<path d="M6.66901 1.30066H5.65216C5.4744 1.30066 5.33035 1.4447 5.33035 1.62247V2.33856C5.33035 2.42752 5.25818 2.49954 5.16937 2.49954H4.59366C4.5047 2.49954 4.43268 2.42752 4.43268 2.33856V1.62247C4.43268 1.4447 4.28848 1.30066 4.11072 1.30066H3.09402C2.18338 1.30066 1.44531 2.03873 1.44531 2.94937V3.57956C1.44531 3.91129 1.71417 4.17999 2.04575 4.17999H7.71729C8.04886 4.17999 8.31757 3.91129 8.31757 3.57956V2.94937C8.31757 2.03873 7.5795 1.30066 6.66901 1.30066Z" fill="#7D8EB0"/>
<path d="M3.52728 1.62247V2.33856C3.52728 2.42752 3.5993 2.49954 3.68826 2.49954H4.26382C4.35278 2.49954 4.4248 2.42752 4.4248 2.33856V1.62247C4.4248 1.60538 4.42618 1.58859 4.42877 1.57211C4.40466 1.4183 4.27145 1.30066 4.11078 1.30066H3.20532C3.38309 1.30066 3.52728 1.4447 3.52728 1.62247Z" fill="#516789"/>
<path d="M6.66888 1.30066H5.76343C6.67392 1.30066 7.41214 2.03873 7.41214 2.94937V3.57971C7.41214 3.91129 7.14328 4.17999 6.81171 4.17999H7.71716C8.04874 4.17999 8.31744 3.91129 8.31744 3.57971V2.94937C8.31744 2.03873 7.57938 1.30066 6.66888 1.30066Z" fill="#516789"/>
<path d="M10.2698 0.271301V3.36609C10.2698 3.51593 10.3912 3.63739 10.5411 3.63739H18.3183C18.4682 3.63739 18.5896 3.51593 18.5896 3.36609V0.271301C18.5896 0.12146 18.4682 0 18.3183 0H10.5411C10.3914 0 10.2698 0.12146 10.2698 0.271301Z" fill="#AABFD5"/>
<path d="M18.3182 0H16.0728C16.1391 0 16.1931 0.12146 16.1931 0.271301V3.36609C16.1931 3.51593 16.1391 3.63739 16.0728 3.63739H18.3182C18.4681 3.63739 18.5895 3.51593 18.5895 3.36609V0.271301C18.5895 0.12146 18.4681 0 18.3182 0V0Z" fill="#516789"/>
<path d="M12.6663 0.271301V3.36609C12.6663 3.51593 12.7201 3.63739 12.7867 3.63739H16.0726C16.1392 3.63739 16.193 3.51593 16.193 3.36609V0.271301C16.193 0.12146 16.1392 0 16.0726 0H12.7867C12.7201 0 12.6663 0.12146 12.6663 0.271301Z" fill="#7D8EB0"/>
<path d="M12.0559 3.63739V5.92957C12.0559 6.26404 12.264 6.56326 12.5776 6.67969L12.7583 6.74667C12.9952 6.83456 13.1526 7.0607 13.1526 7.31354V19.2189C13.1526 19.6503 13.5021 20 13.9335 20H14.9258C15.3571 20 15.7069 19.6503 15.7069 19.2189V7.31354C15.7069 7.0607 15.8642 6.83456 16.1012 6.74667L16.2818 6.67969C16.5954 6.56326 16.8035 6.26404 16.8035 5.92957V3.63739H12.0559Z" fill="#CAE5ED"/>
<path d="M13.1526 11.4592L15.7069 12.934V12.0319L13.1526 10.5571V11.4592Z" fill="#9BB8D1"/>
<path d="M13.1526 13.4205L15.7069 14.8953V13.9932L13.1526 12.5184V13.4205Z" fill="#9BB8D1"/>
<path d="M13.1526 9.49783L15.7069 10.9726V10.0705L13.1526 8.59573V9.49783Z" fill="#9BB8D1"/>
<path d="M15.7069 17.9161L13.1526 16.4414V17.3435L15.7069 18.8182V17.9161Z" fill="#9BB8D1"/>
<path d="M15.7069 15.9547L13.1526 14.48V15.3821L15.7069 16.8568V15.9547Z" fill="#9BB8D1"/>
<path d="M15.831 3.63739V5.92957C15.831 6.26404 15.6656 6.56326 15.4161 6.67969L15.2725 6.74667C15.084 6.83456 14.9589 7.0607 14.9589 7.31354V19.2189C14.9589 19.6503 14.6809 20 14.3379 20H14.9258C15.3572 20 15.7069 19.6503 15.7069 19.2189V7.31354C15.7069 7.0607 15.8641 6.83456 16.101 6.74667L16.2817 6.67969C16.5954 6.56326 16.8036 6.26404 16.8036 5.92957V3.63739H15.831Z" fill="#9BB8D1"/>
<path d="M12.0559 3.63739H16.8035V4.60327H12.0559V3.63739Z" fill="#9BB8D1"/>
<path d="M16.4389 10.7492C16.3726 10.7492 16.3054 10.7323 16.2439 10.6967L12.2248 8.37618C12.0378 8.2683 11.9738 8.0295 12.0818 7.84258C12.1895 7.65581 12.4285 7.59173 12.6154 7.69961L16.6346 10.0202C16.8213 10.128 16.8854 10.367 16.7775 10.5538C16.7052 10.679 16.5738 10.7492 16.4389 10.7492ZM16.7775 12.5151C16.8854 12.3284 16.8215 12.0894 16.6346 11.9815L12.6154 9.66112C12.4285 9.55325 12.1895 9.61733 12.0818 9.8041C11.9738 9.99087 12.0378 10.2298 12.2248 10.3377L16.2439 12.6581C16.3054 12.6937 16.3726 12.7106 16.4388 12.7106C16.5738 12.7106 16.7052 12.6406 16.7775 12.5151ZM16.7775 14.4766C16.8854 14.2897 16.8215 14.0509 16.6346 13.943L12.6154 11.6225C12.4285 11.5146 12.1895 11.5787 12.0818 11.7655C11.9738 11.9524 12.0378 12.1912 12.2248 12.2991L16.2439 14.6196C16.3054 14.655 16.3726 14.672 16.4388 14.672C16.5738 14.672 16.7052 14.6019 16.7775 14.4766ZM16.7775 16.438C16.8854 16.2512 16.8215 16.0123 16.6346 15.9044L12.6154 13.5839C12.4285 13.476 12.1895 13.5401 12.0818 13.7268C11.9738 13.9137 12.0378 14.1525 12.2248 14.2604L16.2439 16.581C16.3054 16.6165 16.3726 16.6335 16.4388 16.6335C16.5738 16.6333 16.7052 16.5633 16.7775 16.438ZM16.7775 18.3994C16.8854 18.2126 16.8215 17.9737 16.6346 17.8658L12.6154 15.5454C12.4285 15.4373 12.1895 15.5014 12.0818 15.6882C11.9738 15.8751 12.0378 16.1139 12.2248 16.2218L16.2439 18.5424C16.3054 18.5779 16.3726 18.5948 16.4388 18.5948C16.5738 18.5948 16.7052 18.5247 16.7775 18.3994Z" fill="#CAE5ED"/>
</g>
<defs>
<clipPath id="clip0_1038_42395">
<rect width="20" height="20" fill="white"/>
</clipPath>
</defs>
</svg>
