<svg width="20" height="20" viewBox="0 0 20 20" fill="none" xmlns="http://www.w3.org/2000/svg">
<g clip-path="url(#clip0_1022_45194)">
<path d="M9.41406 12.168H10.5859V16.7969H9.41406V12.168Z" fill="#37494A"/>
<path d="M10 12.168H10.5859V16.7969H10V12.168Z" fill="#27393C"/>
<path d="M5.52849 16.7188V15.3906H3.09204V17.2266H1.92017V14.2188H5.52849V12.168H6.70036V16.7188H5.52849Z" fill="#37494A"/>
<path d="M18.0795 17.2266H16.9077V15.3906H14.4712V16.7188H13.2993V12.168H14.4712V14.2188H18.0795V17.2266Z" fill="#27393C"/>
<path d="M11.7941 18.2059C11.7941 17.2168 10.989 16.4121 9.99995 16.4121C9.01089 16.4121 8.20581 17.2168 8.20581 18.2059C8.20581 19.1953 9.01089 20 9.99995 20C10.989 20 11.7941 19.1953 11.7941 18.2059Z" fill="#60E3F4"/>
<path d="M2.50618 20.0002C3.49699 20.0002 4.30021 19.1969 4.30021 18.2061C4.30021 17.2153 3.49699 16.4121 2.50618 16.4121C1.51537 16.4121 0.712158 17.2153 0.712158 18.2061C0.712158 19.1969 1.51537 20.0002 2.50618 20.0002Z" fill="#60E3F4"/>
<path d="M17.4938 20.0002C16.5046 20.0002 15.6997 19.1954 15.6997 18.2062C15.6997 17.2169 16.5046 16.4121 17.4938 16.4121C18.483 16.4121 19.2878 17.2169 19.2878 18.2062C19.2878 19.1954 18.483 20.0002 17.4938 20.0002Z" fill="#28C5EA"/>
<path d="M10 16.4121V20C10.9891 20 11.7941 19.1953 11.7941 18.2059C11.7941 17.2168 10.9891 16.4121 10 16.4121Z" fill="#28C5EA"/>
<path d="M18.2035 10.3356L9.99981 14.8014L1.79614 10.3356L9.99981 5.87012L18.2035 10.3356Z" fill="#FBE100"/>
<path d="M18.2037 10.3356L10 14.8014V5.87012L18.2037 10.3356Z" fill="#FDBF01"/>
<path d="M18.2035 7.40102L9.99981 11.8665L1.79614 7.40102L9.99981 2.93555L18.2035 7.40102Z" fill="#FFA001"/>
<path d="M18.2037 7.40102L10 11.8665V2.93555L18.2037 7.40102Z" fill="#F87F02"/>
<path d="M18.2035 4.46578L9.99981 8.93125L1.79614 4.46578L9.99981 0L18.2035 4.46578Z" fill="#FBE100"/>
<path d="M18.2037 4.46578L10 8.93125V0L18.2037 4.46578Z" fill="#FDBF01"/>
</g>
<defs>
<clipPath id="clip0_1022_45194">
<rect width="20" height="20" fill="white"/>
</clipPath>
</defs>
</svg>
