<svg width="20" height="20" viewBox="0 0 20 20" fill="none" xmlns="http://www.w3.org/2000/svg">
<g filter="url(#filter0_d_1022_45174)">
<path d="M8.70314 10.2342L0.425412 13.9265C-0.141804 14.1795 -0.141804 14.9847 0.425412 15.2377L8.7031 18.9301C9.52847 19.2982 10.4715 19.2982 11.2969 18.9301L19.5746 15.2377C20.1418 14.9847 20.1418 14.1795 19.5746 13.9265L11.2969 10.2342C10.4715 9.86596 9.52851 9.86596 8.70314 10.2342Z" fill="url(#paint0_linear_1022_45174)"/>
<path d="M13.0996 18.1261L11.297 18.9305C10.4716 19.2984 9.52831 19.2984 8.70286 18.9305L0.425647 15.2379C-0.141882 14.985 -0.141882 14.1795 0.425647 13.9266L2.05318 13.2007C2.05314 13.2007 13.0602 18.1095 13.0996 18.1261Z" fill="url(#paint1_linear_1022_45174)"/>
<path d="M6.90039 18.1261L8.70302 18.9305C9.52847 19.2984 10.4717 19.2984 11.2972 18.9305L19.5744 15.2379C20.1419 14.985 20.1419 14.1795 19.5744 13.9266L17.9469 13.2007C17.9469 13.2007 6.93988 18.1095 6.90039 18.1261Z" fill="url(#paint2_linear_1022_45174)"/>
<path d="M8.70314 7.17895L0.425412 10.8713C-0.141804 11.1243 -0.141804 11.9295 0.425412 12.1825L8.7031 15.8748C9.52847 16.243 10.4715 16.243 11.2969 15.8748L19.5746 12.1825C20.1418 11.9295 20.1418 11.1243 19.5746 10.8713L11.2969 7.17895C10.4715 6.81079 9.52851 6.81079 8.70314 7.17895Z" fill="url(#paint3_linear_1022_45174)"/>
<path d="M8.70326 10.2342L2.38013 13.0547L8.70326 15.8752C9.52864 16.2433 10.4716 16.2433 11.297 15.8752L17.6201 13.0547L11.297 10.2342C10.4716 9.86596 9.52864 9.86596 8.70326 10.2342Z" fill="url(#paint4_linear_1022_45174)"/>
<path d="M13.0996 15.0705L11.297 15.8748C10.4716 16.2428 9.52831 16.2428 8.70286 15.8748L0.425647 12.1822C-0.141882 11.9293 -0.141882 11.1239 0.425647 10.871L2.05318 10.145C2.05314 10.1451 13.0602 15.0538 13.0996 15.0705Z" fill="url(#paint5_linear_1022_45174)"/>
<path d="M6.90039 15.0705L8.70302 15.8748C9.52847 16.2428 10.4717 16.2428 11.2972 15.8748L19.5744 12.1822C20.1419 11.9293 20.1419 11.1239 19.5744 10.871L17.9469 10.145C17.9469 10.1451 6.93988 15.0538 6.90039 15.0705Z" fill="url(#paint6_linear_1022_45174)"/>
<path d="M8.70314 4.12478L0.425412 7.81713C-0.141804 8.07015 -0.141804 8.87529 0.425412 9.12831L8.7031 12.8207C9.52847 13.1888 10.4715 13.1888 11.2969 12.8207L19.5746 9.12831C20.1418 8.87529 20.1418 8.07015 19.5746 7.81713L11.2969 4.12478C10.4715 3.75658 9.52851 3.75658 8.70314 4.12478Z" fill="url(#paint7_linear_1022_45174)"/>
<path d="M8.70326 7.17993L2.38013 10.0004L8.70326 12.8209C9.52864 13.1891 10.4716 13.1891 11.297 12.8209L17.6201 10.0004L11.297 7.17993C10.4716 6.81177 9.52864 6.81177 8.70326 7.17993Z" fill="url(#paint8_linear_1022_45174)"/>
<path d="M13.0996 12.0168L11.297 12.8211C10.4716 13.189 9.52831 13.189 8.70286 12.8211L0.425647 9.12852C-0.141882 8.87562 -0.141882 8.07017 0.425647 7.81727L2.05318 7.09131C2.05314 7.09135 13.0602 12.0001 13.0996 12.0168Z" fill="url(#paint9_linear_1022_45174)"/>
<path d="M6.90039 12.0168L8.70302 12.8211C9.52847 13.189 10.4717 13.189 11.2972 12.8211L19.5744 9.12852C20.1419 8.87562 20.1419 8.07017 19.5744 7.81727L17.9469 7.09131C17.9469 7.09135 6.93988 12.0001 6.90039 12.0168Z" fill="url(#paint10_linear_1022_45174)"/>
<path d="M8.70314 1.06957L0.425412 4.76192C-0.141804 5.01494 -0.141804 5.82008 0.425412 6.0731L8.7031 9.76544C9.52847 10.1336 10.4715 10.1336 11.2969 9.76544L19.5746 6.0731C20.1418 5.82008 20.1418 5.01494 19.5746 4.76192L11.2969 1.06957C10.4715 0.701418 9.52851 0.701418 8.70314 1.06957Z" fill="url(#paint11_linear_1022_45174)"/>
<path d="M8.70326 4.12478L2.38013 6.94529L8.70326 9.7658C9.52864 10.134 10.4716 10.134 11.297 9.7658L17.6202 6.94529L11.297 4.12478C10.4716 3.75658 9.52864 3.75658 8.70326 4.12478Z" fill="url(#paint12_linear_1022_45174)"/>
<path d="M13.0996 8.96111L11.297 9.76542C10.4716 10.1334 9.52831 10.1334 8.70286 9.76542L0.425647 6.07287C-0.141882 5.81996 -0.141882 5.01451 0.425647 4.76161L2.05318 4.03564C2.05314 4.03568 13.0602 8.94444 13.0996 8.96111Z" fill="url(#paint13_linear_1022_45174)"/>
<path d="M6.90039 8.96111L8.70302 9.76542C9.52847 10.1334 10.4717 10.1334 11.2972 9.76542L19.5744 6.07287C20.1419 5.81996 20.1419 5.01451 19.5744 4.76161L17.9469 4.03564C17.9469 4.03568 6.93988 8.94444 6.90039 8.96111Z" fill="url(#paint14_linear_1022_45174)"/>
</g>
<defs>
<filter id="filter0_d_1022_45174" x="-4" y="0.793457" width="28" height="26.4131" filterUnits="userSpaceOnUse" color-interpolation-filters="sRGB">
<feFlood flood-opacity="0" result="BackgroundImageFix"/>
<feColorMatrix in="SourceAlpha" type="matrix" values="0 0 0 0 0 0 0 0 0 0 0 0 0 0 0 0 0 0 127 0" result="hardAlpha"/>
<feOffset dy="4"/>
<feGaussianBlur stdDeviation="2"/>
<feComposite in2="hardAlpha" operator="out"/>
<feColorMatrix type="matrix" values="0 0 0 0 0 0 0 0 0 0 0 0 0 0 0 0 0 0 0.25 0"/>
<feBlend mode="normal" in2="BackgroundImageFix" result="effect1_dropShadow_1022_45174"/>
<feBlend mode="normal" in="SourceGraphic" in2="effect1_dropShadow_1022_45174" result="shape"/>
</filter>
<linearGradient id="paint0_linear_1022_45174" x1="9.12082" y1="13.0635" x2="12.7893" y2="19.3999" gradientUnits="userSpaceOnUse">
<stop stop-color="#2F73A0"/>
<stop offset="1" stop-color="#174461"/>
</linearGradient>
<linearGradient id="paint1_linear_1022_45174" x1="6.51675" y1="16.3582" x2="5.50768" y2="18.7488" gradientUnits="userSpaceOnUse">
<stop stop-color="#092A40" stop-opacity="0"/>
<stop offset="1" stop-color="#092A40"/>
</linearGradient>
<linearGradient id="paint2_linear_1022_45174" x1="13.4833" y1="16.3582" x2="14.4924" y2="18.7488" gradientUnits="userSpaceOnUse">
<stop stop-color="#092A40" stop-opacity="0"/>
<stop offset="1" stop-color="#092A40"/>
</linearGradient>
<linearGradient id="paint3_linear_1022_45174" x1="9.12082" y1="10.0083" x2="12.7892" y2="16.3447" gradientUnits="userSpaceOnUse">
<stop stop-color="#45A2E0"/>
<stop offset="1" stop-color="#2F73A0"/>
</linearGradient>
<linearGradient id="paint4_linear_1022_45174" x1="10.0001" y1="14.3716" x2="10.0001" y2="8.00321" gradientUnits="userSpaceOnUse">
<stop stop-color="#2F73A0" stop-opacity="0"/>
<stop offset="1" stop-color="#2F73A0"/>
</linearGradient>
<linearGradient id="paint5_linear_1022_45174" x1="6.51675" y1="13.3026" x2="5.50768" y2="15.6931" gradientUnits="userSpaceOnUse">
<stop stop-color="#174461" stop-opacity="0"/>
<stop offset="1" stop-color="#174461"/>
</linearGradient>
<linearGradient id="paint6_linear_1022_45174" x1="13.4833" y1="13.3026" x2="14.4924" y2="15.6931" gradientUnits="userSpaceOnUse">
<stop stop-color="#174461" stop-opacity="0"/>
<stop offset="1" stop-color="#174461"/>
</linearGradient>
<linearGradient id="paint7_linear_1022_45174" x1="9.12082" y1="6.95411" x2="12.7893" y2="13.2905" gradientUnits="userSpaceOnUse">
<stop stop-color="#7ACBFF"/>
<stop offset="1" stop-color="#45A2E0"/>
</linearGradient>
<linearGradient id="paint8_linear_1022_45174" x1="10.0001" y1="10.9538" x2="10.0001" y2="1.63958" gradientUnits="userSpaceOnUse">
<stop stop-color="#2F73A0" stop-opacity="0"/>
<stop offset="1" stop-color="#2F73A0"/>
</linearGradient>
<linearGradient id="paint9_linear_1022_45174" x1="6.51675" y1="10.2488" x2="5.50769" y2="12.6394" gradientUnits="userSpaceOnUse">
<stop stop-color="#2F73A0" stop-opacity="0"/>
<stop offset="1" stop-color="#2F73A0"/>
</linearGradient>
<linearGradient id="paint10_linear_1022_45174" x1="13.4833" y1="10.2488" x2="14.4924" y2="12.6394" gradientUnits="userSpaceOnUse">
<stop stop-color="#2F73A0" stop-opacity="0"/>
<stop offset="1" stop-color="#2F73A0"/>
</linearGradient>
<linearGradient id="paint11_linear_1022_45174" x1="9.12082" y1="3.8989" x2="12.7892" y2="10.2353" gradientUnits="userSpaceOnUse">
<stop stop-color="#C7E9FF"/>
<stop offset="1" stop-color="#7ACBFF"/>
</linearGradient>
<linearGradient id="paint12_linear_1022_45174" x1="9.54825" y1="8.33607" x2="12.8834" y2="-1.92867" gradientUnits="userSpaceOnUse">
<stop stop-color="#7ACBFF" stop-opacity="0"/>
<stop offset="1" stop-color="#2F73A0"/>
</linearGradient>
<linearGradient id="paint13_linear_1022_45174" x1="6.51675" y1="7.19322" x2="5.50768" y2="9.58377" gradientUnits="userSpaceOnUse">
<stop stop-color="#7ACBFF" stop-opacity="0"/>
<stop offset="1" stop-color="#2F73A0"/>
</linearGradient>
<linearGradient id="paint14_linear_1022_45174" x1="13.4833" y1="7.19322" x2="14.4924" y2="9.58377" gradientUnits="userSpaceOnUse">
<stop stop-color="#7ACBFF" stop-opacity="0"/>
<stop offset="1" stop-color="#2F73A0"/>
</linearGradient>
</defs>
</svg>
