<svg width="20" height="20" viewBox="0 0 20 20" fill="none" xmlns="http://www.w3.org/2000/svg">
<path d="M3.46135 15.9232C3.35512 15.9232 3.26904 15.8372 3.26904 15.7309V14.5771C3.26904 14.4708 3.35512 14.3848 3.46135 14.3848C3.56758 14.3848 3.65366 14.4708 3.65366 14.5771V15.7309C3.65366 15.8372 3.56758 15.9232 3.46135 15.9232Z" fill="#232B3F"/>
<path d="M5.96135 15.9232C5.85512 15.9232 5.76904 15.8372 5.76904 15.7309V14.5771C5.76904 14.4708 5.85512 14.3848 5.96135 14.3848C6.06758 14.3848 6.15365 14.4708 6.15365 14.5771V15.7309C6.15365 15.8372 6.06758 15.9232 5.96135 15.9232Z" fill="#232B3F"/>
<path d="M8.46135 15.9232C8.35512 15.9232 8.26904 15.8372 8.26904 15.7309V14.5771C8.26904 14.4708 8.35512 14.3848 8.46135 14.3848C8.56758 14.3848 8.65365 14.4708 8.65365 14.5771V15.7309C8.65365 15.8372 8.56758 15.9232 8.46135 15.9232Z" fill="#232B3F"/>
<path d="M10.9613 15.9232C10.8551 15.9232 10.769 15.8372 10.769 15.7309V14.5771C10.769 14.4708 10.8551 14.3848 10.9613 14.3848C11.0676 14.3848 11.1537 14.4708 11.1537 14.5771V15.7309C11.1537 15.8372 11.0676 15.9232 10.9613 15.9232Z" fill="#232B3F"/>
<path d="M13.4613 15.9232C13.3551 15.9232 13.269 15.8372 13.269 15.7309V14.5771C13.269 14.4708 13.3551 14.3848 13.4613 14.3848C13.5676 14.3848 13.6537 14.4708 13.6537 14.5771V15.7309C13.6537 15.8372 13.5676 15.9232 13.4613 15.9232Z" fill="#232B3F"/>
<path d="M15.9613 15.9232C15.8551 15.9232 15.769 15.8372 15.769 15.7309V14.5771C15.769 14.4708 15.8551 14.3848 15.9613 14.3848C16.0676 14.3848 16.1537 14.4708 16.1537 14.5771V15.7309C16.1537 15.8372 16.0676 15.9232 15.9613 15.9232Z" fill="#232B3F"/>
<path d="M16.5384 13.8076V14.5768H15.9614H15.3845V13.8076H16.5384Z" fill="#313A52"/>
<path d="M14.0384 13.8076V14.5768H13.4614H12.8845V13.8076H14.0384Z" fill="#313A52"/>
<path d="M11.5384 13.8076V14.5768H10.9614H10.3845V13.8076H11.5384Z" fill="#313A52"/>
<path d="M9.03836 13.8076V14.5768H8.46144H7.88452V13.8076H9.03836Z" fill="#313A52"/>
<path d="M6.53836 13.8076V14.5768H5.96144H5.38452V13.8076H6.53836Z" fill="#313A52"/>
<path d="M4.03837 13.8076V14.5768H3.46145H2.88452V13.8076H4.03837Z" fill="#313A52"/>
<path d="M3.46135 6.00038C3.35512 6.00038 3.26904 5.91426 3.26904 5.80807V4.65422C3.26904 4.54803 3.35512 4.46191 3.46135 4.46191C3.56758 4.46191 3.65366 4.54803 3.65366 4.65422V5.80807C3.65366 5.91426 3.56758 6.00038 3.46135 6.00038Z" fill="#232B3F"/>
<path d="M5.96135 6.00038C5.85512 6.00038 5.76904 5.91426 5.76904 5.80807V4.65422C5.76904 4.54803 5.85512 4.46191 5.96135 4.46191C6.06758 4.46191 6.15365 4.54803 6.15365 4.65422V5.80807C6.15365 5.91426 6.06758 6.00038 5.96135 6.00038Z" fill="#232B3F"/>
<path d="M8.46135 6.00038C8.35512 6.00038 8.26904 5.91426 8.26904 5.80807V4.65422C8.26904 4.54803 8.35512 4.46191 8.46135 4.46191C8.56758 4.46191 8.65365 4.54803 8.65365 4.65422V5.80807C8.65365 5.91426 8.56758 6.00038 8.46135 6.00038Z" fill="#232B3F"/>
<path d="M10.9613 6.00038C10.8551 6.00038 10.769 5.91426 10.769 5.80807V4.65422C10.769 4.54803 10.8551 4.46191 10.9613 4.46191C11.0676 4.46191 11.1537 4.54803 11.1537 4.65422V5.80807C11.1537 5.91426 11.0676 6.00038 10.9613 6.00038Z" fill="#232B3F"/>
<path d="M13.4613 6.00038C13.3551 6.00038 13.269 5.91426 13.269 5.80807V4.65422C13.269 4.54803 13.3551 4.46191 13.4613 4.46191C13.5676 4.46191 13.6537 4.54803 13.6537 4.65422V5.80807C13.6537 5.91426 13.5676 6.00038 13.4613 6.00038Z" fill="#232B3F"/>
<path d="M15.9613 6.00038C15.8551 6.00038 15.769 5.91426 15.769 5.80807V4.65422C15.769 4.54803 15.8551 4.46191 15.9613 4.46191C16.0676 4.46191 16.1537 4.54803 16.1537 4.65422V5.80807C16.1537 5.91426 16.0676 6.00038 15.9613 6.00038Z" fill="#232B3F"/>
<path d="M17.4037 5.42312C17.563 5.42312 17.6922 5.29397 17.6922 5.13466C17.6922 4.97534 17.563 4.84619 17.4037 4.84619C17.2444 4.84619 17.1152 4.97534 17.1152 5.13466C17.1152 5.29397 17.2444 5.42312 17.4037 5.42312Z" fill="#BDF9FF"/>
<path d="M16.5384 5.80811V6.57734H15.3845V5.80811H15.9614H16.5384Z" fill="#313A52"/>
<path d="M14.0384 5.80811V6.57734H12.8845V5.80811H13.4614H14.0384Z" fill="#313A52"/>
<path d="M11.5384 5.80811V6.57734H10.3845V5.80811H10.9614H11.5384Z" fill="#313A52"/>
<path d="M9.03836 5.80811V6.57734H7.88452V5.80811H8.46144H9.03836Z" fill="#313A52"/>
<path d="M6.53836 5.80811V6.57734H5.38452V5.80811H5.96144H6.53836Z" fill="#313A52"/>
<path d="M4.03837 5.80811V6.57734H2.88452V5.80811H3.46145H4.03837Z" fill="#313A52"/>
<path d="M17.2113 16.9231C17.3706 16.9231 17.4998 16.794 17.4998 16.6347C17.4998 16.4753 17.3706 16.3462 17.2113 16.3462C17.052 16.3462 16.9229 16.4753 16.9229 16.6347C16.9229 16.794 17.052 16.9231 17.2113 16.9231Z" fill="#BDF9FF"/>
<path d="M17.1153 6.53857C14.7137 6.53857 6.06131 6.53857 2.30762 6.53857V13.8463H17.1153V6.53857Z" fill="#57606F"/>
<path d="M17.1154 9.03857V11.3463H16.1539C15.8354 11.3463 15.5469 11.217 15.3381 11.0082C15.1292 10.7993 15 10.5109 15 10.1924C15 9.55511 15.5165 9.03857 16.1539 9.03857H17.1154Z" fill="#FF5622"/>
<path d="M15.3846 1.73096C15.9158 1.73096 16.3462 2.16134 16.3462 2.69249C16.3462 3.22365 15.9158 3.65403 15.3846 3.65403C14.8535 3.65403 14.4231 3.22365 14.4231 2.69249C14.4231 2.16134 14.8535 1.73096 15.3846 1.73096Z" fill="#FF5622"/>
<path d="M3.84619 8.07715H13.8462V12.3079H3.84619V8.07715Z" fill="#26C6DA"/>
<path d="M12.9806 2.69264C13.1399 2.69264 13.2691 2.56349 13.2691 2.40418C13.2691 2.24487 13.1399 2.11572 12.9806 2.11572C12.8213 2.11572 12.6921 2.24487 12.6921 2.40418C12.6921 2.56349 12.8213 2.69264 12.9806 2.69264Z" fill="#BDF9FF"/>
<path d="M11.4423 17.6926C11.6016 17.6926 11.7307 17.5635 11.7307 17.4042C11.7307 17.2449 11.6016 17.1157 11.4423 17.1157C11.283 17.1157 11.1538 17.2449 11.1538 17.4042C11.1538 17.5635 11.283 17.6926 11.4423 17.6926Z" fill="#BDF9FF"/>
<path d="M8.55751 3.26979C8.71682 3.26979 8.84597 3.14064 8.84597 2.98133C8.84597 2.82202 8.71682 2.69287 8.55751 2.69287C8.39819 2.69287 8.26904 2.82202 8.26904 2.98133C8.26904 3.14064 8.39819 3.26979 8.55751 3.26979Z" fill="#BDF9FF"/>
<path d="M5.67299 17.5003C5.8323 17.5003 5.96145 17.3711 5.96145 17.2118C5.96145 17.0525 5.8323 16.9233 5.67299 16.9233C5.51367 16.9233 5.38452 17.0525 5.38452 17.2118C5.38452 17.3711 5.51367 17.5003 5.67299 17.5003Z" fill="#BDF9FF"/>
<path d="M5.09608 2.30788C5.2554 2.30788 5.38454 2.17873 5.38454 2.01942C5.38454 1.86011 5.2554 1.73096 5.09608 1.73096C4.93677 1.73096 4.80762 1.86011 4.80762 2.01942C4.80762 2.17873 4.93677 2.30788 5.09608 2.30788Z" fill="#BDF9FF"/>
<path d="M3.07685 16.731C3.50185 16.731 3.84608 17.0752 3.84608 17.5002C3.84608 17.9252 3.50185 18.2694 3.07685 18.2694C2.65185 18.2694 2.30762 17.9252 2.30762 17.5002C2.30762 17.0752 2.65185 16.731 3.07685 16.731Z" fill="#FF5622"/>
<path d="M12.1152 9.2308H4.80754C4.70131 9.2308 4.61523 9.14469 4.61523 9.0385C4.61523 8.93231 4.70131 8.84619 4.80754 8.84619H12.1152C12.2215 8.84619 12.3075 8.93231 12.3075 9.0385C12.3075 9.14469 12.2215 9.2308 12.1152 9.2308Z" fill="white"/>
<path d="M12.1152 10.0003H4.80754C4.70131 10.0003 4.61523 9.91426 4.61523 9.80803C4.61523 9.70184 4.70131 9.61572 4.80754 9.61572H12.1152C12.2215 9.61572 12.3075 9.70184 12.3075 9.80803C12.3075 9.91426 12.2215 10.0003 12.1152 10.0003Z" fill="white"/>
<path d="M12.1152 10.7694H4.80754C4.70131 10.7694 4.61523 10.6833 4.61523 10.5771C4.61523 10.4708 4.70131 10.3848 4.80754 10.3848H12.1152C12.2215 10.3848 12.3075 10.4708 12.3075 10.5771C12.3075 10.6833 12.2215 10.7694 12.1152 10.7694Z" fill="white"/>
<path d="M10.1921 11.5384H4.80754C4.70131 11.5384 4.61523 11.4523 4.61523 11.3461C4.61523 11.2399 4.70131 11.1538 4.80754 11.1538H10.1921C10.2984 11.1538 10.3845 11.2399 10.3845 11.3461C10.3845 11.4523 10.2984 11.5384 10.1921 11.5384Z" fill="white"/>
</svg>
