<svg width="20" height="20" viewBox="0 0 20 20" fill="none" xmlns="http://www.w3.org/2000/svg">
<path d="M9.99997 20.0001C9.91071 20.0001 9.82028 19.9795 9.7379 19.9383L8.56602 19.3523C8.27649 19.2076 8.15977 18.8557 8.30395 18.5661C8.45043 18.2772 8.80063 18.161 9.09016 18.3041L9.99997 18.759L10.9098 18.3041C11.1993 18.1599 11.5506 18.276 11.696 18.5661C11.8402 18.8557 11.7235 19.2076 11.4339 19.3523L10.262 19.9383C10.1797 19.9795 10.0892 20.0001 9.99997 20.0001Z" fill="#CFE6E6"/>
<path d="M6.22227 18.1803L3.87852 17.0085C3.58899 16.8637 3.47227 16.5118 3.61645 16.2222C3.7618 15.9327 4.11426 15.8183 4.40266 15.9602L6.74641 17.1321C7.03594 17.2768 7.15266 17.6287 7.00848 17.9183C6.86574 18.203 6.51856 18.3265 6.22227 18.1803Z" fill="#CFE6E6"/>
<path d="M12.9914 17.9183C12.8473 17.6287 12.964 17.2768 13.2535 17.1321L15.5973 15.9602C15.8879 15.8171 16.2381 15.9327 16.3835 16.2223C16.5277 16.5118 16.4109 16.8637 16.1214 17.0085L13.7777 18.1803C13.4816 18.3264 13.1343 18.2032 12.9914 17.9183Z" fill="#A3C6CC"/>
<path d="M1.49574 15.8369L0.323867 15.251C0.125898 15.1514 0 14.9489 0 14.7269C0 14.5048 0.125898 14.3023 0.323867 14.2027L1.49574 13.6168C1.78641 13.4732 2.1366 13.5888 2.28195 13.8789C2.42613 14.1684 2.30941 14.5203 2.01988 14.6651L1.89629 14.7269L2.01988 14.7887C2.30941 14.9334 2.42613 15.2853 2.28195 15.5749C2.13922 15.8596 1.79203 15.9831 1.49574 15.8369Z" fill="#CFE6E6"/>
<path d="M17.718 15.5749C17.5738 15.2853 17.6905 14.9334 17.9801 14.7887L18.1037 14.7269L17.9801 14.6651C17.6905 14.5203 17.5738 14.1684 17.718 13.8788C17.8634 13.5887 18.2158 13.4743 18.5042 13.6168L19.6761 14.2027C19.874 14.3023 19.9999 14.5048 19.9999 14.7269C19.9999 14.9489 19.874 15.1514 19.6761 15.251L18.5042 15.8369C18.2081 15.983 17.8609 15.8598 17.718 15.5749Z" fill="#A3C6CC"/>
<path d="M3.61645 13.2311C3.47227 12.9416 3.58899 12.5897 3.87852 12.4449L5.05039 11.859C5.34106 11.7154 5.69125 11.8309 5.8366 12.1211C5.98078 12.4106 5.86406 12.7625 5.57453 12.9073L4.40266 13.4932C4.10656 13.6392 3.75934 13.5161 3.61645 13.2311Z" fill="#CFE6E6"/>
<path d="M15.5973 13.4932L14.4254 12.9073C14.1359 12.7625 14.0191 12.4106 14.1633 12.121C14.3087 11.8309 14.6611 11.7165 14.9495 11.859L16.1214 12.4449C16.4109 12.5897 16.5276 12.9416 16.3835 13.2311C16.2407 13.5158 15.8935 13.6393 15.5973 13.4932Z" fill="#A3C6CC"/>
<path d="M10 15.3125C9.91074 15.3125 9.82031 15.2919 9.73793 15.2507L0.323867 10.5632C0.125898 10.4636 0 10.2611 0 10.0391C0 9.81702 0.125898 9.61448 0.323867 9.51491L5.05043 7.17116C5.21523 7.08878 5.40977 7.08878 5.57457 7.17116L10 9.3839L14.4254 7.17116C14.5902 7.08878 14.7848 7.08878 14.9496 7.17116L19.6761 9.51491C19.8741 9.61448 20 9.81702 20 10.0391C20 10.2611 19.8741 10.4636 19.6761 10.5632L10.2621 15.2507C10.1797 15.2919 10.0893 15.3125 10 15.3125Z" fill="#66B3FF"/>
<path d="M10.2621 19.9383L11.434 19.3523C11.7235 19.2076 11.8402 18.8557 11.696 18.5661C11.5507 18.276 11.1993 18.1599 10.9098 18.3041L10 18.759V20.0001C10.0893 20.0001 10.1797 19.9795 10.2621 19.9383Z" fill="#A3C6CC"/>
<path d="M10.2621 15.2507L19.6761 10.5632C19.8741 10.4636 20 10.2611 20 10.0391C20 9.81702 19.8741 9.61448 19.6761 9.51491L14.9496 7.17116C14.7848 7.08878 14.5902 7.08878 14.4254 7.17116L10 9.3839V15.3125C10.0893 15.3125 10.1797 15.2919 10.2621 15.2507Z" fill="#4D88FF"/>
<path d="M10 10.6255C9.91074 10.6255 9.82031 10.6049 9.73793 10.5637L0.323867 5.87618C0.125898 5.77661 0 5.57407 0 5.35204C0 5.13001 0.125898 4.92747 0.323867 4.8279L9.73793 0.0622754C9.90273 -0.0201074 10.0973 -0.0201074 10.2621 0.0622754L19.6761 4.8279C19.8741 4.92747 20 5.13001 20 5.35204C20 5.57407 19.8741 5.77661 19.6761 5.87618L10.2621 10.5637C10.1797 10.6049 10.0893 10.6255 10 10.6255Z" fill="#FFEA80"/>
<path d="M10.2621 10.5632L19.6761 5.8757C19.8741 5.77613 20 5.57359 20 5.35156C20 5.12953 19.8741 4.92699 19.6761 4.82742L10.2621 0.0617969C10.1797 0.0205859 10.0898 0 10 0V10.625C10.0893 10.625 10.1797 10.6044 10.2621 10.5632Z" fill="#FFCB66"/>
</svg>
