<svg width="20" height="20" viewBox="0 0 20 20" fill="none" xmlns="http://www.w3.org/2000/svg">
<path fill-rule="evenodd" clip-rule="evenodd" d="M1.72412 18.2754H5.86205V19.3099C5.86205 19.6908 5.55328 19.9995 5.1724 19.9995H2.41378C2.03289 19.9995 1.72412 19.6908 1.72412 19.3099V18.2754Z" fill="#95A5A5"/>
<path fill-rule="evenodd" clip-rule="evenodd" d="M13.4482 18.2754H17.5862V19.3099C17.5862 19.6908 17.2774 19.9995 16.8965 19.9995H14.1379C13.757 19.9995 13.4482 19.6908 13.4482 19.3099V18.2754Z" fill="#95A5A5"/>
<path fill-rule="evenodd" clip-rule="evenodd" d="M18.6207 4.4858V17.9306C18.6196 18.311 18.3114 18.6191 17.931 18.6203H1.72414C1.26687 18.6203 0.828327 18.4386 0.504988 18.1153C0.18165 17.792 0 17.3534 0 16.8961V3.10304C0 2.15083 0.771923 1.37891 1.72414 1.37891H15.5138L18.6207 4.4858Z" fill="#547580"/>
<path fill-rule="evenodd" clip-rule="evenodd" d="M17.2412 5.86523V15.2032C17.24 15.3714 17.1176 15.5142 16.9515 15.5411C16.2299 15.6646 15.6646 16.2298 15.5412 16.9514C15.5142 17.1175 15.3714 17.2399 15.2032 17.2411H8.27563V12.4066C8.34886 12.4309 8.42889 12.4234 8.49632 12.3859L9.8446 11.6308C10.0082 11.541 10.1369 11.3989 10.2101 11.2273L10.5343 10.4756C10.5519 10.4359 10.5764 10.3997 10.6067 10.3687L14.1239 6.85489L14.7446 7.47558C15.0145 7.71922 15.4304 7.69919 15.6756 7.43075L15.8446 7.26179C15.9491 7.16851 15.986 7.02085 15.9377 6.88937C15.8269 6.62425 15.8914 6.31828 16.0998 6.12041C16.2967 5.91277 16.602 5.84951 16.8653 5.96179C16.9967 6.01091 17.1448 5.97388 17.2377 5.86868L17.2412 5.86523Z" fill="#33907C"/>
<path fill-rule="evenodd" clip-rule="evenodd" d="M14.1308 2.76175C14.0256 2.85461 13.9886 3.00273 14.0377 3.13416C14.1414 3.39905 14.0784 3.70021 13.8773 3.90136C13.6761 4.1025 13.375 4.16547 13.1101 4.06175C12.9793 4.0136 12.8323 4.04898 12.7377 4.15141L12.5687 4.32382C12.439 4.44117 12.3614 4.60533 12.353 4.78003C12.3446 4.95473 12.4061 5.12559 12.5239 5.25486L13.148 5.879L9.6308 9.3928C9.59909 9.4239 9.56161 9.4485 9.52046 9.46521L8.77219 9.7859C8.59927 9.86018 8.45608 9.99002 8.36529 10.1549L8.27563 10.3169V2.7583H14.1342L14.1308 2.76175Z" fill="#33907C"/>
<path fill-rule="evenodd" clip-rule="evenodd" d="M7.61388 11.5066C7.55359 11.6152 7.57336 11.7507 7.66215 11.8376L8.1587 12.3376C8.18981 12.372 8.23073 12.3961 8.27595 12.4066V17.2411H3.41733C3.24911 17.2399 3.10631 17.1175 3.07939 16.9514C2.95592 16.2298 2.39067 15.6645 1.66905 15.5411C1.50299 15.5141 1.38059 15.3713 1.37939 15.2031V4.79623C1.38059 4.62801 1.50299 4.48521 1.66905 4.4583C2.39067 4.33483 2.95592 3.76958 3.07939 3.04796C3.10631 2.8819 3.24911 2.7595 3.41733 2.7583H8.27595V10.3169L7.61388 11.5066Z" fill="#3F5C6C"/>
<path d="M5.86223 12.4136H3.44844C3.06756 12.4136 2.75879 12.7223 2.75879 13.1032V13.7929C2.75879 14.1738 3.06756 14.4825 3.44844 14.4825H5.86223C6.24312 14.4825 6.55189 14.1738 6.55189 13.7929V13.1032C6.55189 12.7223 6.24312 12.4136 5.86223 12.4136Z" fill="#D1D4D1"/>
<path d="M5.86223 8.96533H3.44844C3.06756 8.96533 2.75879 9.2741 2.75879 9.65499V10.3446C2.75879 10.7255 3.06756 11.0343 3.44844 11.0343H5.86223C6.24312 11.0343 6.55189 10.7255 6.55189 10.3446V9.65499C6.55189 9.2741 6.24312 8.96533 5.86223 8.96533Z" fill="#D1D4D1"/>
<path d="M5.86223 5.51709H3.44844C3.06756 5.51709 2.75879 5.82586 2.75879 6.20674V6.8964C2.75879 7.27729 3.06756 7.58606 3.44844 7.58606H5.86223C6.24312 7.58606 6.55189 7.27729 6.55189 6.8964V6.20674C6.55189 5.82586 6.24312 5.51709 5.86223 5.51709Z" fill="#D1D4D1"/>
<path fill-rule="evenodd" clip-rule="evenodd" d="M6.2069 16.2067H4.48277C4.29232 16.2067 4.13794 16.0524 4.13794 15.8619C4.13794 15.6715 4.29232 15.5171 4.48277 15.5171H6.2069C6.39734 15.5171 6.55173 15.6715 6.55173 15.8619C6.55173 16.0524 6.39734 16.2067 6.2069 16.2067Z" fill="#35495E"/>
<path fill-rule="evenodd" clip-rule="evenodd" d="M6.2069 4.48262H4.48277C4.29232 4.48262 4.13794 4.32824 4.13794 4.1378C4.13794 3.94735 4.29232 3.79297 4.48277 3.79297H6.2069C6.39734 3.79297 6.55173 3.94735 6.55173 4.1378C6.55173 4.32824 6.39734 4.48262 6.2069 4.48262Z" fill="#35495E"/>
<path fill-rule="evenodd" clip-rule="evenodd" d="M10.2932 11.0342H14.138C14.3285 11.0342 14.4829 11.1886 14.4829 11.379V15.5169C14.4829 15.7074 14.3285 15.8618 14.138 15.8618H10.0001C9.80966 15.8618 9.65527 15.7074 9.65527 15.5169V11.7376" fill="#4FBA6F"/>
<path fill-rule="evenodd" clip-rule="evenodd" d="M8.27563 13.4482H9.65494V15.5172H8.27563V13.4482Z" fill="#24AE5F"/>
<path d="M11.0343 12.7585C11.2247 12.7585 11.3791 12.6041 11.3791 12.4137C11.3791 12.2232 11.2247 12.0688 11.0343 12.0688C10.8438 12.0688 10.6895 12.2232 10.6895 12.4137C10.6895 12.6041 10.8438 12.7585 11.0343 12.7585Z" fill="#7ED09E"/>
<path fill-rule="evenodd" clip-rule="evenodd" d="M13.1032 14.8273H11.0343C10.8438 14.8273 10.6895 14.673 10.6895 14.4825C10.6895 14.2921 10.8438 14.1377 11.0343 14.1377H13.1032C13.2937 14.1377 13.4481 14.2921 13.4481 14.4825C13.4481 14.673 13.2937 14.8273 13.1032 14.8273Z" fill="#7ED09E"/>
<path fill-rule="evenodd" clip-rule="evenodd" d="M15.8622 12.0688C15.6717 12.0688 15.5173 11.9144 15.5173 11.7239V11.0343C15.5173 10.8438 15.6717 10.6895 15.8622 10.6895C16.0526 10.6895 16.207 10.8438 16.207 11.0343V11.7239C16.207 11.9144 16.0526 12.0688 15.8622 12.0688Z" fill="#F3D55B"/>
<path fill-rule="evenodd" clip-rule="evenodd" d="M15.8622 14.1376C15.6717 14.1376 15.5173 13.9832 15.5173 13.7928V13.1031C15.5173 12.9127 15.6717 12.7583 15.8622 12.7583C16.0526 12.7583 16.207 12.9127 16.207 13.1031V13.7928C16.207 13.9832 16.0526 14.1376 15.8622 14.1376Z" fill="#F3D55B"/>
<path fill-rule="evenodd" clip-rule="evenodd" d="M19.7826 3.32391L17.2412 5.86529L17.2377 5.86874C17.1449 5.97394 16.9968 6.01096 16.8653 5.96184C16.6021 5.84956 16.2968 5.91283 16.0998 6.12046C15.8915 6.31833 15.827 6.62431 15.9377 6.88943C15.9861 7.02091 15.9491 7.16856 15.8446 7.26184L15.6757 7.43081C15.4305 7.69924 15.0145 7.71927 14.7446 7.47563L12.524 5.25494C12.4061 5.12568 12.3446 4.95482 12.3531 4.78012C12.3615 4.60542 12.4391 4.44126 12.5688 4.32391L12.7377 4.1515C12.8323 4.04907 12.9793 4.01369 13.1102 4.06184C13.375 4.16556 13.6762 4.10259 13.8774 3.90145C14.0785 3.7003 14.1415 3.39914 14.0377 3.13425C13.9886 3.00282 14.0257 2.8547 14.1308 2.76184L16.6757 0.217013C16.8464 0.0396113 17.0978 -0.0350261 17.3377 0.0204617C17.9638 0.201738 18.5287 0.549779 18.9722 1.02736C19.4505 1.4703 19.7986 2.03547 19.9791 2.66184C20.0346 2.90174 19.96 3.15315 19.7826 3.32391Z" fill="#F29C1F"/>
<path fill-rule="evenodd" clip-rule="evenodd" d="M15.4768 3.89093C15.3374 3.8909 15.2117 3.80688 15.1583 3.67805C15.105 3.54922 15.1345 3.40093 15.2331 3.30231L16.7751 1.76024C16.8623 1.67308 16.9893 1.63904 17.1084 1.67094C17.2274 1.70285 17.3204 1.79585 17.3523 1.91491C17.3842 2.03397 17.3502 2.16101 17.263 2.24817L15.7206 3.78989C15.6561 3.85479 15.5683 3.89118 15.4768 3.89093Z" fill="#E57E25"/>
<path fill-rule="evenodd" clip-rule="evenodd" d="M16.4534 4.86753C16.314 4.8675 16.1883 4.78349 16.1349 4.65466C16.0815 4.52582 16.111 4.37753 16.2096 4.27891L17.7513 2.73685C17.886 2.60211 18.1044 2.60203 18.2391 2.73667C18.3738 2.87132 18.3739 3.08969 18.2393 3.22443L16.6972 4.7665C16.6325 4.83117 16.5449 4.86751 16.4534 4.86753Z" fill="#E57E25"/>
<path fill-rule="evenodd" clip-rule="evenodd" d="M14.1244 6.85526L10.6071 10.369C10.5768 10.4001 10.5523 10.4363 10.5347 10.4759L10.2106 11.2277C10.1374 11.3993 10.0086 11.5414 9.84504 11.6311L8.49677 12.3863C8.42933 12.4237 8.3493 12.4312 8.27608 12.407C8.23086 12.3965 8.18994 12.3725 8.15884 12.338L7.66228 11.838C7.57349 11.7511 7.55372 11.6156 7.61401 11.507L8.27608 10.3173L8.36573 10.1553C8.45652 9.99041 8.59971 9.86057 8.77263 9.78629L9.52091 9.4656C9.56206 9.44889 9.59954 9.42429 9.63125 9.39319L13.1485 5.87939L14.1244 6.85526Z" fill="#BDC3C7"/>
<path d="M9.65538 4.48262C9.84582 4.48262 10.0002 4.32824 10.0002 4.1378C10.0002 3.94735 9.84582 3.79297 9.65538 3.79297C9.46493 3.79297 9.31055 3.94735 9.31055 4.1378C9.31055 4.32824 9.46493 4.48262 9.65538 4.48262Z" fill="#F3D55B"/>
<path d="M11.0345 5.86154C11.225 5.86154 11.3793 5.70715 11.3793 5.51671C11.3793 5.32626 11.225 5.17188 11.0345 5.17188C10.8441 5.17188 10.6897 5.32626 10.6897 5.51671C10.6897 5.70715 10.8441 5.86154 11.0345 5.86154Z" fill="#F3D55B"/>
<path d="M11.0345 4.48262C11.225 4.48262 11.3793 4.32824 11.3793 4.1378C11.3793 3.94735 11.225 3.79297 11.0345 3.79297C10.8441 3.79297 10.6897 3.94735 10.6897 4.1378C10.6897 4.32824 10.8441 4.48262 11.0345 4.48262Z" fill="#F3D55B"/>
<path fill-rule="evenodd" clip-rule="evenodd" d="M9.65538 7.93049C9.46493 7.93049 9.31055 7.7761 9.31055 7.58566V5.5167C9.31055 5.32626 9.46493 5.17188 9.65538 5.17188C9.84582 5.17188 10.0002 5.32626 10.0002 5.5167V7.58566C10.0002 7.7761 9.84582 7.93049 9.65538 7.93049Z" fill="#F3D55B"/>
</svg>
