<svg width="20" height="18" viewBox="0 0 20 18" fill="none" xmlns="http://www.w3.org/2000/svg">
<path d="M12.6378 9.16837L13.4275 7.98941L14.5333 6.68878C14.7302 6.45718 14.908 6.20999 15.0649 5.94965L15.2563 5.63221C15.3787 5.4291 15.4745 5.21106 15.5412 4.98346C15.593 4.80664 15.627 4.62507 15.6426 4.44147L15.6736 4.07756C15.7213 3.51677 15.6186 2.95339 15.376 2.44553C15.1347 1.94022 14.7635 1.50803 14.3005 1.19311L13.4785 0.63408C12.692 0.217686 11.8155 0 10.9256 0H10.5734H10.1275C9.62799 0 9.13022 0.05842 8.64431 0.174069L8.20345 0.278995L7.50674 0.543156C6.90558 0.771092 6.34907 1.10275 5.86254 1.52303L5.65044 1.70625C5.38319 1.93711 5.15136 2.20602 4.96238 2.50436C4.66379 2.97575 4.47884 3.51008 4.42213 4.06519L4.3672 4.60274C4.35944 4.6787 4.36498 4.75544 4.38359 4.8295C4.45694 5.12153 4.71948 5.32628 5.02058 5.32628H6.26672H7.65313C7.88927 5.32628 8.11368 5.22338 8.26777 5.04445C8.30968 4.99578 8.34567 4.94231 8.37497 4.88515L8.63725 4.3735C8.84919 3.96006 9.21504 3.64642 9.656 3.50012C10.104 3.28435 10.6427 3.44425 10.9004 3.86954L10.9737 3.9905C11.2343 4.42039 11.1768 4.97114 10.8331 5.33798L9.656 6.59444L9.4404 6.80902C9.00871 7.23867 8.64051 7.72768 8.34691 8.2613L8.20345 8.52204L7.88487 9.15861C7.82064 9.28696 7.87506 9.44302 8.00518 9.50359C8.05135 9.52508 8.10291 9.53224 8.15319 9.52415L8.44808 9.47667C8.77258 9.42443 9.04904 9.21248 9.18375 8.91267L9.2304 8.80883C9.35961 8.52125 9.64553 8.33625 9.9608 8.33625C10.3158 8.33625 10.6284 8.56999 10.7288 8.91049L10.7396 8.94684C10.8031 9.16214 10.949 9.34366 11.1457 9.4519L11.246 9.50711C11.6375 9.72262 12.1222 9.6694 12.4576 9.37406C12.5263 9.31357 12.5869 9.24443 12.6378 9.16837Z" fill="#32404F"/>
<path d="M6.77598 11.033L6.08793 10.1199L7.28564 8.97859L8.10111 9.40976L8.86561 9.18149L9.14592 8.1416H10.9298L11.0827 9.18149L11.9236 9.61267L12.8665 8.97859L14.0387 10.1199L13.4781 11.1345L13.7584 11.8446L14.8032 12.1236V13.8737L13.7584 14.102L13.4781 14.8882L14.0387 15.6238L12.7391 16.968L11.9236 16.4354L11.0827 16.7144L10.9298 17.6782H9.14592L8.96754 16.5622L8.10111 16.1564L7.20919 16.8158L6.08793 15.4969L6.77598 14.7614L6.36824 13.8737L5.27246 13.7469V12.1236L6.36824 11.9461L6.77598 11.033Z" fill="#687D99"/>
<ellipse cx="10.0369" cy="12.9353" rx="2.36995" ry="2.35878" fill="white"/>
<path d="M3.53001 9.40743L3.77226 9.04578L4.1361 8.61781C4.20089 8.5416 4.2594 8.46026 4.31104 8.3746L4.37401 8.27014C4.4143 8.20331 4.4458 8.13156 4.46775 8.05667C4.4848 7.99849 4.49598 7.93874 4.50113 7.87833L4.51132 7.75859C4.52703 7.57406 4.49324 7.38868 4.41341 7.22157C4.33399 7.0553 4.21186 6.91309 4.0595 6.80946L3.78903 6.62551C3.53022 6.4885 3.24183 6.41687 2.94899 6.41687H2.83311H2.68638C2.52203 6.41687 2.35824 6.43609 2.19835 6.47415L2.05328 6.50867L1.82403 6.59559C1.62622 6.6706 1.4431 6.77973 1.28301 6.91802L1.21322 6.97831C1.12528 7.05427 1.04899 7.14276 0.986813 7.24093C0.888564 7.39604 0.827706 7.57186 0.809043 7.75452L0.79097 7.9314C0.788416 7.95639 0.79024 7.98164 0.796361 8.00601C0.820498 8.1021 0.906885 8.16948 1.00596 8.16948H1.416H1.8722C1.9499 8.16948 2.02374 8.13562 2.07445 8.07674C2.08824 8.06073 2.10008 8.04313 2.10972 8.02432L2.19603 7.85596C2.26576 7.71992 2.38615 7.61672 2.53124 7.56858C2.67867 7.49758 2.85591 7.5502 2.94072 7.69014L2.96484 7.72994C3.05056 7.87139 3.03165 8.05262 2.91857 8.17333L2.53124 8.58676L2.3676 8.74963C2.28704 8.82981 2.21833 8.92107 2.16354 9.02066L2.1136 9.11142C2.07375 9.18384 2.04799 9.26316 2.03769 9.34518L2.02045 9.48247C2.01454 9.52954 2.0236 9.57727 2.04635 9.6189C2.08683 9.69295 2.16522 9.73825 2.24959 9.73635L2.95953 9.72029C3.13577 9.7163 3.30414 9.64651 3.43152 9.52464C3.4685 9.48926 3.50153 9.44996 3.53001 9.40743Z" fill="#32404F"/>
<ellipse cx="2.67252" cy="10.475" rx="0.713532" ry="0.71017" fill="#32404F"/>
<path d="M18.2087 9.45815L18.451 9.0965L18.8148 8.66853C18.8796 8.59232 18.9381 8.51098 18.9897 8.42532L19.0527 8.32086C19.093 8.25403 19.1245 8.18228 19.1465 8.10739C19.1635 8.04921 19.1747 7.98946 19.1798 7.92905L19.19 7.80931C19.2057 7.62478 19.1719 7.4394 19.0921 7.27229C19.0127 7.10602 18.8906 6.96381 18.7382 6.86018L18.4677 6.67623C18.2089 6.53922 17.9205 6.46759 17.6277 6.46759H17.5118H17.3651C17.2007 6.46759 17.0369 6.48681 16.8771 6.52487L16.732 6.55939L16.5027 6.64632C16.3049 6.72132 16.1218 6.83045 15.9617 6.96874L15.8919 7.02903C15.804 7.10499 15.7277 7.19348 15.6655 7.29165C15.5673 7.44676 15.5064 7.62258 15.4878 7.80524L15.4697 7.98212C15.4671 8.00711 15.469 8.03236 15.4751 8.05673C15.4992 8.15282 15.5856 8.2202 15.6847 8.2202H16.0947H16.5509C16.6286 8.2202 16.7025 8.18634 16.7532 8.12746C16.767 8.11145 16.7788 8.09385 16.7884 8.07504L16.8747 7.90668C16.9445 7.77064 17.0649 7.66744 17.21 7.6193C17.3574 7.5483 17.5346 7.60092 17.6194 7.74086L17.6435 7.78066C17.7293 7.92211 17.7104 8.10334 17.5973 8.22405L17.21 8.63748L17.0463 8.80035C16.9658 8.88053 16.897 8.97179 16.8422 9.07138L16.7923 9.16214C16.7525 9.23456 16.7267 9.31388 16.7164 9.3959L16.6992 9.53319C16.6932 9.58026 16.7023 9.62799 16.7251 9.66962C16.7655 9.74367 16.8439 9.78897 16.9283 9.78707L17.6382 9.77101C17.8145 9.76702 17.9829 9.69723 18.1102 9.57536C18.1472 9.53998 18.1802 9.50068 18.2087 9.45815Z" fill="#32404F"/>
<ellipse cx="17.3512" cy="10.5258" rx="0.713532" ry="0.71017" fill="#32404F"/>
</svg>
