<svg width="31" height="24" viewBox="0 0 31 24" fill="none" xmlns="http://www.w3.org/2000/svg">
<path d="M8.38379 9.6637C10.1375 5.80021 18.0147 3.70208 22.552 9.30981" stroke="#32404F" stroke-width="0.616325"/>
<path d="M15.5851 6.14456L15.547 6.14115L15.5091 6.14517C11.4224 6.57829 8.82991 8.50121 7.79324 11.0623C6.76153 13.6111 7.31483 16.6868 9.29478 19.3432C9.39451 19.477 9.41817 19.6512 9.30286 19.9301C9.18349 20.2187 8.938 20.5516 8.61065 20.9048C8.28793 21.2531 7.90914 21.5967 7.54911 21.9095C7.42604 22.0164 7.30293 22.1216 7.18507 22.2223C6.96746 22.4083 6.76779 22.5789 6.61952 22.7168C6.19791 23.1089 5.81834 23.2825 5.48488 23.324C5.15407 23.3651 4.8236 23.2819 4.48668 23.0767C3.79221 22.6539 3.12858 21.7476 2.55872 20.5972C1.99593 19.461 1.55295 18.1453 1.27109 16.9775C0.984922 15.7918 0.879754 14.8192 0.948569 14.348L0.952665 14.32V14.2916C0.952665 6.44881 7.1495 0.3904 15.5502 0.3904C19.7607 0.3904 23.4076 1.82859 25.9993 4.31405C28.5894 6.79789 30.1477 10.3483 30.1477 14.6183C30.1477 18.9828 27.9745 21.9723 26.4431 23.0963C26.2072 23.2694 25.79 23.2816 25.1649 23.0278C24.5649 22.7841 23.8933 22.3407 23.2766 21.833C22.6615 21.3265 22.1245 20.7753 21.7891 20.335C21.62 20.113 21.5191 19.941 21.4767 19.8302C24.2877 16.0242 24.3857 12.7181 22.9176 10.276C21.4679 7.86446 18.5556 6.41098 15.5851 6.14456Z" stroke="#32404F" stroke-width="0.780678"/>
<line y1="-0.410883" x2="5.51544" y2="-0.410883" transform="matrix(-0.477675 -0.878536 0.904958 -0.425501 12.1309 6.75085)" stroke="#32404F" stroke-width="0.821766"/>
<line y1="-0.410883" x2="5.35826" y2="-0.410883" transform="matrix(0.622804 -0.782378 0.8237 0.567026 20.3857 7.40448)" stroke="#32404F" stroke-width="0.821766"/>
<line y1="-0.410883" x2="5.58065" y2="-0.410883" transform="matrix(-0.986151 -0.165849 0.190902 -0.981609 7.33008 11.4878)" stroke="#32404F" stroke-width="0.821766"/>
<line y1="-0.410883" x2="5.55195" y2="-0.410883" transform="matrix(-0.927977 0.372638 -0.421164 -0.906984 28.874 9.79993)" stroke="#32404F" stroke-width="0.821766"/>
<ellipse cx="15.7629" cy="13.121" rx="4.56662" ry="4.24663" fill="#687D99"/>
<path d="M5.96839 8.14976C5.3585 7.52931 6.0979 6.54643 6.93376 6.8665L14.5449 9.78092C15.0414 9.97106 15.2129 10.5471 14.8977 10.9661L12.84 13.7013C12.5248 14.1204 11.8841 14.168 11.5218 13.7994L5.96839 8.14976Z" fill="#687D99"/>
</svg>
