<svg width="60" height="16" viewBox="0 0 60 16" fill="none" xmlns="http://www.w3.org/2000/svg">
<rect x="0.5" y="1.5" width="14" height="14" rx="7" stroke="#32404F"/>
<path d="M40.2134 12H39.1606L34.8799 5.4043H34.8369C34.8477 5.57975 34.8602 5.78027 34.8745 6.00586C34.8888 6.22786 34.8996 6.46598 34.9067 6.72021C34.9175 6.97087 34.9229 7.22689 34.9229 7.48828V12H34.0742V4.14746H35.1216L39.3862 10.7217H39.4238C39.4167 10.5964 39.4077 10.4191 39.397 10.1899C39.3862 9.95719 39.3755 9.70833 39.3647 9.44336C39.3576 9.1748 39.354 8.92594 39.354 8.69678V4.14746H40.2134V12ZM44.4888 6.00586C44.9901 6.00586 45.4198 6.11686 45.7778 6.33887C46.1359 6.56087 46.4098 6.8724 46.5996 7.27344C46.7894 7.6709 46.8843 8.13639 46.8843 8.66992V9.22314H42.8184C42.8291 9.91423 43.001 10.4406 43.334 10.8022C43.667 11.1639 44.1361 11.3447 44.7412 11.3447C45.1136 11.3447 45.443 11.3107 45.7295 11.2427C46.016 11.1746 46.3132 11.0744 46.6211 10.9419V11.7261C46.3239 11.8586 46.0285 11.9552 45.7349 12.0161C45.4448 12.077 45.1011 12.1074 44.7036 12.1074C44.1379 12.1074 43.6437 11.9928 43.2212 11.7637C42.8022 11.5309 42.4764 11.1908 42.2437 10.7432C42.0109 10.2956 41.8945 9.74772 41.8945 9.09961C41.8945 8.46582 42.0002 7.91797 42.2114 7.45605C42.4263 6.99056 42.7271 6.63249 43.1138 6.38184C43.5041 6.13118 43.9624 6.00586 44.4888 6.00586ZM44.478 6.73633C44.0018 6.73633 43.6222 6.89209 43.3394 7.20361C43.0565 7.51514 42.8882 7.9502 42.8345 8.50879H45.9497C45.9461 8.15788 45.8906 7.84993 45.7832 7.58496C45.6794 7.31641 45.52 7.10872 45.3052 6.96191C45.0903 6.81152 44.8146 6.73633 44.478 6.73633ZM49.2905 6.11328V12H48.3989V6.11328H49.2905ZM48.8555 3.91113C49.0023 3.91113 49.1276 3.95947 49.2314 4.05615C49.3389 4.14925 49.3926 4.29606 49.3926 4.49658C49.3926 4.69352 49.3389 4.84033 49.2314 4.93701C49.1276 5.03369 49.0023 5.08203 48.8555 5.08203C48.7015 5.08203 48.5726 5.03369 48.4688 4.93701C48.3685 4.84033 48.3184 4.69352 48.3184 4.49658C48.3184 4.29606 48.3685 4.14925 48.4688 4.05615C48.5726 3.95947 48.7015 3.91113 48.8555 3.91113ZM53.9688 6.00586C54.667 6.00586 55.1951 6.17773 55.5532 6.52148C55.9113 6.86165 56.0903 7.40951 56.0903 8.16504V12H55.2095V8.22412C55.2095 7.73356 55.0967 7.36654 54.8711 7.12305C54.6491 6.87956 54.3071 6.75781 53.8452 6.75781C53.1935 6.75781 52.7352 6.94222 52.4702 7.31104C52.2052 7.67985 52.0728 8.21517 52.0728 8.91699V12H51.1812V6.11328H51.9009L52.0352 6.96191H52.0835C52.2088 6.75423 52.3682 6.58057 52.5615 6.44092C52.7549 6.29769 52.9715 6.19027 53.2114 6.11865C53.4513 6.04346 53.7038 6.00586 53.9688 6.00586Z" fill="black"/>
</svg>
