<svg width="13" height="13" viewBox="0 0 13 13" fill="none" xmlns="http://www.w3.org/2000/svg">
<g clip-path="url(#clip0_1403_40202)">
<path d="M12.0428 4.06815L9.84555 1.13841C9.70751 0.953864 9.3978 0.953864 9.25976 1.13841L7.06247 4.06815C6.88183 4.30848 7.0538 4.65394 7.35536 4.65394H8.45402V11.612C8.45402 11.8144 8.61782 11.9782 8.82023 11.9782H10.2851C10.4875 11.9782 10.6464 11.8144 10.6464 11.612V4.65394H11.7499C12.0518 4.65394 12.2233 4.30823 12.0428 4.06815Z" fill="#E1E5EB"/>
<path d="M5.1445 8.32432H4.04096V1.36621C4.04096 1.16379 3.88205 1 3.67964 1H2.21477C2.01235 1 1.84856 1.16379 1.84856 1.36621V8.32429H0.7499C0.448313 8.32429 0.276365 8.66975 0.457005 8.91008L2.65432 11.8398C2.80053 12.0353 3.09411 12.035 3.24011 11.8398L5.4374 8.91011C5.61784 8.67002 5.44631 8.32432 5.1445 8.32432Z" fill="#E1E5EB"/>
</g>
<defs>
<clipPath id="clip0_1403_40202">
<rect width="12.5" height="12.5" fill="white" transform="translate(0.5)"/>
</clipPath>
</defs>
</svg>
