<svg width="25" height="25" viewBox="0 0 25 25" fill="none" xmlns="http://www.w3.org/2000/svg">
<g clip-path="url(#clip0_2137_82499)">
<path d="M16.1621 16.8457V19.7754L12.5 21.3379L8.83789 19.7754V16.8457L12.5 15.3809L16.1621 16.8457Z" fill="#B8C7E6"/>
<path d="M16.1621 10.9863V13.916L12.5 15.3809L8.83789 13.916V10.9863L12.5 9.52148L16.1621 10.9863Z" fill="#B8C7E6"/>
<path d="M16.1621 13.916V10.9863L12.5 9.52148V15.3809L16.1621 13.916Z" fill="#A3B4D9"/>
<path d="M16.1621 19.7754V16.8457L12.5 15.3809V21.3379L16.1621 19.7754Z" fill="#A3B4D9"/>
<path d="M15.4297 7.32422H9.57031C9.16011 7.32422 8.83789 7.64644 8.83789 8.05664V10.9863H16.1621V8.05664C16.1621 7.64644 15.8399 7.32422 15.4297 7.32422Z" fill="#CDD9F2"/>
<path d="M16.1621 19.7754V21.3379C16.1621 21.5283 16.0888 21.7187 15.9423 21.8505L13.0126 24.7802C12.8809 24.9268 12.6904 25 12.5 25C12.3096 25 12.1191 24.9268 11.9874 24.7802L9.05767 21.8505C8.91118 21.7187 8.83789 21.5283 8.83789 21.3379V19.7754H16.1621Z" fill="#CDD9F2"/>
<path d="M8.83789 13.916H16.1621V16.8457H8.83789V13.916Z" fill="#CDD9F2"/>
<path d="M12.5 25C12.6904 25 12.8809 24.9268 13.0126 24.7802L15.9423 21.8505C16.0888 21.7187 16.1621 21.5283 16.1621 21.3379V19.7754H12.5V25Z" fill="#B8C7E6"/>
<path d="M12.5 13.916H16.1621V16.8457H12.5V13.916Z" fill="#B8C7E6"/>
<path d="M15.4297 7.32422H12.5V10.9863H16.1621V8.05664C16.1621 7.64644 15.8399 7.32422 15.4297 7.32422Z" fill="#B8C7E6"/>
<path d="M7.37305 5.34674V8.05666C7.37305 8.46677 7.69526 8.78908 8.10547 8.78908H16.8945C17.3047 8.78908 17.627 8.46677 17.627 8.05666V5.34674L12.5 3.8819L7.37305 5.34674Z" fill="#B8C7E6"/>
<path d="M16.8945 8.78908C17.3047 8.78908 17.627 8.46677 17.627 8.05666V5.34674L12.5 3.8819V8.78908H16.8945Z" fill="#A3B4D9"/>
<path d="M18.916 3.41313L17.627 5.34673H7.37306L6.084 3.41313C5.64464 2.75396 5.586 1.88965 5.96686 1.17188C6.34772 0.454102 7.09484 0 7.91505 0H11.0352C11.4454 0 11.7676 0.322217 11.7676 0.732422C11.7676 1.14263 12.0898 1.46484 12.5 1.46484C12.9102 1.46484 13.2324 1.14263 13.2324 0.732422C13.2324 0.322217 13.5547 0 13.9649 0H17.085C17.9052 0 18.6523 0.454102 19.0332 1.17188C19.4141 1.88965 19.3554 2.73926 18.916 3.41313V3.41313Z" fill="#E5EDFF"/>
<path d="M17.627 5.34673L18.916 3.41313C19.3554 2.73926 19.414 1.8896 19.0332 1.17188C18.6523 0.45415 17.9052 0 17.085 0H13.9648C13.5546 0 13.2324 0.322217 13.2324 0.732422C13.2324 1.14263 12.9102 1.46484 12.5 1.46484V5.34673H17.627Z" fill="#CDD9F2"/>
</g>
<defs>
<clipPath id="clip0_2137_82499">
<rect width="25" height="25" fill="white"/>
</clipPath>
</defs>
</svg>
