<svg width="16" height="16" viewBox="0 0 16 16" fill="none" xmlns="http://www.w3.org/2000/svg">
<g clip-path="url(#clip0_2137_82499)">
<path d="M10.3438 10.7812V12.6562L8 13.6562L5.65625 12.6562V10.7812L8 9.84375L10.3438 10.7812Z" fill="#B8C7E6"/>
<path d="M10.3438 7.03125V8.90625L8 9.84375L5.65625 8.90625V7.03125L8 6.09375L10.3438 7.03125Z" fill="#B8C7E6"/>
<path d="M10.3438 8.90625V7.03125L8 6.09375V9.84375L10.3438 8.90625Z" fill="#A3B4D9"/>
<path d="M10.3438 12.6562V10.7812L8 9.84375V13.6562L10.3438 12.6562Z" fill="#A3B4D9"/>
<path d="M9.875 4.6875H6.125C5.86247 4.6875 5.65625 4.89372 5.65625 5.15625V7.03125H10.3438V5.15625C10.3438 4.89372 10.1375 4.6875 9.875 4.6875Z" fill="#CDD9F2"/>
<path d="M10.3438 12.6562V13.6562C10.3438 13.7781 10.2968 13.9 10.2031 13.9843L8.32809 15.8593C8.24375 15.9531 8.12188 16 8 16C7.87812 16 7.75625 15.9531 7.67191 15.8593L5.79691 13.9843C5.70316 13.9 5.65625 13.7781 5.65625 13.6562V12.6562H10.3438Z" fill="#CDD9F2"/>
<path d="M5.65625 8.90625H10.3438V10.7812H5.65625V8.90625Z" fill="#CDD9F2"/>
<path d="M8 16C8.12188 16 8.24375 15.9531 8.32809 15.8593L10.2031 13.9843C10.2968 13.9 10.3438 13.7781 10.3438 13.6562V12.6562H8V16Z" fill="#B8C7E6"/>
<path d="M8 8.90625H10.3438V10.7812H8V8.90625Z" fill="#B8C7E6"/>
<path d="M9.875 4.6875H8V7.03125H10.3438V5.15625C10.3438 4.89372 10.1375 4.6875 9.875 4.6875Z" fill="#B8C7E6"/>
<path d="M4.71875 3.42194V5.15628C4.71875 5.41875 4.92497 5.62503 5.1875 5.62503H10.8125C11.075 5.62503 11.2812 5.41875 11.2812 5.15628V3.42194L8 2.48444L4.71875 3.42194Z" fill="#B8C7E6"/>
<path d="M10.8125 5.62503C11.075 5.62503 11.2812 5.41875 11.2812 5.15628V3.42194L8 2.48444V5.62503H10.8125Z" fill="#A3B4D9"/>
<path d="M12.1063 2.18441L11.2813 3.42191H4.71876L3.89376 2.18441C3.61257 1.76253 3.57504 1.20937 3.81879 0.75C4.06254 0.290625 4.54069 0 5.06563 0H7.06251C7.32504 0 7.53126 0.206219 7.53126 0.46875C7.53126 0.731281 7.73747 0.9375 8.00001 0.9375C8.26254 0.9375 8.46876 0.731281 8.46876 0.46875C8.46876 0.206219 8.67497 0 8.93751 0H10.9344C11.4593 0 11.9374 0.290625 12.1812 0.75C12.425 1.20937 12.3874 1.75313 12.1063 2.18441V2.18441Z" fill="#E5EDFF"/>
<path d="M11.2813 3.42191L12.1063 2.18441C12.3874 1.75313 12.425 1.20934 12.1812 0.75C11.9375 0.290656 11.4593 0 10.9344 0H8.9375C8.67497 0 8.46875 0.206219 8.46875 0.46875C8.46875 0.731281 8.26253 0.9375 8 0.9375V3.42191H11.2813Z" fill="#CDD9F2"/>
</g>
<defs>
<clipPath id="clip0_2137_82499">
<rect width="16" height="16" fill="white"/>
</clipPath>
</defs>
</svg>
