<svg width="10" height="10" viewBox="0 0 10 10" fill="none" xmlns="http://www.w3.org/2000/svg">
<g clip-path="url(#clip0_2137_82499)">
<path d="M6.46484 6.73828V7.91016L5 8.53516L3.53516 7.91016V6.73828L5 6.15234L6.46484 6.73828Z" fill="#B8C7E6"/>
<path d="M6.46484 4.39453V5.56641L5 6.15234L3.53516 5.56641V4.39453L5 3.80859L6.46484 4.39453Z" fill="#B8C7E6"/>
<path d="M6.46484 5.56641V4.39453L5 3.80859V6.15234L6.46484 5.56641Z" fill="#A3B4D9"/>
<path d="M6.46484 7.91016V6.73828L5 6.15234V8.53516L6.46484 7.91016Z" fill="#A3B4D9"/>
<path d="M6.17188 2.92969H3.82812C3.66404 2.92969 3.53516 3.05857 3.53516 3.22266V4.39453H6.46484V3.22266C6.46484 3.05857 6.33596 2.92969 6.17188 2.92969Z" fill="#CDD9F2"/>
<path d="M6.46484 7.91016V8.53516C6.46484 8.61133 6.43553 8.6875 6.37693 8.74021L5.20506 9.91209C5.15234 9.9707 5.07617 10 5 10C4.92383 10 4.84766 9.9707 4.79494 9.91209L3.62307 8.74021C3.56447 8.6875 3.53516 8.61133 3.53516 8.53516V7.91016H6.46484Z" fill="#CDD9F2"/>
<path d="M3.53516 5.56641H6.46484V6.73828H3.53516V5.56641Z" fill="#CDD9F2"/>
<path d="M5 10C5.07617 10 5.15234 9.9707 5.20506 9.91209L6.37693 8.74021C6.43553 8.6875 6.46484 8.61133 6.46484 8.53516V7.91016H5V10Z" fill="#B8C7E6"/>
<path d="M5 5.56641H6.46484V6.73828H5V5.56641Z" fill="#B8C7E6"/>
<path d="M6.17188 2.92969H5V4.39453H6.46484V3.22266C6.46484 3.05857 6.33596 2.92969 6.17188 2.92969Z" fill="#B8C7E6"/>
<path d="M2.94922 2.13867V3.22264C2.94922 3.38668 3.07811 3.51561 3.24219 3.51561H6.75781C6.92189 3.51561 7.05078 3.38668 7.05078 3.22264V2.13867L5 1.55273L2.94922 2.13867Z" fill="#B8C7E6"/>
<path d="M6.75781 3.51561C6.92189 3.51561 7.05078 3.38668 7.05078 3.22264V2.13867L5 1.55273V3.51561H6.75781Z" fill="#A3B4D9"/>
<path d="M7.56642 1.36525L7.05079 2.13869H2.94923L2.43361 1.36525C2.25786 1.10158 2.23441 0.755859 2.38675 0.46875C2.53909 0.181641 2.83794 0 3.16603 0H4.41407C4.57816 0 4.70704 0.128887 4.70704 0.292969C4.70704 0.457051 4.83593 0.585938 5.00001 0.585938C5.16409 0.585938 5.29298 0.457051 5.29298 0.292969C5.29298 0.128887 5.42187 0 5.58595 0H6.834C7.16208 0 7.46091 0.181641 7.61327 0.46875C7.76564 0.755859 7.74216 1.0957 7.56642 1.36525V1.36525Z" fill="#E5EDFF"/>
<path d="M7.05078 2.13869L7.56641 1.36525C7.74215 1.0957 7.76561 0.75584 7.61327 0.46875C7.46092 0.18166 7.16207 0 6.83399 0H5.58594C5.42186 0 5.29297 0.128887 5.29297 0.292969C5.29297 0.457051 5.16408 0.585938 5 0.585938V2.13869H7.05078Z" fill="#CDD9F2"/>
</g>
<defs>
<clipPath id="clip0_2137_82499">
<rect width="10" height="10" fill="white"/>
</clipPath>
</defs>
</svg>
