<svg width="30" height="24" viewBox="0 0 30 24" fill="none" xmlns="http://www.w3.org/2000/svg">
<path d="M8.51172 9.66589C10.2127 5.8016 17.8533 3.70303 22.2543 9.31193" stroke="#32404F" stroke-width="0.637602"/>
<path d="M15.4997 6.13261L15.4591 6.12885L15.4186 6.13328C11.442 6.56788 8.92057 8.49834 7.91363 11.0635C6.91266 13.6135 7.4488 16.6907 9.37129 19.3504C9.46581 19.4812 9.48962 19.6546 9.37792 19.9331C9.26268 20.2205 9.02557 20.5521 8.70878 20.9047C8.39643 21.2523 8.02966 21.5953 7.68063 21.908C7.56166 22.0147 7.44244 22.1197 7.3282 22.2204C7.11686 22.4066 6.92257 22.5778 6.77845 22.716C6.37137 23.1063 6.0087 23.2756 5.69492 23.3158C5.38443 23.3556 5.07188 23.2756 4.74916 23.073C4.0814 22.6538 3.43913 21.7513 2.88603 20.5999C2.34043 19.4641 1.91086 18.1486 1.6375 16.9806C1.35996 15.7949 1.258 14.8223 1.3247 14.3512L1.32869 14.323V14.2946C1.32869 6.44654 7.33893 0.403876 15.4625 0.403876C19.537 0.403876 23.0664 1.83872 25.5758 4.32029C28.0844 6.80101 29.5963 10.35 29.5963 14.6213C29.5963 18.9875 27.4879 21.9741 26.0085 23.0939C25.7938 23.2564 25.4059 23.2748 24.8019 23.0218C24.224 22.7798 23.5749 22.3383 22.9775 21.8311C22.3819 21.3254 21.862 20.7752 21.5376 20.3359C21.3748 20.1155 21.2777 19.945 21.2365 19.835C23.9633 16.0266 24.0577 12.7198 22.633 10.2759C21.2239 7.85898 18.3913 6.40003 15.4997 6.13261Z" stroke="#32404F" stroke-width="0.807629"/>
<path d="M15.4997 6.13261L15.4591 6.12885L15.4186 6.13328C11.442 6.56789 8.92057 8.49834 7.91363 11.0635C6.91266 13.6135 7.4488 16.6907 9.37129 19.3504C9.46581 19.4812 9.48962 19.6546 9.37792 19.9331C9.26268 20.2205 9.02557 20.5521 8.70878 20.9047C8.39643 21.2523 8.02966 21.5953 7.68063 21.908C7.56165 22.0147 7.44242 22.1197 7.32818 22.2204C7.11684 22.4066 6.92256 22.5778 6.77845 22.716C6.37137 23.1064 6.0087 23.2756 5.69492 23.3158C5.38443 23.3556 5.07188 23.2756 4.74916 23.073C4.0814 22.6538 3.43913 21.7513 2.88603 20.5999C2.34043 19.4641 1.91086 18.1486 1.6375 16.9806C1.35996 15.7949 1.258 14.8223 1.3247 14.3512L1.32869 14.323V14.2946C1.32869 6.44654 7.33894 0.403876 15.4625 0.403876C19.537 0.403876 23.0664 1.83872 25.5758 4.32029C28.0844 6.80101 29.5963 10.35 29.5963 14.6213C29.5963 18.9875 27.4879 21.9741 26.0085 23.0939C25.7938 23.2564 25.4059 23.2748 24.8019 23.0218C24.224 22.7798 23.5749 22.3383 22.9775 21.8311C22.3819 21.3254 21.862 20.7752 21.5376 20.3359C21.3748 20.1155 21.2777 19.945 21.2365 19.835C23.9633 16.0266 24.0577 12.7198 22.633 10.2759C21.2239 7.85898 18.3913 6.40003 15.4997 6.13261Z" stroke="#32404F" stroke-width="0.807629"/>
<line y1="-0.425068" x2="5.47897" y2="-0.425068" transform="matrix(-0.466409 -0.884569 0.899813 -0.436276 12.147 6.75256)" stroke="#32404F" stroke-width="0.850136"/>
<line y1="-0.425068" x2="5.2971" y2="-0.425068" transform="matrix(0.611069 -0.791577 0.815438 0.578845 20.1543 7.40607)" stroke="#32404F" stroke-width="0.850136"/>
<line y1="-0.425068" x2="5.41771" y2="-0.425068" transform="matrix(-0.985293 -0.170873 0.18533 -0.982676 7.48975 11.4901)" stroke="#32404F" stroke-width="0.850136"/>
<line y1="-0.425068" x2="5.4088" y2="-0.425068" transform="matrix(-0.923922 0.382581 -0.410602 -0.911815 28.3877 9.80206)" stroke="#32404F" stroke-width="0.850136"/>
<ellipse cx="15.6682" cy="13.1239" rx="4.42943" ry="4.24752" fill="#687D99"/>
<path d="M5.40409 18.0048C4.48585 18.172 3.97084 16.9779 4.74399 16.4743L11.6791 11.957C12.1264 11.6657 12.7428 11.854 12.9554 12.347L14.2569 15.3646C14.4695 15.8576 14.1719 16.4084 13.6407 16.5051L5.40409 18.0048Z" fill="#687D99"/>
</svg>
