<svg width="31" height="24" viewBox="0 0 31 24" fill="none" xmlns="http://www.w3.org/2000/svg">
<path d="M7.71777 9.66333C9.40778 5.80001 16.9989 3.70197 21.3715 9.30946" stroke="#32404F" stroke-width="0.607431"/>
<path d="M14.6599 6.15L14.621 6.14638L14.5821 6.15065C10.6348 6.58476 8.13635 8.5123 7.13921 11.0684C6.14788 13.6096 6.67798 16.6785 8.58509 19.3335C8.68443 19.4718 8.70652 19.6535 8.59397 19.9359C8.47817 20.2265 8.24079 20.5601 7.92562 20.913C7.61464 21.2612 7.24966 21.6047 6.90277 21.9175C6.78425 22.0243 6.66564 22.1295 6.55207 22.2302C6.34232 22.4162 6.14979 22.5869 6.00686 22.7248C5.60044 23.117 5.23715 23.2881 4.92158 23.3288C4.60926 23.3691 4.29538 23.288 3.97229 23.0839C3.30462 22.6621 2.66459 21.7559 2.11459 20.6038C1.57176 19.4667 1.14452 18.15 0.872656 16.9812C0.596859 15.7955 0.494664 14.8198 0.561539 14.3446L0.565293 14.3179V14.291C0.565293 6.43197 6.54649 0.384768 14.6242 0.384768C18.6756 0.384768 22.1861 1.8204 24.6829 4.30484C27.179 6.78863 28.6831 10.342 28.6831 14.6176C28.6831 18.9896 26.5851 21.9812 25.111 23.1039C24.8907 23.2716 24.4987 23.2872 23.8976 23.0339C23.3214 22.791 22.6751 22.3486 22.0808 21.8408C21.4883 21.3346 20.9708 20.7836 20.6474 20.343C20.4829 20.1189 20.3846 19.9448 20.3439 19.8323C20.3432 19.8304 20.3425 19.8286 20.3419 19.8268C23.054 16.02 23.146 12.72 21.7346 10.2838C20.3384 7.87404 17.5298 6.41709 14.6599 6.15Z" stroke="#32404F" stroke-width="0.769413"/>
<line y1="-0.404954" x2="5.4702" y2="-0.404954" transform="matrix(-0.464136 -0.885764 0.89874 -0.438482 11.3281 6.75085)" stroke="#32404F" stroke-width="0.809909"/>
<line y1="-0.404954" x2="5.28349" y2="-0.404954" transform="matrix(0.608681 -0.793415 0.813729 0.581244 19.2822 7.40411)" stroke="#32404F" stroke-width="0.809909"/>
<line y1="-0.404954" x2="5.38367" y2="-0.404954" transform="matrix(-0.985113 -0.17191 0.184217 -0.982886 6.70215 11.4873)" stroke="#32404F" stroke-width="0.809909"/>
<line y1="-0.404954" x2="5.37876" y2="-0.404954" transform="matrix(-0.923075 0.384621 -0.408476 -0.912769 27.4648 9.7995)" stroke="#32404F" stroke-width="0.809909"/>
<ellipse cx="14.8285" cy="13.1204" rx="4.40079" ry="4.24645" fill="#687D99"/>
<path d="M25.6925 15.9418C26.4744 16.3474 26.1099 17.5316 25.2253 17.4595L16.695 16.7646C16.1833 16.723 15.8459 16.2275 15.9964 15.7386L16.9865 12.5223C17.137 12.0334 17.6999 11.796 18.1523 12.0306L25.6925 15.9418Z" fill="#687D99"/>
</svg>
