<svg width="30" height="24" viewBox="0 0 30 24" fill="none" xmlns="http://www.w3.org/2000/svg">
<path d="M7.83789 9.66437C9.58977 5.8007 17.4588 3.70247 21.9915 9.31047" stroke="#32404F" stroke-width="0.486982"/>
<path d="M15.0242 6.2264L14.9941 6.2237L14.9641 6.22689C10.9035 6.65771 8.34471 8.5672 7.32318 11.0936C6.30559 13.6102 6.84812 16.656 8.81291 19.2949C8.9359 19.4601 8.95268 19.6678 8.83101 19.9624C8.70615 20.2646 8.45301 20.6061 8.12391 20.9616C7.79845 21.3132 7.41738 21.6591 7.05713 21.9724C6.93265 22.0807 6.80888 22.1866 6.69084 22.2876C6.47453 22.4726 6.27747 22.6412 6.13055 22.7779C5.70034 23.1784 5.30599 23.3623 4.95171 23.4064C4.59954 23.4502 4.25118 23.3605 3.90225 23.1478C3.18808 22.7125 2.51659 21.7886 1.94557 20.6346C1.38013 19.4919 0.935733 18.1701 0.653031 16.9976C0.36693 15.8109 0.258204 14.8249 0.329407 14.3367L0.332638 14.3146V14.2922C0.332638 6.40034 6.5631 0.308422 14.9966 0.308422C19.2215 0.308422 22.8854 1.75329 25.4912 4.25494C28.0958 6.75533 29.6606 10.3278 29.6606 14.6189C29.6606 19.0105 27.4767 22.0244 25.9263 23.1635C25.6543 23.3634 25.2006 23.3608 24.5709 23.1047C23.9609 22.8568 23.2828 22.4079 22.6634 21.8973C22.0452 21.3877 21.504 20.8321 21.1643 20.3857C20.992 20.1593 20.8853 19.9786 20.8395 19.8567C20.8335 19.8407 20.8292 19.8275 20.8261 19.8166L20.8298 19.8116C23.6454 16.0117 23.7353 12.731 22.2867 10.3188C20.8554 7.93546 17.9736 6.49121 15.0242 6.2264Z" stroke="#32404F" stroke-width="0.616844"/>
<line y1="-0.324655" x2="5.51434" y2="-0.324655" transform="matrix(-0.477277 -0.878753 0.904781 -0.425877 11.5791 6.75122)" stroke="#32404F" stroke-width="0.64931"/>
<line y1="-0.324655" x2="5.35627" y2="-0.324655" transform="matrix(0.622392 -0.782706 0.823414 0.567441 19.8271 7.4046)" stroke="#32404F" stroke-width="0.64931"/>
<line y1="-0.324655" x2="5.57505" y2="-0.324655" transform="matrix(-0.986122 -0.166024 0.190703 -0.981648 6.78418 11.4882)" stroke="#32404F" stroke-width="0.64931"/>
<line y1="-0.324655" x2="5.54706" y2="-0.324655" transform="matrix(-0.927837 0.372985 -0.42079 -0.907158 28.3086 9.80029)" stroke="#32404F" stroke-width="0.64931"/>
<ellipse cx="15.2064" cy="13.1217" rx="4.56191" ry="4.24683" fill="#687D99"/>
<path d="M25.2763 7.27704C25.9701 7.09122 26.4605 7.95823 25.9033 8.38561L18.2061 14.2895C17.8848 14.5359 17.3973 14.4333 17.1956 14.0768L15.3083 10.7399C15.1067 10.3835 15.2917 9.95119 15.6918 9.84405L25.2763 7.27704Z" fill="#687D99"/>
</svg>
