<svg width="30" height="25" viewBox="0 0 30 25" fill="none" xmlns="http://www.w3.org/2000/svg">
<path d="M8.51172 10.6658C10.2127 6.80154 17.8533 4.70297 22.2543 10.3119" stroke="#32404F" stroke-width="0.637602"/>
<path d="M15.4997 7.13254L15.4591 7.12879L15.4186 7.13322C11.442 7.56782 8.92057 9.49828 7.91363 12.0634C6.91266 14.6134 7.4488 17.6906 9.37129 20.3504C9.46581 20.4811 9.48962 20.6545 9.37792 20.9331C9.26268 21.2205 9.02557 21.5521 8.70878 21.9046C8.39643 22.2522 8.02966 22.5952 7.68063 22.908C7.56166 23.0146 7.44244 23.1196 7.3282 23.2203C7.11686 23.4065 6.92257 23.5777 6.77845 23.7159C6.37137 24.1063 6.0087 24.2755 5.69492 24.3157C5.38443 24.3556 5.07188 24.2756 4.74916 24.073C4.0814 23.6537 3.43913 22.7513 2.88603 21.5999C2.34043 20.4641 1.91086 19.1485 1.6375 17.9806C1.35996 16.7948 1.258 15.8222 1.3247 15.3512L1.32869 15.323V15.2945C1.32869 7.44648 7.33893 1.40381 15.4625 1.40381C19.537 1.40381 23.0664 2.83865 25.5758 5.32023C28.0844 7.80094 29.5963 11.3499 29.5963 15.6213C29.5963 19.9874 27.4879 22.9741 26.0085 24.0938C25.7938 24.2563 25.4059 24.2747 24.8019 24.0218C24.224 23.7797 23.5749 23.3383 22.9775 22.831C22.3819 22.3253 21.862 21.7751 21.5376 21.3359C21.3748 21.1155 21.2777 20.9449 21.2365 20.8349C23.9633 17.0265 24.0577 13.7197 22.633 11.2759C21.2239 8.85892 18.3913 7.39997 15.4997 7.13254Z" stroke="#32404F" stroke-width="0.807629"/>
<path d="M15.4997 7.13254L15.4591 7.12879L15.4186 7.13322C11.442 7.56782 8.92057 9.49828 7.91363 12.0634C6.91266 14.6134 7.4488 17.6906 9.37129 20.3504C9.46581 20.4811 9.48962 20.6545 9.37792 20.9331C9.26268 21.2205 9.02557 21.5521 8.70878 21.9046C8.39643 22.2522 8.02966 22.5952 7.68063 22.908C7.56165 23.0146 7.44242 23.1197 7.32818 23.2203C7.11684 23.4065 6.92256 23.5777 6.77845 23.7159C6.37137 24.1063 6.0087 24.2755 5.69492 24.3157C5.38443 24.3556 5.07188 24.2756 4.74916 24.073C4.0814 23.6537 3.43913 22.7513 2.88603 21.5999C2.34043 20.4641 1.91086 19.1485 1.6375 17.9806C1.35996 16.7948 1.258 15.8222 1.3247 15.3512L1.32869 15.323V15.2945C1.32869 7.44648 7.33894 1.40381 15.4625 1.40381C19.537 1.40381 23.0664 2.83865 25.5758 5.32023C28.0844 7.80094 29.5963 11.3499 29.5963 15.6213C29.5963 19.9874 27.4879 22.9741 26.0085 24.0938C25.7938 24.2563 25.4059 24.2747 24.8019 24.0218C24.224 23.7797 23.5749 23.3383 22.9775 22.831C22.3819 22.3253 21.862 21.7751 21.5376 21.3359C21.3748 21.1155 21.2777 20.9449 21.2365 20.8349C23.9633 17.0265 24.0577 13.7197 22.633 11.2759C21.2239 8.85892 18.3913 7.39997 15.4997 7.13254Z" stroke="#32404F" stroke-width="0.807629"/>
<line y1="-0.425068" x2="5.47897" y2="-0.425068" transform="matrix(-0.466409 -0.884569 0.899813 -0.436276 12.1475 7.7525)" stroke="#32404F" stroke-width="0.850136"/>
<line y1="-0.425068" x2="5.2971" y2="-0.425068" transform="matrix(0.611069 -0.791577 0.815438 0.578845 20.1543 8.40601)" stroke="#32404F" stroke-width="0.850136"/>
<line y1="-0.425068" x2="5.41771" y2="-0.425068" transform="matrix(-0.985293 -0.170873 0.18533 -0.982676 7.49023 12.4901)" stroke="#32404F" stroke-width="0.850136"/>
<line y1="-0.425068" x2="5.4088" y2="-0.425068" transform="matrix(-0.923922 0.382581 -0.410602 -0.911815 28.3877 10.802)" stroke="#32404F" stroke-width="0.850136"/>
<ellipse cx="15.6677" cy="14.1239" rx="4.42943" ry="4.24752" fill="#687D99"/>
<path d="M14.9401 4.75508C15.1503 3.84571 16.4507 3.84571 16.6069 4.75508L18.0084 12.9121C18.0988 13.4383 17.6817 13.9296 17.1448 13.9296H13.8586C13.3216 13.9296 12.9337 13.4383 13.0553 12.9121L14.9401 4.75508Z" fill="#687D99"/>
</svg>
