<svg width="43" height="16" viewBox="0 0 43 16" fill="none" xmlns="http://www.w3.org/2000/svg">
<path d="M32.9409 14.0679C32.7619 14.0679 32.6043 14.0553 32.4683 14.0303C32.3322 14.0052 32.2158 13.9712 32.1191 13.9282V13.1494C32.2337 13.1852 32.3573 13.2121 32.4897 13.23C32.6222 13.2515 32.7655 13.2622 32.9194 13.2622C33.12 13.2622 33.3044 13.2228 33.4727 13.144C33.641 13.0653 33.7752 12.931 33.8755 12.7412C33.9757 12.5514 34.0259 12.29 34.0259 11.957V4.14746H34.9443V11.8872C34.9443 12.3778 34.862 12.7842 34.6973 13.1064C34.5361 13.4287 34.3052 13.6686 34.0044 13.8262C33.7072 13.9873 33.3527 14.0679 32.9409 14.0679ZM39.0962 6.0166C39.798 6.0166 40.319 6.17415 40.6592 6.48926C40.9993 6.80436 41.1694 7.30745 41.1694 7.99854V12H40.5195L40.3477 11.1299H40.3047C40.14 11.3447 39.9681 11.5256 39.7891 11.6724C39.61 11.8156 39.4023 11.9248 39.166 12C38.9333 12.0716 38.6468 12.1074 38.3066 12.1074C37.9486 12.1074 37.6299 12.0448 37.3506 11.9194C37.0749 11.7941 36.8564 11.6043 36.6953 11.3501C36.5378 11.0959 36.459 10.7736 36.459 10.3833C36.459 9.79606 36.6917 9.34489 37.1572 9.02979C37.6227 8.71468 38.3317 8.54281 39.2842 8.51416L40.2993 8.47119V8.11133C40.2993 7.60286 40.1901 7.24658 39.9717 7.04248C39.7533 6.83838 39.4453 6.73633 39.0479 6.73633C38.7399 6.73633 38.4463 6.78109 38.167 6.87061C37.8877 6.96012 37.6227 7.06576 37.3721 7.1875L37.0981 6.51074C37.3631 6.37467 37.6675 6.2583 38.0112 6.16162C38.355 6.06494 38.7166 6.0166 39.0962 6.0166ZM40.2886 9.09961L39.3916 9.13721C38.6576 9.16585 38.1401 9.28581 37.8394 9.49707C37.5386 9.70833 37.3882 10.0073 37.3882 10.394C37.3882 10.7306 37.4902 10.9795 37.6943 11.1406C37.8984 11.3018 38.1688 11.3823 38.5054 11.3823C39.0282 11.3823 39.4561 11.2373 39.7891 10.9473C40.1221 10.6572 40.2886 10.2222 40.2886 9.64209V9.09961Z" fill="black"/>
<rect x="0.5" y="1.5" width="14" height="14" rx="7" stroke="#32404F"/>
</svg>
