<svg width="307" height="307" viewBox="0 0 307 307" fill="none" xmlns="http://www.w3.org/2000/svg">
<rect x="0.5" y="0.5" width="306" height="306" rx="4.5" fill="white" stroke="#E1E5EB"/>
<path d="M47.4121 32.0303H47.9004C48.3789 32.0303 48.7321 31.9505 48.96 31.791C49.1878 31.6315 49.3018 31.3809 49.3018 31.0391C49.3018 30.7005 49.1846 30.4596 48.9502 30.3164C48.7191 30.1732 48.3594 30.1016 47.8711 30.1016H47.4121V32.0303ZM47.4121 33.2607V36H45.8984V28.8613H47.9785C48.9486 28.8613 49.6663 29.0387 50.1318 29.3936C50.5973 29.7451 50.8301 30.2806 50.8301 31C50.8301 31.4199 50.7145 31.7943 50.4834 32.123C50.2523 32.4486 49.9251 32.7041 49.502 32.8896C50.5762 34.4945 51.276 35.5312 51.6016 36H49.9219L48.2178 33.2607H47.4121ZM52.3193 29.1299C52.3193 28.6449 52.5895 28.4023 53.1299 28.4023C53.6702 28.4023 53.9404 28.6449 53.9404 29.1299C53.9404 29.361 53.8721 29.5417 53.7354 29.6719C53.6019 29.7988 53.4001 29.8623 53.1299 29.8623C52.5895 29.8623 52.3193 29.6182 52.3193 29.1299ZM53.8721 36H52.3828V30.541H53.8721V36ZM59.248 34.3789C59.248 34.9388 59.0527 35.3652 58.6621 35.6582C58.2747 35.9512 57.6937 36.0977 56.9189 36.0977C56.5218 36.0977 56.1833 36.07 55.9033 36.0146C55.6234 35.9626 55.3613 35.8844 55.1172 35.7803V34.5498C55.3939 34.68 55.7048 34.7891 56.0498 34.877C56.3981 34.9648 56.7041 35.0088 56.9678 35.0088C57.5081 35.0088 57.7783 34.8525 57.7783 34.54C57.7783 34.4229 57.7425 34.3285 57.6709 34.2568C57.5993 34.182 57.4756 34.099 57.2998 34.0078C57.124 33.9134 56.8896 33.8044 56.5967 33.6807C56.1768 33.5049 55.8675 33.3421 55.6689 33.1924C55.4736 33.0426 55.3304 32.8717 55.2393 32.6797C55.1514 32.4844 55.1074 32.2451 55.1074 31.9619C55.1074 31.4769 55.2946 31.1025 55.6689 30.8389C56.0465 30.5719 56.5804 30.4385 57.2705 30.4385C57.9281 30.4385 58.5677 30.5817 59.1895 30.8682L58.7402 31.9424C58.4668 31.8252 58.2113 31.7292 57.9736 31.6543C57.736 31.5794 57.4935 31.542 57.2461 31.542C56.8066 31.542 56.5869 31.6608 56.5869 31.8984C56.5869 32.0319 56.6569 32.1475 56.7969 32.2451C56.9401 32.3428 57.251 32.4876 57.7295 32.6797C58.1559 32.8522 58.4684 33.0133 58.667 33.1631C58.8656 33.3128 59.012 33.4854 59.1064 33.6807C59.2008 33.876 59.248 34.1087 59.248 34.3789ZM60.3467 29.1299C60.3467 28.6449 60.6169 28.4023 61.1572 28.4023C61.6976 28.4023 61.9678 28.6449 61.9678 29.1299C61.9678 29.361 61.8994 29.5417 61.7627 29.6719C61.6292 29.7988 61.4274 29.8623 61.1572 29.8623C60.6169 29.8623 60.3467 29.6182 60.3467 29.1299ZM61.8994 36H60.4102V30.541H61.8994V36ZM64.8975 33.0312L65.5469 32.2012L67.0752 30.541H68.7549L66.5869 32.9092L68.8867 36H67.168L65.5957 33.7881L64.9561 34.3008V36H63.4668V28.4023H64.9561V31.791L64.8779 33.0312H64.8975ZM70.8545 33.2607C70.8545 33.8011 70.9424 34.2096 71.1182 34.4863C71.2972 34.763 71.5869 34.9014 71.9873 34.9014C72.3844 34.9014 72.6693 34.7646 72.8418 34.4912C73.0176 34.2145 73.1055 33.8044 73.1055 33.2607C73.1055 32.7204 73.0176 32.3151 72.8418 32.0449C72.666 31.7747 72.3779 31.6396 71.9775 31.6396C71.5804 31.6396 71.2939 31.7747 71.1182 32.0449C70.9424 32.3118 70.8545 32.7171 70.8545 33.2607ZM74.6289 33.2607C74.6289 34.1494 74.3945 34.8444 73.9258 35.3457C73.457 35.847 72.8044 36.0977 71.9678 36.0977C71.4437 36.0977 70.9814 35.9837 70.5811 35.7559C70.1807 35.5247 69.873 35.1943 69.6582 34.7646C69.4434 34.335 69.3359 33.8337 69.3359 33.2607C69.3359 32.3688 69.5687 31.6755 70.0342 31.1807C70.4997 30.6859 71.154 30.4385 71.9971 30.4385C72.5212 30.4385 72.9834 30.5524 73.3838 30.7803C73.7842 31.0081 74.0918 31.3353 74.3066 31.7617C74.5215 32.1882 74.6289 32.6878 74.6289 33.2607ZM80.7471 36H79.2578V32.8115C79.2578 32.4176 79.1911 32.123 79.0576 31.9277C78.9274 31.7292 78.7207 31.6299 78.4375 31.6299C78.0566 31.6299 77.7799 31.7699 77.6074 32.0498C77.4349 32.3298 77.3486 32.7904 77.3486 33.4316V36H75.8594V30.541H76.9971L77.1973 31.2393H77.2803C77.4268 30.9886 77.6383 30.7933 77.915 30.6533C78.1917 30.5101 78.5091 30.4385 78.8672 30.4385C79.6842 30.4385 80.2376 30.7054 80.5273 31.2393H80.6592C80.8057 30.9854 81.0205 30.7884 81.3037 30.6484C81.5902 30.5085 81.9124 30.4385 82.2705 30.4385C82.889 30.4385 83.3561 30.598 83.6719 30.917C83.9909 31.2327 84.1504 31.7406 84.1504 32.4404V36H82.6562V32.8115C82.6562 32.4176 82.5895 32.123 82.4561 31.9277C82.3258 31.7292 82.1191 31.6299 81.8359 31.6299C81.4714 31.6299 81.1979 31.7601 81.0156 32.0205C80.8366 32.2809 80.7471 32.6943 80.7471 33.2607V36ZM89.1504 36L88.8623 35.2578H88.8232C88.5726 35.5736 88.3138 35.7933 88.0469 35.917C87.7832 36.0374 87.4382 36.0977 87.0117 36.0977C86.4876 36.0977 86.0742 35.9479 85.7715 35.6484C85.472 35.349 85.3223 34.9225 85.3223 34.3691C85.3223 33.7897 85.5241 33.3633 85.9277 33.0898C86.3346 32.8132 86.9466 32.6602 87.7637 32.6309L88.7109 32.6016V32.3623C88.7109 31.8089 88.4277 31.5322 87.8613 31.5322C87.4251 31.5322 86.9124 31.6641 86.3232 31.9277L85.8301 30.9219C86.4583 30.5931 87.1549 30.4287 87.9199 30.4287C88.6523 30.4287 89.2139 30.5882 89.6045 30.9072C89.9951 31.2262 90.1904 31.7113 90.1904 32.3623V36H89.1504ZM88.7109 33.4707L88.1348 33.4902C87.7018 33.5033 87.3796 33.5814 87.168 33.7246C86.9564 33.8678 86.8506 34.0859 86.8506 34.3789C86.8506 34.7988 87.0915 35.0088 87.5732 35.0088C87.9183 35.0088 88.1934 34.9095 88.3984 34.7109C88.6068 34.5124 88.7109 34.2487 88.7109 33.9199V33.4707ZM94.0283 34.9111C94.2887 34.9111 94.6012 34.8542 94.9658 34.7402V35.8486C94.5947 36.0146 94.139 36.0977 93.5986 36.0977C93.0029 36.0977 92.5684 35.9479 92.2949 35.6484C92.0247 35.3457 91.8896 34.8932 91.8896 34.291V31.6592H91.1768V31.0293L91.9971 30.5312L92.4268 29.3789H93.3789V30.541H94.9072V31.6592H93.3789V34.291C93.3789 34.5026 93.4375 34.6589 93.5547 34.7598C93.6751 34.8607 93.833 34.9111 94.0283 34.9111ZM99.1211 30.4385C99.3229 30.4385 99.4906 30.4531 99.624 30.4824L99.5117 31.8789C99.3913 31.8464 99.2448 31.8301 99.0723 31.8301C98.597 31.8301 98.2259 31.9521 97.959 32.1963C97.6953 32.4404 97.5635 32.7822 97.5635 33.2217V36H96.0742V30.541H97.2021L97.4219 31.459H97.4951C97.6644 31.153 97.8923 30.9072 98.1787 30.7217C98.4684 30.5329 98.7826 30.4385 99.1211 30.4385ZM100.552 29.1299C100.552 28.6449 100.822 28.4023 101.362 28.4023C101.903 28.4023 102.173 28.6449 102.173 29.1299C102.173 29.361 102.104 29.5417 101.968 29.6719C101.834 29.7988 101.632 29.8623 101.362 29.8623C100.822 29.8623 100.552 29.6182 100.552 29.1299ZM102.104 36H100.615V30.541H102.104V36ZM104.79 33.2119L103.032 30.541H104.722L105.781 32.2793L106.851 30.541H108.54L106.763 33.2119L108.623 36H106.929L105.781 34.1299L104.629 36H102.939L104.79 33.2119ZM49.0469 41.2891H49.7617L47.7031 47H47.0469L45 41.2891H45.7031L47.0156 44.9844C47.1667 45.4089 47.2865 45.8216 47.375 46.2227C47.4688 45.8008 47.5911 45.3802 47.7422 44.9609L49.0469 41.2891ZM52.2617 47.0781C51.6289 47.0781 51.1289 46.8854 50.7617 46.5C50.3971 46.1146 50.2148 45.5794 50.2148 44.8945C50.2148 44.2044 50.3841 43.6562 50.7227 43.25C51.0638 42.8438 51.5208 42.6406 52.0938 42.6406C52.6302 42.6406 53.0547 42.8177 53.3672 43.1719C53.6797 43.5234 53.8359 43.9883 53.8359 44.5664V44.9766H50.8867C50.8997 45.4792 51.026 45.8607 51.2656 46.1211C51.5078 46.3815 51.8477 46.5117 52.2852 46.5117C52.7461 46.5117 53.2018 46.4154 53.6523 46.2227V46.8008C53.4232 46.8997 53.2057 46.9701 53 47.0117C52.7969 47.056 52.5508 47.0781 52.2617 47.0781ZM52.0859 43.1836C51.7422 43.1836 51.4674 43.2956 51.2617 43.5195C51.0586 43.7435 50.9388 44.0534 50.9023 44.4492H53.1406C53.1406 44.0404 53.0495 43.7279 52.8672 43.5117C52.6849 43.293 52.4245 43.1836 52.0859 43.1836ZM56.8984 42.6406C57.0885 42.6406 57.2591 42.6562 57.4102 42.6875L57.3203 43.2891C57.1432 43.25 56.987 43.2305 56.8516 43.2305C56.5052 43.2305 56.2083 43.3711 55.9609 43.6523C55.7161 43.9336 55.5938 44.2839 55.5938 44.7031V47H54.9453V42.7188H55.4805L55.5547 43.5117H55.5859C55.7448 43.2331 55.9362 43.0182 56.1602 42.8672C56.3841 42.7161 56.6302 42.6406 56.8984 42.6406ZM60.8438 47L60.7148 46.3906H60.6836C60.4701 46.6589 60.2565 46.8411 60.043 46.9375C59.832 47.0312 59.5677 47.0781 59.25 47.0781C58.8255 47.0781 58.4922 46.9688 58.25 46.75C58.0104 46.5312 57.8906 46.2201 57.8906 45.8164C57.8906 44.9518 58.582 44.4987 59.9648 44.457L60.6914 44.4336V44.168C60.6914 43.832 60.6185 43.5846 60.4727 43.4258C60.3294 43.2643 60.099 43.1836 59.7812 43.1836C59.4245 43.1836 59.0208 43.293 58.5703 43.5117L58.3711 43.0156C58.582 42.901 58.8125 42.8112 59.0625 42.7461C59.3151 42.681 59.5677 42.6484 59.8203 42.6484C60.3307 42.6484 60.7083 42.7617 60.9531 42.9883C61.2005 43.2148 61.3242 43.5781 61.3242 44.0781V47H60.8438ZM59.3789 46.543C59.7826 46.543 60.099 46.4323 60.3281 46.2109C60.5599 45.9896 60.6758 45.6797 60.6758 45.2812V44.8945L60.0273 44.9219C59.5117 44.9401 59.1393 45.0208 58.9102 45.1641C58.6836 45.3047 58.5703 45.5247 58.5703 45.8242C58.5703 46.0586 58.6406 46.237 58.7812 46.3594C58.9245 46.4818 59.1237 46.543 59.3789 46.543ZM58.6133 41.5586C58.6133 41.4232 58.6471 41.3255 58.7148 41.2656C58.7852 41.2057 58.8685 41.1758 58.9648 41.1758C59.0638 41.1758 59.1484 41.2057 59.2188 41.2656C59.2917 41.3255 59.3281 41.4232 59.3281 41.5586C59.3281 41.6888 59.2917 41.7865 59.2188 41.8516C59.1484 41.9141 59.0638 41.9453 58.9648 41.9453C58.8685 41.9453 58.7852 41.9141 58.7148 41.8516C58.6471 41.7865 58.6133 41.6888 58.6133 41.5586ZM60.1016 41.5586C60.1016 41.4232 60.1354 41.3255 60.2031 41.2656C60.2734 41.2057 60.3568 41.1758 60.4531 41.1758C60.5495 41.1758 60.6328 41.2057 60.7031 41.2656C60.776 41.3255 60.8125 41.4232 60.8125 41.5586C60.8125 41.6888 60.776 41.7865 60.7031 41.8516C60.6328 41.9141 60.5495 41.9453 60.4531 41.9453C60.3568 41.9453 60.2734 41.9141 60.2031 41.8516C60.1354 41.7865 60.1016 41.6888 60.1016 41.5586ZM65.5938 47V44.2305C65.5938 43.8815 65.5143 43.6211 65.3555 43.4492C65.1966 43.2773 64.9479 43.1914 64.6094 43.1914C64.1615 43.1914 63.8333 43.3125 63.625 43.5547C63.4167 43.7969 63.3125 44.1966 63.3125 44.7539V47H62.6641V42.7188H63.1914L63.2969 43.3047H63.3281C63.4609 43.0938 63.6471 42.931 63.8867 42.8164C64.1263 42.6992 64.3932 42.6406 64.6875 42.6406C65.2031 42.6406 65.5911 42.7656 65.8516 43.0156C66.112 43.263 66.2422 43.6602 66.2422 44.207V47H65.5938ZM70.4922 46.4258H70.457C70.1576 46.8607 69.7096 47.0781 69.1133 47.0781C68.5534 47.0781 68.1172 46.8867 67.8047 46.5039C67.4948 46.1211 67.3398 45.5768 67.3398 44.8711C67.3398 44.1654 67.4961 43.6172 67.8086 43.2266C68.1211 42.8359 68.556 42.6406 69.1133 42.6406C69.694 42.6406 70.1393 42.8516 70.4492 43.2734H70.5L70.4727 42.9648L70.457 42.6641V40.9219H71.1055V47H70.5781L70.4922 46.4258ZM69.1953 46.5352C69.638 46.5352 69.9583 46.4154 70.1562 46.1758C70.3568 45.9336 70.457 45.5443 70.457 45.0078V44.8711C70.457 44.2643 70.3555 43.832 70.1523 43.5742C69.9518 43.3138 69.6302 43.1836 69.1875 43.1836C68.8073 43.1836 68.5156 43.332 68.3125 43.6289C68.112 43.9232 68.0117 44.3398 68.0117 44.8789C68.0117 45.4258 68.112 45.8385 68.3125 46.1172C68.513 46.3958 68.8073 46.5352 69.1953 46.5352ZM74.293 47.0781C73.6602 47.0781 73.1602 46.8854 72.793 46.5C72.4284 46.1146 72.2461 45.5794 72.2461 44.8945C72.2461 44.2044 72.4154 43.6562 72.7539 43.25C73.0951 42.8438 73.5521 42.6406 74.125 42.6406C74.6615 42.6406 75.0859 42.8177 75.3984 43.1719C75.7109 43.5234 75.8672 43.9883 75.8672 44.5664V44.9766H72.918C72.931 45.4792 73.0573 45.8607 73.2969 46.1211C73.5391 46.3815 73.8789 46.5117 74.3164 46.5117C74.7773 46.5117 75.2331 46.4154 75.6836 46.2227V46.8008C75.4544 46.8997 75.237 46.9701 75.0312 47.0117C74.8281 47.056 74.582 47.0781 74.293 47.0781ZM74.1172 43.1836C73.7734 43.1836 73.4987 43.2956 73.293 43.5195C73.0898 43.7435 72.9701 44.0534 72.9336 44.4492H75.1719C75.1719 44.0404 75.0807 43.7279 74.8984 43.5117C74.7161 43.293 74.4557 43.1836 74.1172 43.1836ZM78.9297 42.6406C79.1198 42.6406 79.2904 42.6562 79.4414 42.6875L79.3516 43.2891C79.1745 43.25 79.0182 43.2305 78.8828 43.2305C78.5365 43.2305 78.2396 43.3711 77.9922 43.6523C77.7474 43.9336 77.625 44.2839 77.625 44.7031V47H76.9766V42.7188H77.5117L77.5859 43.5117H77.6172C77.776 43.2331 77.9674 43.0182 78.1914 42.8672C78.4154 42.7161 78.6615 42.6406 78.9297 42.6406ZM80.8516 42.7188V45.4961C80.8516 45.8451 80.931 46.1055 81.0898 46.2773C81.2487 46.4492 81.4974 46.5352 81.8359 46.5352C82.2839 46.5352 82.6107 46.4128 82.8164 46.168C83.0247 45.9232 83.1289 45.5234 83.1289 44.9688V42.7188H83.7773V47H83.2422L83.1484 46.4258H83.1133C82.9805 46.6367 82.7956 46.7982 82.5586 46.9102C82.3242 47.0221 82.056 47.0781 81.7539 47.0781C81.2331 47.0781 80.8424 46.9544 80.582 46.707C80.3242 46.4596 80.1953 46.0638 80.1953 45.5195V42.7188H80.8516ZM88.0859 47V44.2305C88.0859 43.8815 88.0065 43.6211 87.8477 43.4492C87.6888 43.2773 87.4401 43.1914 87.1016 43.1914C86.6536 43.1914 86.3255 43.3125 86.1172 43.5547C85.9089 43.7969 85.8047 44.1966 85.8047 44.7539V47H85.1562V42.7188H85.6836L85.7891 43.3047H85.8203C85.9531 43.0938 86.1393 42.931 86.3789 42.8164C86.6185 42.6992 86.8854 42.6406 87.1797 42.6406C87.6953 42.6406 88.0833 42.7656 88.3438 43.0156C88.6042 43.263 88.7344 43.6602 88.7344 44.207V47H88.0859ZM93.5742 42.7188V43.1289L92.7812 43.2227C92.8542 43.3138 92.9193 43.4336 92.9766 43.582C93.0339 43.7279 93.0625 43.8932 93.0625 44.0781C93.0625 44.4974 92.9193 44.832 92.6328 45.082C92.3464 45.332 91.9531 45.457 91.4531 45.457C91.3255 45.457 91.2057 45.4466 91.0938 45.4258C90.8177 45.5716 90.6797 45.7552 90.6797 45.9766C90.6797 46.0938 90.7279 46.181 90.8242 46.2383C90.9206 46.293 91.0859 46.3203 91.3203 46.3203H92.0781C92.5417 46.3203 92.8971 46.418 93.1445 46.6133C93.3945 46.8086 93.5195 47.0924 93.5195 47.4648C93.5195 47.9388 93.3294 48.2995 92.9492 48.5469C92.569 48.7969 92.0143 48.9219 91.2852 48.9219C90.7253 48.9219 90.293 48.8177 89.9883 48.6094C89.6862 48.401 89.5352 48.1068 89.5352 47.7266C89.5352 47.4661 89.6185 47.2409 89.7852 47.0508C89.9518 46.8607 90.1862 46.7318 90.4883 46.6641C90.3789 46.6146 90.2865 46.5378 90.2109 46.4336C90.138 46.3294 90.1016 46.2083 90.1016 46.0703C90.1016 45.9141 90.1432 45.7773 90.2266 45.6602C90.3099 45.543 90.4414 45.4297 90.6211 45.3203C90.3997 45.2292 90.2188 45.0742 90.0781 44.8555C89.9401 44.6367 89.8711 44.3867 89.8711 44.1055C89.8711 43.6367 90.0117 43.276 90.293 43.0234C90.5742 42.7682 90.9727 42.6406 91.4883 42.6406C91.7122 42.6406 91.9141 42.6667 92.0938 42.7188H93.5742ZM90.1602 47.7188C90.1602 47.9505 90.2578 48.1263 90.4531 48.2461C90.6484 48.3659 90.9284 48.4258 91.293 48.4258C91.8372 48.4258 92.2396 48.3438 92.5 48.1797C92.763 48.0182 92.8945 47.7982 92.8945 47.5195C92.8945 47.2878 92.8229 47.1263 92.6797 47.0352C92.5365 46.9466 92.2669 46.9023 91.8711 46.9023H91.0938C90.7995 46.9023 90.5703 46.9727 90.4062 47.1133C90.2422 47.2539 90.1602 47.4557 90.1602 47.7188ZM90.5117 44.0898C90.5117 44.3893 90.5964 44.6159 90.7656 44.7695C90.9349 44.9232 91.1706 45 91.4727 45C92.1055 45 92.4219 44.6927 92.4219 44.0781C92.4219 43.4349 92.1016 43.1133 91.4609 43.1133C91.1562 43.1133 90.9219 43.1953 90.7578 43.3594C90.5938 43.5234 90.5117 43.7669 90.5117 44.0898ZM99.4453 46.4258H99.4102C99.1107 46.8607 98.6628 47.0781 98.0664 47.0781C97.5065 47.0781 97.0703 46.8867 96.7578 46.5039C96.4479 46.1211 96.293 45.5768 96.293 44.8711C96.293 44.1654 96.4492 43.6172 96.7617 43.2266C97.0742 42.8359 97.5091 42.6406 98.0664 42.6406C98.6471 42.6406 99.0924 42.8516 99.4023 43.2734H99.4531L99.4258 42.9648L99.4102 42.6641V40.9219H100.059V47H99.5312L99.4453 46.4258ZM98.1484 46.5352C98.5911 46.5352 98.9115 46.4154 99.1094 46.1758C99.3099 45.9336 99.4102 45.5443 99.4102 45.0078V44.8711C99.4102 44.2643 99.3086 43.832 99.1055 43.5742C98.9049 43.3138 98.5833 43.1836 98.1406 43.1836C97.7604 43.1836 97.4688 43.332 97.2656 43.6289C97.0651 43.9232 96.9648 44.3398 96.9648 44.8789C96.9648 45.4258 97.0651 45.8385 97.2656 46.1172C97.4661 46.3958 97.7604 46.5352 98.1484 46.5352ZM103.246 47.0781C102.613 47.0781 102.113 46.8854 101.746 46.5C101.382 46.1146 101.199 45.5794 101.199 44.8945C101.199 44.2044 101.368 43.6562 101.707 43.25C102.048 42.8438 102.505 42.6406 103.078 42.6406C103.615 42.6406 104.039 42.8177 104.352 43.1719C104.664 43.5234 104.82 43.9883 104.82 44.5664V44.9766H101.871C101.884 45.4792 102.01 45.8607 102.25 46.1211C102.492 46.3815 102.832 46.5117 103.27 46.5117C103.73 46.5117 104.186 46.4154 104.637 46.2227V46.8008C104.408 46.8997 104.19 46.9701 103.984 47.0117C103.781 47.056 103.535 47.0781 103.246 47.0781ZM103.07 43.1836C102.727 43.1836 102.452 43.2956 102.246 43.5195C102.043 43.7435 101.923 44.0534 101.887 44.4492H104.125C104.125 44.0404 104.034 43.7279 103.852 43.5117C103.669 43.293 103.409 43.1836 103.07 43.1836ZM108.691 45.832C108.691 46.2305 108.543 46.5378 108.246 46.7539C107.949 46.9701 107.533 47.0781 106.996 47.0781C106.428 47.0781 105.986 46.9883 105.668 46.8086V46.207C105.874 46.3112 106.094 46.3932 106.328 46.4531C106.565 46.513 106.793 46.543 107.012 46.543C107.35 46.543 107.611 46.4896 107.793 46.3828C107.975 46.2734 108.066 46.1081 108.066 45.8867C108.066 45.7201 107.993 45.5781 107.848 45.4609C107.704 45.3411 107.423 45.2005 107.004 45.0391C106.605 44.8906 106.322 44.7617 106.152 44.6523C105.986 44.5404 105.861 44.4141 105.777 44.2734C105.697 44.1328 105.656 43.9648 105.656 43.7695C105.656 43.4206 105.798 43.1458 106.082 42.9453C106.366 42.7422 106.755 42.6406 107.25 42.6406C107.711 42.6406 108.161 42.7344 108.602 42.9219L108.371 43.4492C107.941 43.2721 107.552 43.1836 107.203 43.1836C106.896 43.1836 106.664 43.2318 106.508 43.3281C106.352 43.4245 106.273 43.5573 106.273 43.7266C106.273 43.8411 106.302 43.9388 106.359 44.0195C106.419 44.1003 106.514 44.1771 106.645 44.25C106.775 44.3229 107.025 44.4284 107.395 44.5664C107.902 44.7513 108.245 44.9375 108.422 45.125C108.602 45.3125 108.691 45.5482 108.691 45.832ZM114.438 44.0078H116.379V46.7852C116.077 46.8815 115.77 46.9544 115.457 47.0039C115.145 47.0534 114.783 47.0781 114.371 47.0781C113.507 47.0781 112.833 46.8216 112.352 46.3086C111.87 45.793 111.629 45.0716 111.629 44.1445C111.629 43.5508 111.747 43.0312 111.984 42.5859C112.224 42.138 112.568 41.7969 113.016 41.5625C113.464 41.3255 113.988 41.207 114.59 41.207C115.199 41.207 115.767 41.319 116.293 41.543L116.035 42.1289C115.52 41.9102 115.023 41.8008 114.547 41.8008C113.852 41.8008 113.309 42.0078 112.918 42.4219C112.527 42.8359 112.332 43.4102 112.332 44.1445C112.332 44.9154 112.52 45.5 112.895 45.8984C113.272 46.2969 113.826 46.4961 114.555 46.4961C114.951 46.4961 115.337 46.4505 115.715 46.3594V44.6016H114.438V44.0078ZM119.465 47.0781C118.832 47.0781 118.332 46.8854 117.965 46.5C117.6 46.1146 117.418 45.5794 117.418 44.8945C117.418 44.2044 117.587 43.6562 117.926 43.25C118.267 42.8438 118.724 42.6406 119.297 42.6406C119.833 42.6406 120.258 42.8177 120.57 43.1719C120.883 43.5234 121.039 43.9883 121.039 44.5664V44.9766H118.09C118.103 45.4792 118.229 45.8607 118.469 46.1211C118.711 46.3815 119.051 46.5117 119.488 46.5117C119.949 46.5117 120.405 46.4154 120.855 46.2227V46.8008C120.626 46.8997 120.409 46.9701 120.203 47.0117C120 47.056 119.754 47.0781 119.465 47.0781ZM119.289 43.1836C118.945 43.1836 118.671 43.2956 118.465 43.5195C118.262 43.7435 118.142 44.0534 118.105 44.4492H120.344C120.344 44.0404 120.253 43.7279 120.07 43.5117C119.888 43.293 119.628 43.1836 119.289 43.1836ZM124.91 45.832C124.91 46.2305 124.762 46.5378 124.465 46.7539C124.168 46.9701 123.751 47.0781 123.215 47.0781C122.647 47.0781 122.204 46.9883 121.887 46.8086V46.207C122.092 46.3112 122.312 46.3932 122.547 46.4531C122.784 46.513 123.012 46.543 123.23 46.543C123.569 46.543 123.829 46.4896 124.012 46.3828C124.194 46.2734 124.285 46.1081 124.285 45.8867C124.285 45.7201 124.212 45.5781 124.066 45.4609C123.923 45.3411 123.642 45.2005 123.223 45.0391C122.824 44.8906 122.54 44.7617 122.371 44.6523C122.204 44.5404 122.079 44.4141 121.996 44.2734C121.915 44.1328 121.875 43.9648 121.875 43.7695C121.875 43.4206 122.017 43.1458 122.301 42.9453C122.585 42.7422 122.974 42.6406 123.469 42.6406C123.93 42.6406 124.38 42.7344 124.82 42.9219L124.59 43.4492C124.16 43.2721 123.771 43.1836 123.422 43.1836C123.115 43.1836 122.883 43.2318 122.727 43.3281C122.57 43.4245 122.492 43.5573 122.492 43.7266C122.492 43.8411 122.521 43.9388 122.578 44.0195C122.638 44.1003 122.733 44.1771 122.863 44.25C122.993 44.3229 123.243 44.4284 123.613 44.5664C124.121 44.7513 124.464 44.9375 124.641 45.125C124.82 45.3125 124.91 45.5482 124.91 45.832ZM128.602 47L128.473 46.3906H128.441C128.228 46.6589 128.014 46.8411 127.801 46.9375C127.59 47.0312 127.326 47.0781 127.008 47.0781C126.583 47.0781 126.25 46.9688 126.008 46.75C125.768 46.5312 125.648 46.2201 125.648 45.8164C125.648 44.9518 126.34 44.4987 127.723 44.457L128.449 44.4336V44.168C128.449 43.832 128.376 43.5846 128.23 43.4258C128.087 43.2643 127.857 43.1836 127.539 43.1836C127.182 43.1836 126.779 43.293 126.328 43.5117L126.129 43.0156C126.34 42.901 126.57 42.8112 126.82 42.7461C127.073 42.681 127.326 42.6484 127.578 42.6484C128.089 42.6484 128.466 42.7617 128.711 42.9883C128.958 43.2148 129.082 43.5781 129.082 44.0781V47H128.602ZM127.137 46.543C127.54 46.543 127.857 46.4323 128.086 46.2109C128.318 45.9896 128.434 45.6797 128.434 45.2812V44.8945L127.785 44.9219C127.27 44.9401 126.897 45.0208 126.668 45.1641C126.441 45.3047 126.328 45.5247 126.328 45.8242C126.328 46.0586 126.398 46.237 126.539 46.3594C126.682 46.4818 126.882 46.543 127.137 46.543ZM135.879 47V44.2148C135.879 43.8737 135.806 43.6185 135.66 43.4492C135.514 43.2773 135.288 43.1914 134.98 43.1914C134.577 43.1914 134.279 43.3073 134.086 43.5391C133.893 43.7708 133.797 44.1276 133.797 44.6094V47H133.148V44.2148C133.148 43.8737 133.076 43.6185 132.93 43.4492C132.784 43.2773 132.556 43.1914 132.246 43.1914C131.84 43.1914 131.542 43.3138 131.352 43.5586C131.164 43.8008 131.07 44.1992 131.07 44.7539V47H130.422V42.7188H130.949L131.055 43.3047H131.086C131.208 43.0964 131.38 42.9336 131.602 42.8164C131.826 42.6992 132.076 42.6406 132.352 42.6406C133.021 42.6406 133.458 42.8828 133.664 43.3672H133.695C133.823 43.1432 134.008 42.9661 134.25 42.8359C134.492 42.7057 134.768 42.6406 135.078 42.6406C135.562 42.6406 135.924 42.7656 136.164 43.0156C136.406 43.263 136.527 43.6602 136.527 44.207V47H135.879ZM139.25 46.543C139.365 46.543 139.475 46.5352 139.582 46.5195C139.689 46.5013 139.773 46.4831 139.836 46.4648V46.9609C139.766 46.9948 139.661 47.0221 139.523 47.043C139.388 47.0664 139.266 47.0781 139.156 47.0781C138.328 47.0781 137.914 46.6419 137.914 45.7695V43.2227H137.301V42.9102L137.914 42.6406L138.188 41.7266H138.562V42.7188H139.805V43.2227H138.562V45.7422C138.562 46 138.624 46.1979 138.746 46.3359C138.868 46.474 139.036 46.543 139.25 46.543ZM142.648 42.6406C142.839 42.6406 143.009 42.6562 143.16 42.6875L143.07 43.2891C142.893 43.25 142.737 43.2305 142.602 43.2305C142.255 43.2305 141.958 43.3711 141.711 43.6523C141.466 43.9336 141.344 44.2839 141.344 44.7031V47H140.695V42.7188H141.23L141.305 43.5117H141.336C141.495 43.2331 141.686 43.0182 141.91 42.8672C142.134 42.7161 142.38 42.6406 142.648 42.6406ZM144.609 47H143.961V42.7188H144.609V47ZM143.906 41.5586C143.906 41.4102 143.943 41.3021 144.016 41.2344C144.089 41.1641 144.18 41.1289 144.289 41.1289C144.393 41.1289 144.483 41.1641 144.559 41.2344C144.634 41.3047 144.672 41.4128 144.672 41.5586C144.672 41.7044 144.634 41.8138 144.559 41.8867C144.483 41.957 144.393 41.9922 144.289 41.9922C144.18 41.9922 144.089 41.957 144.016 41.8867C143.943 41.8138 143.906 41.7044 143.906 41.5586ZM148.746 45.832C148.746 46.2305 148.598 46.5378 148.301 46.7539C148.004 46.9701 147.587 47.0781 147.051 47.0781C146.483 47.0781 146.04 46.9883 145.723 46.8086V46.207C145.928 46.3112 146.148 46.3932 146.383 46.4531C146.62 46.513 146.848 46.543 147.066 46.543C147.405 46.543 147.665 46.4896 147.848 46.3828C148.03 46.2734 148.121 46.1081 148.121 45.8867C148.121 45.7201 148.048 45.5781 147.902 45.4609C147.759 45.3411 147.478 45.2005 147.059 45.0391C146.66 44.8906 146.376 44.7617 146.207 44.6523C146.04 44.5404 145.915 44.4141 145.832 44.2734C145.751 44.1328 145.711 43.9648 145.711 43.7695C145.711 43.4206 145.853 43.1458 146.137 42.9453C146.421 42.7422 146.81 42.6406 147.305 42.6406C147.766 42.6406 148.216 42.7344 148.656 42.9219L148.426 43.4492C147.996 43.2721 147.607 43.1836 147.258 43.1836C146.951 43.1836 146.719 43.2318 146.562 43.3281C146.406 43.4245 146.328 43.5573 146.328 43.7266C146.328 43.8411 146.357 43.9388 146.414 44.0195C146.474 44.1003 146.569 44.1771 146.699 44.25C146.829 44.3229 147.079 44.4284 147.449 44.5664C147.957 44.7513 148.299 44.9375 148.477 45.125C148.656 45.3125 148.746 45.5482 148.746 45.832ZM150.453 47H149.805V42.7188H150.453V47ZM149.75 41.5586C149.75 41.4102 149.786 41.3021 149.859 41.2344C149.932 41.1641 150.023 41.1289 150.133 41.1289C150.237 41.1289 150.327 41.1641 150.402 41.2344C150.478 41.3047 150.516 41.4128 150.516 41.5586C150.516 41.7044 150.478 41.8138 150.402 41.8867C150.327 41.957 150.237 41.9922 150.133 41.9922C150.023 41.9922 149.932 41.957 149.859 41.8867C149.786 41.8138 149.75 41.7044 149.75 41.5586ZM152.469 44.8086C152.581 44.6497 152.751 44.4414 152.98 44.1836L154.363 42.7188H155.133L153.398 44.543L155.254 47H154.469L152.957 44.9766L152.469 45.3984V47H151.828V40.9219H152.469V44.1445C152.469 44.2878 152.458 44.5091 152.438 44.8086H152.469ZM159.727 44.8555C159.727 45.5534 159.551 46.099 159.199 46.4922C158.848 46.8828 158.362 47.0781 157.742 47.0781C157.359 47.0781 157.02 46.9883 156.723 46.8086C156.426 46.6289 156.197 46.3711 156.035 46.0352C155.874 45.6992 155.793 45.306 155.793 44.8555C155.793 44.1576 155.967 43.6146 156.316 43.2266C156.665 42.8359 157.15 42.6406 157.77 42.6406C158.368 42.6406 158.844 42.8398 159.195 43.2383C159.549 43.6367 159.727 44.1758 159.727 44.8555ZM156.465 44.8555C156.465 45.4023 156.574 45.819 156.793 46.1055C157.012 46.3919 157.333 46.5352 157.758 46.5352C158.182 46.5352 158.504 46.3932 158.723 46.1094C158.944 45.8229 159.055 45.4049 159.055 44.8555C159.055 44.3112 158.944 43.8984 158.723 43.6172C158.504 43.3333 158.18 43.1914 157.75 43.1914C157.326 43.1914 157.005 43.3307 156.789 43.6094C156.573 43.888 156.465 44.3034 156.465 44.8555ZM163.629 45.832C163.629 46.2305 163.48 46.5378 163.184 46.7539C162.887 46.9701 162.47 47.0781 161.934 47.0781C161.366 47.0781 160.923 46.9883 160.605 46.8086V46.207C160.811 46.3112 161.031 46.3932 161.266 46.4531C161.503 46.513 161.73 46.543 161.949 46.543C162.288 46.543 162.548 46.4896 162.73 46.3828C162.913 46.2734 163.004 46.1081 163.004 45.8867C163.004 45.7201 162.931 45.5781 162.785 45.4609C162.642 45.3411 162.361 45.2005 161.941 45.0391C161.543 44.8906 161.259 44.7617 161.09 44.6523C160.923 44.5404 160.798 44.4141 160.715 44.2734C160.634 44.1328 160.594 43.9648 160.594 43.7695C160.594 43.4206 160.736 43.1458 161.02 42.9453C161.303 42.7422 161.693 42.6406 162.188 42.6406C162.648 42.6406 163.099 42.7344 163.539 42.9219L163.309 43.4492C162.879 43.2721 162.49 43.1836 162.141 43.1836C161.833 43.1836 161.602 43.2318 161.445 43.3281C161.289 43.4245 161.211 43.5573 161.211 43.7266C161.211 43.8411 161.24 43.9388 161.297 44.0195C161.357 44.1003 161.452 44.1771 161.582 44.25C161.712 44.3229 161.962 44.4284 162.332 44.5664C162.84 44.7513 163.182 44.9375 163.359 45.125C163.539 45.3125 163.629 45.5482 163.629 45.832ZM169.68 46.4258H169.645C169.345 46.8607 168.897 47.0781 168.301 47.0781C167.741 47.0781 167.305 46.8867 166.992 46.5039C166.682 46.1211 166.527 45.5768 166.527 44.8711C166.527 44.1654 166.684 43.6172 166.996 43.2266C167.309 42.8359 167.743 42.6406 168.301 42.6406C168.882 42.6406 169.327 42.8516 169.637 43.2734H169.688L169.66 42.9648L169.645 42.6641V40.9219H170.293V47H169.766L169.68 46.4258ZM168.383 46.5352C168.826 46.5352 169.146 46.4154 169.344 46.1758C169.544 45.9336 169.645 45.5443 169.645 45.0078V44.8711C169.645 44.2643 169.543 43.832 169.34 43.5742C169.139 43.3138 168.818 43.1836 168.375 43.1836C167.995 43.1836 167.703 43.332 167.5 43.6289C167.299 43.9232 167.199 44.3398 167.199 44.8789C167.199 45.4258 167.299 45.8385 167.5 46.1172C167.701 46.3958 167.995 46.5352 168.383 46.5352ZM172.281 42.7188V45.4961C172.281 45.8451 172.361 46.1055 172.52 46.2773C172.678 46.4492 172.927 46.5352 173.266 46.5352C173.714 46.5352 174.04 46.4128 174.246 46.168C174.454 45.9232 174.559 45.5234 174.559 44.9688V42.7188H175.207V47H174.672L174.578 46.4258H174.543C174.41 46.6367 174.225 46.7982 173.988 46.9102C173.754 47.0221 173.486 47.0781 173.184 47.0781C172.663 47.0781 172.272 46.9544 172.012 46.707C171.754 46.4596 171.625 46.0638 171.625 45.5195V42.7188H172.281ZM178.539 42.6406C178.729 42.6406 178.9 42.6562 179.051 42.6875L178.961 43.2891C178.784 43.25 178.628 43.2305 178.492 43.2305C178.146 43.2305 177.849 43.3711 177.602 43.6523C177.357 43.9336 177.234 44.2839 177.234 44.7031V47H176.586V42.7188H177.121L177.195 43.5117H177.227C177.385 43.2331 177.577 43.0182 177.801 42.8672C178.025 42.7161 178.271 42.6406 178.539 42.6406ZM181.562 47.0781C180.943 47.0781 180.462 46.888 180.121 46.5078C179.783 46.125 179.613 45.5846 179.613 44.8867C179.613 44.1706 179.785 43.6172 180.129 43.2266C180.475 42.8359 180.967 42.6406 181.605 42.6406C181.811 42.6406 182.017 42.6628 182.223 42.707C182.428 42.7513 182.59 42.8034 182.707 42.8633L182.508 43.4141C182.365 43.3568 182.208 43.3099 182.039 43.2734C181.87 43.2344 181.72 43.2148 181.59 43.2148C180.72 43.2148 180.285 43.7695 180.285 44.8789C180.285 45.4049 180.391 45.8086 180.602 46.0898C180.815 46.3711 181.13 46.5117 181.547 46.5117C181.904 46.5117 182.27 46.4349 182.645 46.2812V46.8555C182.358 47.0039 181.997 47.0781 181.562 47.0781ZM186.594 47V44.2305C186.594 43.8815 186.514 43.6211 186.355 43.4492C186.197 43.2773 185.948 43.1914 185.609 43.1914C185.159 43.1914 184.829 43.3138 184.621 43.5586C184.415 43.8034 184.312 44.2044 184.312 44.7617V47H183.664V40.9219H184.312V42.7617C184.312 42.9831 184.302 43.1667 184.281 43.3125H184.32C184.448 43.1068 184.629 42.9453 184.863 42.8281C185.1 42.7083 185.37 42.6484 185.672 42.6484C186.195 42.6484 186.587 42.7734 186.848 43.0234C187.111 43.2708 187.242 43.6654 187.242 44.207V47H186.594ZM194.16 42.7188V43.1289L193.367 43.2227C193.44 43.3138 193.505 43.4336 193.562 43.582C193.62 43.7279 193.648 43.8932 193.648 44.0781C193.648 44.4974 193.505 44.832 193.219 45.082C192.932 45.332 192.539 45.457 192.039 45.457C191.911 45.457 191.792 45.4466 191.68 45.4258C191.404 45.5716 191.266 45.7552 191.266 45.9766C191.266 46.0938 191.314 46.181 191.41 46.2383C191.507 46.293 191.672 46.3203 191.906 46.3203H192.664C193.128 46.3203 193.483 46.418 193.73 46.6133C193.98 46.8086 194.105 47.0924 194.105 47.4648C194.105 47.9388 193.915 48.2995 193.535 48.5469C193.155 48.7969 192.6 48.9219 191.871 48.9219C191.311 48.9219 190.879 48.8177 190.574 48.6094C190.272 48.401 190.121 48.1068 190.121 47.7266C190.121 47.4661 190.204 47.2409 190.371 47.0508C190.538 46.8607 190.772 46.7318 191.074 46.6641C190.965 46.6146 190.872 46.5378 190.797 46.4336C190.724 46.3294 190.688 46.2083 190.688 46.0703C190.688 45.9141 190.729 45.7773 190.812 45.6602C190.896 45.543 191.027 45.4297 191.207 45.3203C190.986 45.2292 190.805 45.0742 190.664 44.8555C190.526 44.6367 190.457 44.3867 190.457 44.1055C190.457 43.6367 190.598 43.276 190.879 43.0234C191.16 42.7682 191.559 42.6406 192.074 42.6406C192.298 42.6406 192.5 42.6667 192.68 42.7188H194.16ZM190.746 47.7188C190.746 47.9505 190.844 48.1263 191.039 48.2461C191.234 48.3659 191.514 48.4258 191.879 48.4258C192.423 48.4258 192.826 48.3438 193.086 48.1797C193.349 48.0182 193.48 47.7982 193.48 47.5195C193.48 47.2878 193.409 47.1263 193.266 47.0352C193.122 46.9466 192.853 46.9023 192.457 46.9023H191.68C191.385 46.9023 191.156 46.9727 190.992 47.1133C190.828 47.2539 190.746 47.4557 190.746 47.7188ZM191.098 44.0898C191.098 44.3893 191.182 44.6159 191.352 44.7695C191.521 44.9232 191.757 45 192.059 45C192.691 45 193.008 44.6927 193.008 44.0781C193.008 43.4349 192.688 43.1133 192.047 43.1133C191.742 43.1133 191.508 43.1953 191.344 43.3594C191.18 43.5234 191.098 43.7669 191.098 44.0898ZM196.848 47.0781C196.215 47.0781 195.715 46.8854 195.348 46.5C194.983 46.1146 194.801 45.5794 194.801 44.8945C194.801 44.2044 194.97 43.6562 195.309 43.25C195.65 42.8438 196.107 42.6406 196.68 42.6406C197.216 42.6406 197.641 42.8177 197.953 43.1719C198.266 43.5234 198.422 43.9883 198.422 44.5664V44.9766H195.473C195.486 45.4792 195.612 45.8607 195.852 46.1211C196.094 46.3815 196.434 46.5117 196.871 46.5117C197.332 46.5117 197.788 46.4154 198.238 46.2227V46.8008C198.009 46.8997 197.792 46.9701 197.586 47.0117C197.383 47.056 197.137 47.0781 196.848 47.0781ZM196.672 43.1836C196.328 43.1836 196.053 43.2956 195.848 43.5195C195.645 43.7435 195.525 44.0534 195.488 44.4492H197.727C197.727 44.0404 197.635 43.7279 197.453 43.5117C197.271 43.293 197.01 43.1836 196.672 43.1836ZM200.914 46.543C201.029 46.543 201.139 46.5352 201.246 46.5195C201.353 46.5013 201.438 46.4831 201.5 46.4648V46.9609C201.43 46.9948 201.326 47.0221 201.188 47.043C201.052 47.0664 200.93 47.0781 200.82 47.0781C199.992 47.0781 199.578 46.6419 199.578 45.7695V43.2227H198.965V42.9102L199.578 42.6406L199.852 41.7266H200.227V42.7188H201.469V43.2227H200.227V45.7422C200.227 46 200.288 46.1979 200.41 46.3359C200.533 46.474 200.701 46.543 200.914 46.543ZM204.992 47L204.863 46.3906H204.832C204.618 46.6589 204.405 46.8411 204.191 46.9375C203.98 47.0312 203.716 47.0781 203.398 47.0781C202.974 47.0781 202.641 46.9688 202.398 46.75C202.159 46.5312 202.039 46.2201 202.039 45.8164C202.039 44.9518 202.73 44.4987 204.113 44.457L204.84 44.4336V44.168C204.84 43.832 204.767 43.5846 204.621 43.4258C204.478 43.2643 204.247 43.1836 203.93 43.1836C203.573 43.1836 203.169 43.293 202.719 43.5117L202.52 43.0156C202.73 42.901 202.961 42.8112 203.211 42.7461C203.464 42.681 203.716 42.6484 203.969 42.6484C204.479 42.6484 204.857 42.7617 205.102 42.9883C205.349 43.2148 205.473 43.5781 205.473 44.0781V47H204.992ZM203.527 46.543C203.931 46.543 204.247 46.4323 204.477 46.2109C204.708 45.9896 204.824 45.6797 204.824 45.2812V44.8945L204.176 44.9219C203.66 44.9401 203.288 45.0208 203.059 45.1641C202.832 45.3047 202.719 45.5247 202.719 45.8242C202.719 46.0586 202.789 46.237 202.93 46.3594C203.073 46.4818 203.272 46.543 203.527 46.543ZM202.762 41.5586C202.762 41.4232 202.796 41.3255 202.863 41.2656C202.934 41.2057 203.017 41.1758 203.113 41.1758C203.212 41.1758 203.297 41.2057 203.367 41.2656C203.44 41.3255 203.477 41.4232 203.477 41.5586C203.477 41.6888 203.44 41.7865 203.367 41.8516C203.297 41.9141 203.212 41.9453 203.113 41.9453C203.017 41.9453 202.934 41.9141 202.863 41.8516C202.796 41.7865 202.762 41.6888 202.762 41.5586ZM204.25 41.5586C204.25 41.4232 204.284 41.3255 204.352 41.2656C204.422 41.2057 204.505 41.1758 204.602 41.1758C204.698 41.1758 204.781 41.2057 204.852 41.2656C204.924 41.3255 204.961 41.4232 204.961 41.5586C204.961 41.6888 204.924 41.7865 204.852 41.8516C204.781 41.9141 204.698 41.9453 204.602 41.9453C204.505 41.9453 204.422 41.9141 204.352 41.8516C204.284 41.7865 204.25 41.6888 204.25 41.5586ZM208.195 46.543C208.31 46.543 208.421 46.5352 208.527 46.5195C208.634 46.5013 208.719 46.4831 208.781 46.4648V46.9609C208.711 46.9948 208.607 47.0221 208.469 47.043C208.333 47.0664 208.211 47.0781 208.102 47.0781C207.273 47.0781 206.859 46.6419 206.859 45.7695V43.2227H206.246V42.9102L206.859 42.6406L207.133 41.7266H207.508V42.7188H208.75V43.2227H207.508V45.7422C207.508 46 207.569 46.1979 207.691 46.3359C207.814 46.474 207.982 46.543 208.195 46.543ZM210.289 47H209.641V42.7188H210.289V47ZM209.586 41.5586C209.586 41.4102 209.622 41.3021 209.695 41.2344C209.768 41.1641 209.859 41.1289 209.969 41.1289C210.073 41.1289 210.163 41.1641 210.238 41.2344C210.314 41.3047 210.352 41.4128 210.352 41.5586C210.352 41.7044 210.314 41.8138 210.238 41.8867C210.163 41.957 210.073 41.9922 209.969 41.9922C209.859 41.9922 209.768 41.957 209.695 41.8867C209.622 41.8138 209.586 41.7044 209.586 41.5586ZM215.168 42.7188V43.1289L214.375 43.2227C214.448 43.3138 214.513 43.4336 214.57 43.582C214.628 43.7279 214.656 43.8932 214.656 44.0781C214.656 44.4974 214.513 44.832 214.227 45.082C213.94 45.332 213.547 45.457 213.047 45.457C212.919 45.457 212.799 45.4466 212.688 45.4258C212.411 45.5716 212.273 45.7552 212.273 45.9766C212.273 46.0938 212.322 46.181 212.418 46.2383C212.514 46.293 212.68 46.3203 212.914 46.3203H213.672C214.135 46.3203 214.491 46.418 214.738 46.6133C214.988 46.8086 215.113 47.0924 215.113 47.4648C215.113 47.9388 214.923 48.2995 214.543 48.5469C214.163 48.7969 213.608 48.9219 212.879 48.9219C212.319 48.9219 211.887 48.8177 211.582 48.6094C211.28 48.401 211.129 48.1068 211.129 47.7266C211.129 47.4661 211.212 47.2409 211.379 47.0508C211.546 46.8607 211.78 46.7318 212.082 46.6641C211.973 46.6146 211.88 46.5378 211.805 46.4336C211.732 46.3294 211.695 46.2083 211.695 46.0703C211.695 45.9141 211.737 45.7773 211.82 45.6602C211.904 45.543 212.035 45.4297 212.215 45.3203C211.993 45.2292 211.812 45.0742 211.672 44.8555C211.534 44.6367 211.465 44.3867 211.465 44.1055C211.465 43.6367 211.605 43.276 211.887 43.0234C212.168 42.7682 212.566 42.6406 213.082 42.6406C213.306 42.6406 213.508 42.6667 213.688 42.7188H215.168ZM211.754 47.7188C211.754 47.9505 211.852 48.1263 212.047 48.2461C212.242 48.3659 212.522 48.4258 212.887 48.4258C213.431 48.4258 213.833 48.3438 214.094 48.1797C214.357 48.0182 214.488 47.7982 214.488 47.5195C214.488 47.2878 214.417 47.1263 214.273 47.0352C214.13 46.9466 213.861 46.9023 213.465 46.9023H212.688C212.393 46.9023 212.164 46.9727 212 47.1133C211.836 47.2539 211.754 47.4557 211.754 47.7188ZM212.105 44.0898C212.105 44.3893 212.19 44.6159 212.359 44.7695C212.529 44.9232 212.764 45 213.066 45C213.699 45 214.016 44.6927 214.016 44.0781C214.016 43.4349 213.695 43.1133 213.055 43.1133C212.75 43.1133 212.516 43.1953 212.352 43.3594C212.188 43.5234 212.105 43.7669 212.105 44.0898ZM217.43 46.543C217.544 46.543 217.655 46.5352 217.762 46.5195C217.868 46.5013 217.953 46.4831 218.016 46.4648V46.9609C217.945 46.9948 217.841 47.0221 217.703 47.043C217.568 47.0664 217.445 47.0781 217.336 47.0781C216.508 47.0781 216.094 46.6419 216.094 45.7695V43.2227H215.48V42.9102L216.094 42.6406L216.367 41.7266H216.742V42.7188H217.984V43.2227H216.742V45.7422C216.742 46 216.803 46.1979 216.926 46.3359C217.048 46.474 217.216 46.543 217.43 46.543ZM220.684 47.0781C220.051 47.0781 219.551 46.8854 219.184 46.5C218.819 46.1146 218.637 45.5794 218.637 44.8945C218.637 44.2044 218.806 43.6562 219.145 43.25C219.486 42.8438 219.943 42.6406 220.516 42.6406C221.052 42.6406 221.477 42.8177 221.789 43.1719C222.102 43.5234 222.258 43.9883 222.258 44.5664V44.9766H219.309C219.322 45.4792 219.448 45.8607 219.688 46.1211C219.93 46.3815 220.27 46.5117 220.707 46.5117C221.168 46.5117 221.624 46.4154 222.074 46.2227V46.8008C221.845 46.8997 221.628 46.9701 221.422 47.0117C221.219 47.056 220.973 47.0781 220.684 47.0781ZM220.508 43.1836C220.164 43.1836 219.889 43.2956 219.684 43.5195C219.48 43.7435 219.361 44.0534 219.324 44.4492H221.562C221.562 44.0404 221.471 43.7279 221.289 43.5117C221.107 43.293 220.846 43.1836 220.508 43.1836ZM48.3125 58L46.375 52.9375H46.3438C46.3802 53.3385 46.3984 53.8151 46.3984 54.3672V58H45.7852V52.2891H46.7852L48.5938 57H48.625L50.4492 52.2891H51.4414V58H50.7773V54.3203C50.7773 53.8984 50.7956 53.4401 50.832 52.9453H50.8008L48.8477 58H48.3125ZM55.5469 58L55.418 57.3906H55.3867C55.1732 57.6589 54.9596 57.8411 54.7461 57.9375C54.5352 58.0312 54.2708 58.0781 53.9531 58.0781C53.5286 58.0781 53.1953 57.9688 52.9531 57.75C52.7135 57.5312 52.5938 57.2201 52.5938 56.8164C52.5938 55.9518 53.2852 55.4987 54.668 55.457L55.3945 55.4336V55.168C55.3945 54.832 55.3216 54.5846 55.1758 54.4258C55.0326 54.2643 54.8021 54.1836 54.4844 54.1836C54.1276 54.1836 53.724 54.293 53.2734 54.5117L53.0742 54.0156C53.2852 53.901 53.5156 53.8112 53.7656 53.7461C54.0182 53.681 54.2708 53.6484 54.5234 53.6484C55.0339 53.6484 55.4115 53.7617 55.6562 53.9883C55.9036 54.2148 56.0273 54.5781 56.0273 55.0781V58H55.5469ZM54.082 57.543C54.4857 57.543 54.8021 57.4323 55.0312 57.2109C55.263 56.9896 55.3789 56.6797 55.3789 56.2812V55.8945L54.7305 55.9219C54.2148 55.9401 53.8424 56.0208 53.6133 56.1641C53.3867 56.3047 53.2734 56.5247 53.2734 56.8242C53.2734 57.0586 53.3438 57.237 53.4844 57.3594C53.6276 57.4818 53.8268 57.543 54.082 57.543ZM60.1289 56.832C60.1289 57.2305 59.9805 57.5378 59.6836 57.7539C59.3867 57.9701 58.9701 58.0781 58.4336 58.0781C57.8659 58.0781 57.4232 57.9883 57.1055 57.8086V57.207C57.3112 57.3112 57.5312 57.3932 57.7656 57.4531C58.0026 57.513 58.2305 57.543 58.4492 57.543C58.7878 57.543 59.0482 57.4896 59.2305 57.3828C59.4128 57.2734 59.5039 57.1081 59.5039 56.8867C59.5039 56.7201 59.431 56.5781 59.2852 56.4609C59.1419 56.3411 58.8607 56.2005 58.4414 56.0391C58.043 55.8906 57.7591 55.7617 57.5898 55.6523C57.4232 55.5404 57.2982 55.4141 57.2148 55.2734C57.1341 55.1328 57.0938 54.9648 57.0938 54.7695C57.0938 54.4206 57.2357 54.1458 57.5195 53.9453C57.8034 53.7422 58.1927 53.6406 58.6875 53.6406C59.1484 53.6406 59.599 53.7344 60.0391 53.9219L59.8086 54.4492C59.3789 54.2721 58.9896 54.1836 58.6406 54.1836C58.3333 54.1836 58.1016 54.2318 57.9453 54.3281C57.7891 54.4245 57.7109 54.5573 57.7109 54.7266C57.7109 54.8411 57.7396 54.9388 57.7969 55.0195C57.8568 55.1003 57.9518 55.1771 58.082 55.25C58.2122 55.3229 58.4622 55.4284 58.832 55.5664C59.3398 55.7513 59.6823 55.9375 59.8594 56.125C60.0391 56.3125 60.1289 56.5482 60.1289 56.832ZM63.9492 56.832C63.9492 57.2305 63.8008 57.5378 63.5039 57.7539C63.207 57.9701 62.7904 58.0781 62.2539 58.0781C61.6862 58.0781 61.2435 57.9883 60.9258 57.8086V57.207C61.1315 57.3112 61.3516 57.3932 61.5859 57.4531C61.8229 57.513 62.0508 57.543 62.2695 57.543C62.6081 57.543 62.8685 57.4896 63.0508 57.3828C63.2331 57.2734 63.3242 57.1081 63.3242 56.8867C63.3242 56.7201 63.2513 56.5781 63.1055 56.4609C62.9622 56.3411 62.681 56.2005 62.2617 56.0391C61.8633 55.8906 61.5794 55.7617 61.4102 55.6523C61.2435 55.5404 61.1185 55.4141 61.0352 55.2734C60.9544 55.1328 60.9141 54.9648 60.9141 54.7695C60.9141 54.4206 61.056 54.1458 61.3398 53.9453C61.6237 53.7422 62.013 53.6406 62.5078 53.6406C62.9688 53.6406 63.4193 53.7344 63.8594 53.9219L63.6289 54.4492C63.1992 54.2721 62.8099 54.1836 62.4609 54.1836C62.1536 54.1836 61.9219 54.2318 61.7656 54.3281C61.6094 54.4245 61.5312 54.5573 61.5312 54.7266C61.5312 54.8411 61.5599 54.9388 61.6172 55.0195C61.6771 55.1003 61.7721 55.1771 61.9023 55.25C62.0326 55.3229 62.2826 55.4284 62.6523 55.5664C63.1602 55.7513 63.5026 55.9375 63.6797 56.125C63.8594 56.3125 63.9492 56.5482 63.9492 56.832ZM67.9375 58V55.2305C67.9375 54.8815 67.8581 54.6211 67.6992 54.4492C67.5404 54.2773 67.2917 54.1914 66.9531 54.1914C66.5052 54.1914 66.1771 54.3125 65.9688 54.5547C65.7604 54.7969 65.6562 55.1966 65.6562 55.7539V58H65.0078V53.7188H65.5352L65.6406 54.3047H65.6719C65.8047 54.0938 65.9909 53.931 66.2305 53.8164C66.4701 53.6992 66.737 53.6406 67.0312 53.6406C67.5469 53.6406 67.9349 53.7656 68.1953 54.0156C68.4557 54.263 68.5859 54.6602 68.5859 55.207V58H67.9375ZM72.5547 58L72.4258 57.3906H72.3945C72.181 57.6589 71.9674 57.8411 71.7539 57.9375C71.543 58.0312 71.2786 58.0781 70.9609 58.0781C70.5365 58.0781 70.2031 57.9688 69.9609 57.75C69.7214 57.5312 69.6016 57.2201 69.6016 56.8164C69.6016 55.9518 70.293 55.4987 71.6758 55.457L72.4023 55.4336V55.168C72.4023 54.832 72.3294 54.5846 72.1836 54.4258C72.0404 54.2643 71.8099 54.1836 71.4922 54.1836C71.1354 54.1836 70.7318 54.293 70.2812 54.5117L70.082 54.0156C70.293 53.901 70.5234 53.8112 70.7734 53.7461C71.026 53.681 71.2786 53.6484 71.5312 53.6484C72.0417 53.6484 72.4193 53.7617 72.6641 53.9883C72.9115 54.2148 73.0352 54.5781 73.0352 55.0781V58H72.5547ZM71.0898 57.543C71.4935 57.543 71.8099 57.4323 72.0391 57.2109C72.2708 56.9896 72.3867 56.6797 72.3867 56.2812V55.8945L71.7383 55.9219C71.2227 55.9401 70.8503 56.0208 70.6211 56.1641C70.3945 56.3047 70.2812 56.5247 70.2812 56.8242C70.2812 57.0586 70.3516 57.237 70.4922 57.3594C70.6354 57.4818 70.8346 57.543 71.0898 57.543ZM77.3047 58V55.2305C77.3047 54.8815 77.2253 54.6211 77.0664 54.4492C76.9076 54.2773 76.6589 54.1914 76.3203 54.1914C75.8698 54.1914 75.5404 54.3138 75.332 54.5586C75.1263 54.8034 75.0234 55.2044 75.0234 55.7617V58H74.375V51.9219H75.0234V53.7617C75.0234 53.9831 75.013 54.1667 74.9922 54.3125H75.0312C75.1589 54.1068 75.3398 53.9453 75.5742 53.8281C75.8112 53.7083 76.0807 53.6484 76.3828 53.6484C76.9062 53.6484 77.2982 53.7734 77.5586 54.0234C77.8216 54.2708 77.9531 54.6654 77.9531 55.207V58H77.3047ZM84.7461 58V55.2148C84.7461 54.8737 84.6732 54.6185 84.5273 54.4492C84.3815 54.2773 84.1549 54.1914 83.8477 54.1914C83.444 54.1914 83.1458 54.3073 82.9531 54.5391C82.7604 54.7708 82.6641 55.1276 82.6641 55.6094V58H82.0156V55.2148C82.0156 54.8737 81.9427 54.6185 81.7969 54.4492C81.651 54.2773 81.4232 54.1914 81.1133 54.1914C80.707 54.1914 80.4089 54.3138 80.2188 54.5586C80.0312 54.8008 79.9375 55.1992 79.9375 55.7539V58H79.2891V53.7188H79.8164L79.9219 54.3047H79.9531C80.0755 54.0964 80.2474 53.9336 80.4688 53.8164C80.6927 53.6992 80.9427 53.6406 81.2188 53.6406C81.888 53.6406 82.3255 53.8828 82.5312 54.3672H82.5625C82.6901 54.1432 82.875 53.9661 83.1172 53.8359C83.3594 53.7057 83.6354 53.6406 83.9453 53.6406C84.4297 53.6406 84.7917 53.7656 85.0312 54.0156C85.2734 54.263 85.3945 54.6602 85.3945 55.207V58H84.7461ZM88.543 58.0781C87.9102 58.0781 87.4102 57.8854 87.043 57.5C86.6784 57.1146 86.4961 56.5794 86.4961 55.8945C86.4961 55.2044 86.6654 54.6562 87.0039 54.25C87.3451 53.8438 87.8021 53.6406 88.375 53.6406C88.9115 53.6406 89.3359 53.8177 89.6484 54.1719C89.9609 54.5234 90.1172 54.9883 90.1172 55.5664V55.9766H87.168C87.181 56.4792 87.3073 56.8607 87.5469 57.1211C87.7891 57.3815 88.1289 57.5117 88.5664 57.5117C89.0273 57.5117 89.4831 57.4154 89.9336 57.2227V57.8008C89.7044 57.8997 89.487 57.9701 89.2812 58.0117C89.0781 58.056 88.832 58.0781 88.543 58.0781ZM88.3672 54.1836C88.0234 54.1836 87.7487 54.2956 87.543 54.5195C87.3398 54.7435 87.2201 55.0534 87.1836 55.4492H89.4219C89.4219 55.0404 89.3307 54.7279 89.1484 54.5117C88.9661 54.293 88.7057 54.1836 88.3672 54.1836ZM94.1562 58V55.2305C94.1562 54.8815 94.0768 54.6211 93.918 54.4492C93.7591 54.2773 93.5104 54.1914 93.1719 54.1914C92.724 54.1914 92.3958 54.3125 92.1875 54.5547C91.9792 54.7969 91.875 55.1966 91.875 55.7539V58H91.2266V53.7188H91.7539L91.8594 54.3047H91.8906C92.0234 54.0938 92.2096 53.931 92.4492 53.8164C92.6888 53.6992 92.9557 53.6406 93.25 53.6406C93.7656 53.6406 94.1536 53.7656 94.4141 54.0156C94.6745 54.263 94.8047 54.6602 94.8047 55.207V58H94.1562ZM96.0469 57.5859C96.0469 57.4115 96.0859 57.2799 96.1641 57.1914C96.2448 57.1003 96.3594 57.0547 96.5078 57.0547C96.6589 57.0547 96.776 57.1003 96.8594 57.1914C96.9453 57.2799 96.9883 57.4115 96.9883 57.5859C96.9883 57.7552 96.9453 57.8854 96.8594 57.9766C96.7734 58.0677 96.6562 58.1133 96.5078 58.1133C96.375 58.1133 96.2643 58.0729 96.1758 57.9922C96.0898 57.9089 96.0469 57.7734 96.0469 57.5859Z" fill="black"/>
<path d="M80.5 72L77.6132 77H83.3868L80.5 72ZM80 76.5L80 252H81L81 76.5H80Z" fill="black"/>
<path d="M260.354 251.854C260.549 251.658 260.549 251.342 260.354 251.146L257.172 247.964C256.976 247.769 256.66 247.769 256.464 247.964C256.269 248.16 256.269 248.476 256.464 248.672L259.293 251.5L256.464 254.328C256.269 254.524 256.269 254.84 256.464 255.036C256.66 255.231 256.976 255.231 257.172 255.036L260.354 251.854ZM80 252H260V251H80V252Z" fill="black"/>
<g filter="url(#filter0_d_1262_75140)">
<rect x="81" y="218" width="33" height="33" fill="#008351" fill-opacity="0.8" shape-rendering="crispEdges"/>
</g>
<g filter="url(#filter1_d_1262_75140)">
<rect x="114" y="218" width="33" height="33" fill="#008351" fill-opacity="0.8" shape-rendering="crispEdges"/>
</g>
<g filter="url(#filter2_d_1262_75140)">
<rect x="147" y="218" width="33" height="33" fill="#008351" fill-opacity="0.8" shape-rendering="crispEdges"/>
</g>
<g filter="url(#filter3_d_1262_75140)">
<rect x="180" y="218" width="33" height="33" fill="#008351" fill-opacity="0.8" shape-rendering="crispEdges"/>
</g>
<g filter="url(#filter4_d_1262_75140)">
<path d="M213 218H246V251H213V218Z" fill="#FAD201" fill-opacity="0.8" shape-rendering="crispEdges"/>
</g>
<circle cx="130.5" cy="234.5" r="12.5" fill="black" fill-opacity="0.7"/>
<g filter="url(#filter5_d_1262_75140)">
<rect x="81" y="185" width="33" height="33" fill="#008351" fill-opacity="0.8" shape-rendering="crispEdges"/>
</g>
<g filter="url(#filter6_d_1262_75140)">
<rect x="114" y="185" width="33" height="33" fill="#008351" fill-opacity="0.8" shape-rendering="crispEdges"/>
</g>
<g filter="url(#filter7_d_1262_75140)">
<rect x="147" y="185" width="33" height="33" fill="#008351" fill-opacity="0.8" shape-rendering="crispEdges"/>
</g>
<g filter="url(#filter8_d_1262_75140)">
<rect x="180" y="185" width="33" height="33" fill="#FAD201" fill-opacity="0.8" shape-rendering="crispEdges"/>
</g>
<g filter="url(#filter9_d_1262_75140)">
<path d="M213 185H246V218H213V185Z" fill="#CC0605" fill-opacity="0.8" shape-rendering="crispEdges"/>
</g>
<g filter="url(#filter10_d_1262_75140)">
<rect x="81" y="152" width="33" height="33" fill="#008351" fill-opacity="0.8" shape-rendering="crispEdges"/>
</g>
<g filter="url(#filter11_d_1262_75140)">
<rect x="114" y="152" width="33" height="33" fill="#008351" fill-opacity="0.8" shape-rendering="crispEdges"/>
</g>
<g filter="url(#filter12_d_1262_75140)">
<rect x="147" y="152" width="33" height="33" fill="#FAD201" fill-opacity="0.8" shape-rendering="crispEdges"/>
</g>
<g filter="url(#filter13_d_1262_75140)">
<rect x="180" y="152" width="33" height="33" fill="#FAD201" fill-opacity="0.8" shape-rendering="crispEdges"/>
</g>
<g filter="url(#filter14_d_1262_75140)">
<path d="M213 152H246V185H213V152Z" fill="#CC0605" fill-opacity="0.8" shape-rendering="crispEdges"/>
</g>
<circle cx="130.5" cy="168.5" r="12.5" fill="black" fill-opacity="0.5"/>
<g filter="url(#filter15_d_1262_75140)">
<rect x="81" y="119" width="33" height="33" fill="#008351" fill-opacity="0.8" shape-rendering="crispEdges"/>
</g>
<g filter="url(#filter16_d_1262_75140)">
<rect x="114" y="119" width="33" height="33" fill="#FAD201" fill-opacity="0.8" shape-rendering="crispEdges"/>
</g>
<g filter="url(#filter17_d_1262_75140)">
<rect x="147" y="119" width="33" height="33" fill="#FAD201" fill-opacity="0.8" shape-rendering="crispEdges"/>
</g>
<g filter="url(#filter18_d_1262_75140)">
<rect x="180" y="119" width="33" height="33" fill="#CC0605" fill-opacity="0.8" shape-rendering="crispEdges"/>
</g>
<g filter="url(#filter19_d_1262_75140)">
<path d="M213 119H246V152H213V119Z" fill="#CC0605" fill-opacity="0.8" shape-rendering="crispEdges"/>
</g>
<g filter="url(#filter20_d_1262_75140)">
<rect x="81" y="86" width="33" height="33" fill="#008351" fill-opacity="0.8" shape-rendering="crispEdges"/>
</g>
<g filter="url(#filter21_d_1262_75140)">
<rect x="114" y="86" width="33" height="33" fill="#FAD201" fill-opacity="0.8" shape-rendering="crispEdges"/>
</g>
<g filter="url(#filter22_d_1262_75140)">
<rect x="147" y="86" width="33" height="33" fill="#CC0605" fill-opacity="0.8" shape-rendering="crispEdges"/>
</g>
<g filter="url(#filter23_d_1262_75140)">
<rect x="180" y="86" width="33" height="33" fill="#CC0605" fill-opacity="0.8" shape-rendering="crispEdges"/>
</g>
<g filter="url(#filter24_d_1262_75140)">
<path d="M213 86H246V119H213V86Z" fill="#CC0605" fill-opacity="0.8" shape-rendering="crispEdges"/>
</g>
<path d="M142.707 278.48C142.707 278.983 142.525 279.375 142.16 279.656C141.796 279.938 141.301 280.078 140.676 280.078C139.999 280.078 139.478 279.991 139.113 279.816V279.176C139.348 279.275 139.603 279.353 139.879 279.41C140.155 279.467 140.428 279.496 140.699 279.496C141.142 279.496 141.475 279.413 141.699 279.246C141.923 279.077 142.035 278.842 142.035 278.543C142.035 278.345 141.995 278.184 141.914 278.059C141.836 277.931 141.703 277.814 141.516 277.707C141.331 277.6 141.048 277.479 140.668 277.344C140.137 277.154 139.757 276.928 139.527 276.668C139.301 276.408 139.188 276.068 139.188 275.648C139.188 275.208 139.353 274.858 139.684 274.598C140.014 274.337 140.452 274.207 140.996 274.207C141.564 274.207 142.086 274.311 142.562 274.52L142.355 275.098C141.884 274.9 141.426 274.801 140.98 274.801C140.629 274.801 140.354 274.876 140.156 275.027C139.958 275.178 139.859 275.388 139.859 275.656C139.859 275.854 139.896 276.017 139.969 276.145C140.042 276.27 140.164 276.385 140.336 276.492C140.51 276.596 140.776 276.712 141.133 276.84C141.732 277.053 142.143 277.283 142.367 277.527C142.594 277.772 142.707 278.09 142.707 278.48ZM145.488 280.078C144.868 280.078 144.388 279.888 144.047 279.508C143.708 279.125 143.539 278.585 143.539 277.887C143.539 277.171 143.711 276.617 144.055 276.227C144.401 275.836 144.893 275.641 145.531 275.641C145.737 275.641 145.943 275.663 146.148 275.707C146.354 275.751 146.516 275.803 146.633 275.863L146.434 276.414C146.29 276.357 146.134 276.31 145.965 276.273C145.796 276.234 145.646 276.215 145.516 276.215C144.646 276.215 144.211 276.77 144.211 277.879C144.211 278.405 144.316 278.809 144.527 279.09C144.741 279.371 145.056 279.512 145.473 279.512C145.829 279.512 146.195 279.435 146.57 279.281V279.855C146.284 280.004 145.923 280.078 145.488 280.078ZM150.52 280V277.23C150.52 276.882 150.44 276.621 150.281 276.449C150.122 276.277 149.874 276.191 149.535 276.191C149.085 276.191 148.755 276.314 148.547 276.559C148.341 276.803 148.238 277.204 148.238 277.762V280H147.59V273.922H148.238V275.762C148.238 275.983 148.228 276.167 148.207 276.312H148.246C148.374 276.107 148.555 275.945 148.789 275.828C149.026 275.708 149.296 275.648 149.598 275.648C150.121 275.648 150.513 275.773 150.773 276.023C151.036 276.271 151.168 276.665 151.168 277.207V280H150.52ZM156 280L155.215 277.488C155.165 277.335 155.073 276.986 154.938 276.441H154.906C154.802 276.897 154.711 277.249 154.633 277.496L153.824 280H153.074L151.906 275.719H152.586C152.862 276.794 153.072 277.613 153.215 278.176C153.361 278.738 153.444 279.117 153.465 279.312H153.496C153.525 279.164 153.57 278.973 153.633 278.738C153.698 278.501 153.754 278.314 153.801 278.176L154.586 275.719H155.289L156.055 278.176C156.201 278.624 156.299 279 156.352 279.305H156.383C156.393 279.211 156.421 279.066 156.465 278.871C156.512 278.676 156.784 277.625 157.281 275.719H157.953L156.77 280H156ZM160.539 280.078C159.906 280.078 159.406 279.885 159.039 279.5C158.674 279.115 158.492 278.579 158.492 277.895C158.492 277.204 158.661 276.656 159 276.25C159.341 275.844 159.798 275.641 160.371 275.641C160.908 275.641 161.332 275.818 161.645 276.172C161.957 276.523 162.113 276.988 162.113 277.566V277.977H159.164C159.177 278.479 159.303 278.861 159.543 279.121C159.785 279.382 160.125 279.512 160.562 279.512C161.023 279.512 161.479 279.415 161.93 279.223V279.801C161.701 279.9 161.483 279.97 161.277 280.012C161.074 280.056 160.828 280.078 160.539 280.078ZM160.363 276.184C160.02 276.184 159.745 276.296 159.539 276.52C159.336 276.743 159.216 277.053 159.18 277.449H161.418C161.418 277.04 161.327 276.728 161.145 276.512C160.962 276.293 160.702 276.184 160.363 276.184ZM165.176 275.641C165.366 275.641 165.536 275.656 165.688 275.688L165.598 276.289C165.421 276.25 165.264 276.23 165.129 276.23C164.783 276.23 164.486 276.371 164.238 276.652C163.993 276.934 163.871 277.284 163.871 277.703V280H163.223V275.719H163.758L163.832 276.512H163.863C164.022 276.233 164.214 276.018 164.438 275.867C164.661 275.716 164.908 275.641 165.176 275.641ZM168.297 280.078C167.664 280.078 167.164 279.885 166.797 279.5C166.432 279.115 166.25 278.579 166.25 277.895C166.25 277.204 166.419 276.656 166.758 276.25C167.099 275.844 167.556 275.641 168.129 275.641C168.665 275.641 169.09 275.818 169.402 276.172C169.715 276.523 169.871 276.988 169.871 277.566V277.977H166.922C166.935 278.479 167.061 278.861 167.301 279.121C167.543 279.382 167.883 279.512 168.32 279.512C168.781 279.512 169.237 279.415 169.688 279.223V279.801C169.458 279.9 169.241 279.97 169.035 280.012C168.832 280.056 168.586 280.078 168.297 280.078ZM168.121 276.184C167.777 276.184 167.503 276.296 167.297 276.52C167.094 276.743 166.974 277.053 166.938 277.449H169.176C169.176 277.04 169.085 276.728 168.902 276.512C168.72 276.293 168.46 276.184 168.121 276.184ZM174.484 275.719V276.129L173.691 276.223C173.764 276.314 173.829 276.434 173.887 276.582C173.944 276.728 173.973 276.893 173.973 277.078C173.973 277.497 173.829 277.832 173.543 278.082C173.257 278.332 172.863 278.457 172.363 278.457C172.236 278.457 172.116 278.447 172.004 278.426C171.728 278.572 171.59 278.755 171.59 278.977C171.59 279.094 171.638 279.181 171.734 279.238C171.831 279.293 171.996 279.32 172.23 279.32H172.988C173.452 279.32 173.807 279.418 174.055 279.613C174.305 279.809 174.43 280.092 174.43 280.465C174.43 280.939 174.24 281.299 173.859 281.547C173.479 281.797 172.924 281.922 172.195 281.922C171.635 281.922 171.203 281.818 170.898 281.609C170.596 281.401 170.445 281.107 170.445 280.727C170.445 280.466 170.529 280.241 170.695 280.051C170.862 279.861 171.096 279.732 171.398 279.664C171.289 279.615 171.197 279.538 171.121 279.434C171.048 279.329 171.012 279.208 171.012 279.07C171.012 278.914 171.053 278.777 171.137 278.66C171.22 278.543 171.352 278.43 171.531 278.32C171.31 278.229 171.129 278.074 170.988 277.855C170.85 277.637 170.781 277.387 170.781 277.105C170.781 276.637 170.922 276.276 171.203 276.023C171.484 275.768 171.883 275.641 172.398 275.641C172.622 275.641 172.824 275.667 173.004 275.719H174.484ZM171.07 280.719C171.07 280.951 171.168 281.126 171.363 281.246C171.559 281.366 171.839 281.426 172.203 281.426C172.747 281.426 173.15 281.344 173.41 281.18C173.673 281.018 173.805 280.798 173.805 280.52C173.805 280.288 173.733 280.126 173.59 280.035C173.447 279.947 173.177 279.902 172.781 279.902H172.004C171.71 279.902 171.48 279.973 171.316 280.113C171.152 280.254 171.07 280.456 171.07 280.719ZM171.422 277.09C171.422 277.389 171.507 277.616 171.676 277.77C171.845 277.923 172.081 278 172.383 278C173.016 278 173.332 277.693 173.332 277.078C173.332 276.435 173.012 276.113 172.371 276.113C172.066 276.113 171.832 276.195 171.668 276.359C171.504 276.523 171.422 276.767 171.422 277.09ZM177.316 275.641C177.507 275.641 177.677 275.656 177.828 275.688L177.738 276.289C177.561 276.25 177.405 276.23 177.27 276.23C176.923 276.23 176.626 276.371 176.379 276.652C176.134 276.934 176.012 277.284 176.012 277.703V280H175.363V275.719H175.898L175.973 276.512H176.004C176.163 276.233 176.354 276.018 176.578 275.867C176.802 275.716 177.048 275.641 177.316 275.641ZM181.262 280L181.133 279.391H181.102C180.888 279.659 180.674 279.841 180.461 279.938C180.25 280.031 179.986 280.078 179.668 280.078C179.243 280.078 178.91 279.969 178.668 279.75C178.428 279.531 178.309 279.22 178.309 278.816C178.309 277.952 179 277.499 180.383 277.457L181.109 277.434V277.168C181.109 276.832 181.036 276.585 180.891 276.426C180.747 276.264 180.517 276.184 180.199 276.184C179.842 276.184 179.439 276.293 178.988 276.512L178.789 276.016C179 275.901 179.23 275.811 179.48 275.746C179.733 275.681 179.986 275.648 180.238 275.648C180.749 275.648 181.126 275.762 181.371 275.988C181.618 276.215 181.742 276.578 181.742 277.078V280H181.262ZM179.797 279.543C180.201 279.543 180.517 279.432 180.746 279.211C180.978 278.99 181.094 278.68 181.094 278.281V277.895L180.445 277.922C179.93 277.94 179.557 278.021 179.328 278.164C179.102 278.305 178.988 278.525 178.988 278.824C178.988 279.059 179.059 279.237 179.199 279.359C179.342 279.482 179.542 279.543 179.797 279.543ZM185.996 279.426H185.961C185.661 279.861 185.214 280.078 184.617 280.078C184.057 280.078 183.621 279.887 183.309 279.504C182.999 279.121 182.844 278.577 182.844 277.871C182.844 277.165 183 276.617 183.312 276.227C183.625 275.836 184.06 275.641 184.617 275.641C185.198 275.641 185.643 275.852 185.953 276.273H186.004L185.977 275.965L185.961 275.664V273.922H186.609V280H186.082L185.996 279.426ZM184.699 279.535C185.142 279.535 185.462 279.415 185.66 279.176C185.861 278.934 185.961 278.544 185.961 278.008V277.871C185.961 277.264 185.859 276.832 185.656 276.574C185.456 276.314 185.134 276.184 184.691 276.184C184.311 276.184 184.02 276.332 183.816 276.629C183.616 276.923 183.516 277.34 183.516 277.879C183.516 278.426 183.616 278.839 183.816 279.117C184.017 279.396 184.311 279.535 184.699 279.535Z" fill="black"/>
<path d="M54 198.898V199.555L50.1758 200.707C50.0065 200.762 49.793 200.823 49.5352 200.891C49.2773 200.958 49.1224 200.993 49.0703 200.996C49.4141 201.053 49.7904 201.145 50.1992 201.27L54 202.387V203.043L48.2891 204.562V203.859L51.8164 202.957C52.3112 202.832 52.7591 202.741 53.1602 202.684C52.6836 202.613 52.2174 202.509 51.7617 202.371L48.2891 201.348V200.645L51.793 199.57C52.1966 199.445 52.6523 199.34 53.1602 199.254C52.7904 199.204 52.3398 199.111 51.8086 198.973L48.2891 198.074V197.371L54 198.898ZM54 193.941L53.3906 194.07V194.102C53.6589 194.315 53.8411 194.529 53.9375 194.742C54.0312 194.953 54.0781 195.217 54.0781 195.535C54.0781 195.96 53.9688 196.293 53.75 196.535C53.5312 196.775 53.2201 196.895 52.8164 196.895C51.9518 196.895 51.4987 196.203 51.457 194.82L51.4336 194.094H51.168C50.832 194.094 50.5846 194.167 50.4258 194.312C50.2643 194.456 50.1836 194.686 50.1836 195.004C50.1836 195.361 50.293 195.764 50.5117 196.215L50.0156 196.414C49.901 196.203 49.8112 195.973 49.7461 195.723C49.681 195.47 49.6484 195.217 49.6484 194.965C49.6484 194.454 49.7617 194.077 49.9883 193.832C50.2148 193.585 50.5781 193.461 51.0781 193.461H54V193.941ZM53.543 195.406C53.543 195.003 53.4323 194.686 53.2109 194.457C52.9896 194.225 52.6797 194.109 52.2812 194.109H51.8945L51.9219 194.758C51.9401 195.273 52.0208 195.646 52.1641 195.875C52.3047 196.102 52.5247 196.215 52.8242 196.215C53.0586 196.215 53.237 196.145 53.3594 196.004C53.4818 195.861 53.543 195.661 53.543 195.406ZM54 189.191H51.2305C50.8815 189.191 50.6211 189.271 50.4492 189.43C50.2773 189.589 50.1914 189.837 50.1914 190.176C50.1914 190.626 50.3138 190.956 50.5586 191.164C50.8034 191.37 51.2044 191.473 51.7617 191.473H54V192.121H47.9219V191.473H49.7617C49.9831 191.473 50.1667 191.483 50.3125 191.504V191.465C50.1068 191.337 49.9453 191.156 49.8281 190.922C49.7083 190.685 49.6484 190.415 49.6484 190.113C49.6484 189.59 49.7734 189.198 50.0234 188.938C50.2708 188.674 50.6654 188.543 51.207 188.543H54V189.191ZM49.6406 185.254C49.6406 185.064 49.6562 184.893 49.6875 184.742L50.2891 184.832C50.25 185.009 50.2305 185.165 50.2305 185.301C50.2305 185.647 50.3711 185.944 50.6523 186.191C50.9336 186.436 51.2839 186.559 51.7031 186.559H54V187.207H49.7188V186.672L50.5117 186.598V186.566C50.2331 186.408 50.0182 186.216 49.8672 185.992C49.7161 185.768 49.6406 185.522 49.6406 185.254ZM52.832 181.18C53.2305 181.18 53.5378 181.328 53.7539 181.625C53.9701 181.922 54.0781 182.339 54.0781 182.875C54.0781 183.443 53.9883 183.885 53.8086 184.203H53.207C53.3112 183.997 53.3932 183.777 53.4531 183.543C53.513 183.306 53.543 183.078 53.543 182.859C53.543 182.521 53.4896 182.26 53.3828 182.078C53.2734 181.896 53.1081 181.805 52.8867 181.805C52.7201 181.805 52.5781 181.878 52.4609 182.023C52.3411 182.167 52.2005 182.448 52.0391 182.867C51.8906 183.266 51.7617 183.549 51.6523 183.719C51.5404 183.885 51.4141 184.01 51.2734 184.094C51.1328 184.174 50.9648 184.215 50.7695 184.215C50.4206 184.215 50.1458 184.073 49.9453 183.789C49.7422 183.505 49.6406 183.116 49.6406 182.621C49.6406 182.16 49.7344 181.71 49.9219 181.27L50.4492 181.5C50.2721 181.93 50.1836 182.319 50.1836 182.668C50.1836 182.975 50.2318 183.207 50.3281 183.363C50.4245 183.52 50.5573 183.598 50.7266 183.598C50.8411 183.598 50.9388 183.569 51.0195 183.512C51.1003 183.452 51.1771 183.357 51.25 183.227C51.3229 183.096 51.4284 182.846 51.5664 182.477C51.7513 181.969 51.9375 181.626 52.125 181.449C52.3125 181.27 52.5482 181.18 52.832 181.18ZM54.0781 178.41C54.0781 179.03 53.888 179.51 53.5078 179.852C53.125 180.19 52.5846 180.359 51.8867 180.359C51.1706 180.359 50.6172 180.188 50.2266 179.844C49.8359 179.497 49.6406 179.005 49.6406 178.367C49.6406 178.161 49.6628 177.956 49.707 177.75C49.7513 177.544 49.8034 177.383 49.8633 177.266L50.4141 177.465C50.3568 177.608 50.3099 177.764 50.2734 177.934C50.2344 178.103 50.2148 178.253 50.2148 178.383C50.2148 179.253 50.7695 179.688 51.8789 179.688C52.4049 179.688 52.8086 179.582 53.0898 179.371C53.3711 179.158 53.5117 178.842 53.5117 178.426C53.5117 178.069 53.4349 177.703 53.2813 177.328H53.8555C54.0039 177.615 54.0781 177.975 54.0781 178.41ZM54 173.379H51.2305C50.8815 173.379 50.6211 173.458 50.4492 173.617C50.2773 173.776 50.1914 174.025 50.1914 174.363C50.1914 174.814 50.3138 175.143 50.5586 175.352C50.8034 175.557 51.2044 175.66 51.7617 175.66H54V176.309H47.9219V175.66H49.7617C49.9831 175.66 50.1667 175.671 50.3125 175.691V175.652C50.1068 175.525 49.9453 175.344 49.8281 175.109C49.7083 174.872 49.6484 174.603 49.6484 174.301C49.6484 173.777 49.7734 173.385 50.0234 173.125C50.2708 172.862 50.6654 172.73 51.207 172.73H54V173.379ZM54.0781 169.586C54.0781 170.219 53.8854 170.719 53.5 171.086C53.1146 171.451 52.5794 171.633 51.8945 171.633C51.2044 171.633 50.6563 171.464 50.25 171.125C49.8438 170.784 49.6406 170.327 49.6406 169.754C49.6406 169.217 49.8177 168.793 50.1719 168.48C50.5234 168.168 50.9883 168.012 51.5664 168.012H51.9766V170.961C52.4792 170.948 52.8607 170.822 53.1211 170.582C53.3815 170.34 53.5117 170 53.5117 169.562C53.5117 169.102 53.4154 168.646 53.2227 168.195H53.8008C53.8997 168.424 53.9701 168.642 54.0117 168.848C54.056 169.051 54.0781 169.297 54.0781 169.586ZM50.1836 169.762C50.1836 170.105 50.2956 170.38 50.5195 170.586C50.7435 170.789 51.0534 170.909 51.4492 170.945V168.707C51.0404 168.707 50.7279 168.798 50.5117 168.98C50.293 169.163 50.1836 169.423 50.1836 169.762ZM54 166.254V166.902H49.7188V166.254H54ZM48.5586 166.957C48.4102 166.957 48.3021 166.921 48.2344 166.848C48.1641 166.775 48.1289 166.684 48.1289 166.574C48.1289 166.47 48.1641 166.38 48.2344 166.305C48.3047 166.229 48.4128 166.191 48.5586 166.191C48.7044 166.191 48.8138 166.229 48.8867 166.305C48.957 166.38 48.9922 166.47 48.9922 166.574C48.9922 166.684 48.957 166.775 48.8867 166.848C48.8138 166.921 48.7044 166.957 48.5586 166.957ZM54 161.949H51.2305C50.8815 161.949 50.6211 162.029 50.4492 162.188C50.2773 162.346 50.1914 162.595 50.1914 162.934C50.1914 163.382 50.3125 163.71 50.5547 163.918C50.7969 164.126 51.1966 164.23 51.7539 164.23H54V164.879H49.7188V164.352L50.3047 164.246V164.215C50.0938 164.082 49.931 163.896 49.8164 163.656C49.6992 163.417 49.6406 163.15 49.6406 162.855C49.6406 162.34 49.7656 161.952 50.0156 161.691C50.263 161.431 50.6602 161.301 51.207 161.301H54V161.949ZM54 159.316V159.965H47.9219V159.316H54ZM54 157.293V157.941H49.7188V157.293H54ZM48.5586 157.996C48.4102 157.996 48.3021 157.96 48.2344 157.887C48.1641 157.814 48.1289 157.723 48.1289 157.613C48.1289 157.509 48.1641 157.419 48.2344 157.344C48.3047 157.268 48.4128 157.23 48.5586 157.23C48.7044 157.23 48.8138 157.268 48.8867 157.344C48.957 157.419 48.9922 157.509 48.9922 157.613C48.9922 157.723 48.957 157.814 48.8867 157.887C48.8138 157.96 48.7044 157.996 48.5586 157.996ZM54.0781 154.207C54.0781 154.827 53.888 155.307 53.5078 155.648C53.125 155.987 52.5846 156.156 51.8867 156.156C51.1706 156.156 50.6172 155.984 50.2266 155.641C49.8359 155.294 49.6406 154.802 49.6406 154.164C49.6406 153.958 49.6628 153.753 49.707 153.547C49.7513 153.341 49.8034 153.18 49.8633 153.062L50.4141 153.262C50.3568 153.405 50.3099 153.561 50.2734 153.73C50.2344 153.9 50.2148 154.049 50.2148 154.18C50.2148 155.049 50.7695 155.484 51.8789 155.484C52.4049 155.484 52.8086 155.379 53.0898 155.168C53.3711 154.954 53.5117 154.639 53.5117 154.223C53.5117 153.866 53.4349 153.5 53.2813 153.125H53.8555C54.0039 153.411 54.0781 153.772 54.0781 154.207ZM54 149.176H51.2305C50.8815 149.176 50.6211 149.255 50.4492 149.414C50.2773 149.573 50.1914 149.822 50.1914 150.16C50.1914 150.611 50.3138 150.94 50.5586 151.148C50.8034 151.354 51.2044 151.457 51.7617 151.457H54V152.105H47.9219V151.457H49.7617C49.9831 151.457 50.1667 151.467 50.3125 151.488V151.449C50.1068 151.322 49.9453 151.141 49.8281 150.906C49.7083 150.669 49.6484 150.4 49.6484 150.098C49.6484 149.574 49.7734 149.182 50.0234 148.922C50.2708 148.659 50.6654 148.527 51.207 148.527H54V149.176ZM51.8086 146.551C51.6497 146.439 51.4414 146.268 51.1836 146.039L49.7188 144.656V143.887L51.543 145.621L54 143.766V144.551L51.9766 146.062L52.3984 146.551H54V147.191H47.9219V146.551H51.1445C51.2878 146.551 51.5091 146.561 51.8086 146.582V146.551ZM54.0781 141.18C54.0781 141.812 53.8854 142.312 53.5 142.68C53.1146 143.044 52.5794 143.227 51.8945 143.227C51.2044 143.227 50.6563 143.057 50.25 142.719C49.8438 142.378 49.6406 141.921 49.6406 141.348C49.6406 140.811 49.8177 140.387 50.1719 140.074C50.5234 139.762 50.9883 139.605 51.5664 139.605H51.9766V142.555C52.4792 142.542 52.8607 142.415 53.1211 142.176C53.3815 141.934 53.5117 141.594 53.5117 141.156C53.5117 140.695 53.4154 140.24 53.2227 139.789H53.8008C53.8997 140.018 53.9701 140.236 54.0117 140.441C54.056 140.645 54.0781 140.891 54.0781 141.18ZM50.1836 141.355C50.1836 141.699 50.2956 141.974 50.5195 142.18C50.7435 142.383 51.0534 142.503 51.4492 142.539V140.301C51.0404 140.301 50.7279 140.392 50.5117 140.574C50.293 140.757 50.1836 141.017 50.1836 141.355ZM54 137.848V138.496H49.7188L49.7188 137.848H54ZM48.5586 138.551C48.4102 138.551 48.3021 138.514 48.2344 138.441C48.1641 138.368 48.1289 138.277 48.1289 138.168C48.1289 138.064 48.1641 137.974 48.2344 137.898C48.3047 137.823 48.4128 137.785 48.5586 137.785C48.7044 137.785 48.8138 137.823 48.8867 137.898C48.957 137.974 48.9922 138.064 48.9922 138.168C48.9922 138.277 48.957 138.368 48.8867 138.441C48.8138 138.514 48.7044 138.551 48.5586 138.551ZM53.543 135.09C53.543 134.975 53.5352 134.865 53.5195 134.758C53.5013 134.651 53.4831 134.566 53.4648 134.504H53.9609C53.9948 134.574 54.0221 134.678 54.043 134.816C54.0664 134.952 54.0781 135.074 54.0781 135.184C54.0781 136.012 53.6419 136.426 52.7695 136.426H50.2227V137.039H49.9102L49.6406 136.426L48.7266 136.152V135.777H49.7188V134.535H50.2227V135.777H52.7422C53 135.777 53.1979 135.716 53.3359 135.594C53.474 135.471 53.543 135.303 53.543 135.09Z" fill="black"/>
<path d="M98.1929 267H97.3228V261.403C97.3228 260.938 97.3371 260.497 97.3657 260.082C97.2905 260.157 97.2064 260.236 97.1133 260.318C97.0202 260.401 96.5941 260.75 95.835 261.366L95.3623 260.753L97.4409 259.147H98.1929V267Z" fill="black"/>
<path d="M69.6929 239H68.8228V233.403C68.8228 232.938 68.8371 232.497 68.8657 232.082C68.7905 232.157 68.7064 232.236 68.6133 232.318C68.5202 232.401 68.0941 232.75 67.335 233.366L66.8623 232.753L68.9409 231.147H69.6929V239Z" fill="black"/>
<path d="M71.5513 206H66.3896V205.232L68.4575 203.153C69.0877 202.516 69.5031 202.061 69.7036 201.789C69.9041 201.517 70.0545 201.252 70.1548 200.994C70.255 200.736 70.3052 200.459 70.3052 200.162C70.3052 199.743 70.1781 199.411 69.9238 199.168C69.6696 198.921 69.3169 198.797 68.8657 198.797C68.5399 198.797 68.2301 198.851 67.9365 198.958C67.6465 199.066 67.3224 199.261 66.9644 199.544L66.4917 198.937C67.215 198.335 68.0028 198.035 68.855 198.035C69.5926 198.035 70.1709 198.224 70.5898 198.604C71.0088 198.98 71.2183 199.487 71.2183 200.124C71.2183 200.622 71.0786 201.114 70.7993 201.601C70.52 202.088 69.9972 202.704 69.231 203.449L67.5122 205.13V205.173H71.5513V206Z" fill="black"/>
<path d="M71.2559 166.995C71.2559 167.496 71.1144 167.906 70.8315 168.225C70.5522 168.544 70.1548 168.757 69.6392 168.864V168.907C70.2694 168.986 70.7367 169.187 71.041 169.509C71.3454 169.831 71.4976 170.254 71.4976 170.776C71.4976 171.525 71.238 172.101 70.7188 172.506C70.1995 172.907 69.4619 173.107 68.5059 173.107C68.0905 173.107 67.7091 173.075 67.3618 173.011C67.0181 172.95 66.6833 172.841 66.3574 172.683V171.834C66.6976 172.003 67.0592 172.132 67.4424 172.221C67.8291 172.307 68.1943 172.35 68.5381 172.35C69.8952 172.35 70.5737 171.818 70.5737 170.755C70.5737 169.802 69.8254 169.326 68.3286 169.326H67.5552V168.558H68.3394C68.9517 168.558 69.4368 168.424 69.7949 168.155C70.153 167.883 70.332 167.507 70.332 167.027C70.332 166.644 70.1995 166.343 69.9346 166.125C69.6732 165.907 69.3169 165.797 68.8657 165.797C68.522 165.797 68.1979 165.844 67.8936 165.937C67.5892 166.03 67.2419 166.202 66.8516 166.453L66.4004 165.851C66.7227 165.597 67.0933 165.398 67.5122 165.255C67.9347 165.108 68.3787 165.035 68.8442 165.035C69.6069 165.035 70.1995 165.21 70.6221 165.561C71.0446 165.908 71.2559 166.386 71.2559 166.995Z" fill="black"/>
<path d="M71.9219 138.195H70.7563V140H69.9023V138.195H66.0835V137.417L69.811 132.104H70.7563V137.384H71.9219V138.195ZM69.9023 137.384V134.774C69.9023 134.262 69.9202 133.684 69.9561 133.039H69.9131C69.7412 133.383 69.5801 133.667 69.4297 133.893L66.9751 137.384H69.9023Z" fill="black"/>
<path d="M68.8442 102.204C69.6714 102.204 70.3213 102.41 70.7939 102.821C71.2702 103.229 71.5083 103.79 71.5083 104.502C71.5083 105.315 71.2487 105.953 70.7295 106.415C70.2139 106.876 69.5013 107.107 68.5918 107.107C67.7074 107.107 67.0324 106.966 66.5669 106.683V105.824C66.8175 105.985 67.1291 106.112 67.5015 106.205C67.8739 106.295 68.2409 106.339 68.6025 106.339C69.2327 106.339 69.7215 106.191 70.0688 105.894C70.4198 105.596 70.5952 105.167 70.5952 104.604C70.5952 103.509 69.9238 102.961 68.5811 102.961C68.2409 102.961 67.7861 103.013 67.2168 103.117L66.7549 102.821L67.0503 99.1475H70.9551V99.9692H67.813L67.6143 102.327C68.026 102.245 68.436 102.204 68.8442 102.204Z" fill="black"/>
<path d="M133.051 267H127.89V266.232L129.958 264.153C130.588 263.516 131.003 263.061 131.204 262.789C131.404 262.517 131.555 262.252 131.655 261.994C131.755 261.736 131.805 261.459 131.805 261.162C131.805 260.743 131.678 260.411 131.424 260.168C131.17 259.921 130.817 259.797 130.366 259.797C130.04 259.797 129.73 259.851 129.437 259.958C129.146 260.066 128.822 260.261 128.464 260.544L127.992 259.937C128.715 259.335 129.503 259.035 130.355 259.035C131.093 259.035 131.671 259.224 132.09 259.604C132.509 259.98 132.718 260.487 132.718 261.124C132.718 261.622 132.579 262.114 132.299 262.601C132.02 263.088 131.497 263.704 130.731 264.449L129.012 266.13V266.173H133.051V267Z" fill="black"/>
<path d="M165.756 260.995C165.756 261.496 165.614 261.906 165.332 262.225C165.052 262.544 164.655 262.757 164.139 262.864V262.907C164.769 262.986 165.237 263.187 165.541 263.509C165.845 263.831 165.998 264.254 165.998 264.776C165.998 265.525 165.738 266.101 165.219 266.506C164.7 266.907 163.962 267.107 163.006 267.107C162.59 267.107 162.209 267.075 161.862 267.011C161.518 266.95 161.183 266.841 160.857 266.683V265.834C161.198 266.003 161.559 266.132 161.942 266.221C162.329 266.307 162.694 266.35 163.038 266.35C164.395 266.35 165.074 265.818 165.074 264.755C165.074 263.802 164.325 263.326 162.829 263.326H162.055V262.558H162.839C163.452 262.558 163.937 262.424 164.295 262.155C164.653 261.883 164.832 261.507 164.832 261.027C164.832 260.644 164.7 260.343 164.435 260.125C164.173 259.907 163.817 259.797 163.366 259.797C163.022 259.797 162.698 259.844 162.394 259.937C162.089 260.03 161.742 260.202 161.352 260.453L160.9 259.851C161.223 259.597 161.593 259.398 162.012 259.255C162.435 259.108 162.879 259.035 163.344 259.035C164.107 259.035 164.7 259.21 165.122 259.561C165.545 259.908 165.756 260.386 165.756 260.995Z" fill="black"/>
<path d="M199.422 265.195H198.256V267H197.402V265.195H193.583V264.417L197.311 259.104H198.256V264.384H199.422V265.195ZM197.402 264.384V261.774C197.402 261.262 197.42 260.684 197.456 260.039H197.413C197.241 260.383 197.08 260.667 196.93 260.893L194.475 264.384H197.402Z" fill="black"/>
<path d="M229.344 262.204C230.171 262.204 230.821 262.41 231.294 262.821C231.77 263.229 232.008 263.79 232.008 264.502C232.008 265.315 231.749 265.953 231.229 266.415C230.714 266.876 230.001 267.107 229.092 267.107C228.207 267.107 227.532 266.966 227.067 266.683V265.824C227.318 265.985 227.629 266.112 228.001 266.205C228.374 266.295 228.741 266.339 229.103 266.339C229.733 266.339 230.222 266.191 230.569 265.894C230.92 265.596 231.095 265.167 231.095 264.604C231.095 263.509 230.424 262.961 229.081 262.961C228.741 262.961 228.286 263.013 227.717 263.117L227.255 262.821L227.55 259.147H231.455V259.969H228.313L228.114 262.327C228.526 262.245 228.936 262.204 229.344 262.204Z" fill="black"/>
<path d="M130.698 218.302C130.865 218.469 131.135 218.469 131.302 218.302L134.024 215.581C134.191 215.414 134.191 215.143 134.024 214.976C133.857 214.809 133.586 214.809 133.419 214.976L131 217.395L128.581 214.976C128.414 214.809 128.143 214.809 127.976 214.976C127.809 215.143 127.809 215.414 127.976 215.581L130.698 218.302ZM130.572 185V218H131.428V185H130.572Z" fill="black"/>
<path d="M128.375 167.602C128.375 167.964 128.27 168.266 128.059 168.508C127.848 168.747 127.551 168.909 127.168 168.992V169.023C127.626 169.081 127.97 169.224 128.199 169.453C128.428 169.68 128.543 169.982 128.543 170.359C128.543 170.909 128.349 171.333 127.961 171.633C127.573 171.93 127.021 172.078 126.305 172.078C125.672 172.078 125.138 171.975 124.703 171.77V170.953C124.945 171.073 125.202 171.165 125.473 171.23C125.743 171.296 126.004 171.328 126.254 171.328C126.697 171.328 127.027 171.246 127.246 171.082C127.465 170.918 127.574 170.664 127.574 170.32C127.574 170.016 127.453 169.792 127.211 169.648C126.969 169.505 126.589 169.434 126.07 169.434H125.574V168.688H126.078C126.99 168.688 127.445 168.372 127.445 167.742C127.445 167.497 127.366 167.309 127.207 167.176C127.048 167.043 126.814 166.977 126.504 166.977C126.288 166.977 126.079 167.008 125.879 167.07C125.678 167.13 125.441 167.249 125.168 167.426L124.719 166.785C125.242 166.4 125.85 166.207 126.543 166.207C127.118 166.207 127.568 166.331 127.891 166.578C128.214 166.826 128.375 167.167 128.375 167.602ZM131.992 166.289L129.867 172H129L131.129 166.289H131.992ZM136.285 172H132.414V171.305L133.887 169.824C134.322 169.379 134.609 169.064 134.75 168.879C134.893 168.691 134.997 168.516 135.062 168.352C135.128 168.188 135.16 168.012 135.16 167.824C135.16 167.566 135.082 167.363 134.926 167.215C134.772 167.066 134.559 166.992 134.285 166.992C134.066 166.992 133.854 167.033 133.648 167.113C133.445 167.194 133.21 167.34 132.941 167.551L132.445 166.945C132.763 166.677 133.072 166.487 133.371 166.375C133.671 166.263 133.99 166.207 134.328 166.207C134.859 166.207 135.285 166.346 135.605 166.625C135.926 166.901 136.086 167.273 136.086 167.742C136.086 168 136.039 168.245 135.945 168.477C135.854 168.708 135.712 168.948 135.52 169.195C135.329 169.44 135.012 169.772 134.566 170.191L133.574 171.152V171.191H136.285V172Z" fill="white"/>
<path d="M127.414 238H126.496V234.312C126.496 233.872 126.507 233.523 126.527 233.266C126.467 233.328 126.393 233.397 126.305 233.473C126.219 233.548 125.927 233.788 125.43 234.191L124.969 233.609L126.648 232.289H127.414V238ZM131.992 232.289L129.867 238H129L131.129 232.289H131.992ZM136.285 238H132.414V237.305L133.887 235.824C134.322 235.379 134.609 235.064 134.75 234.879C134.893 234.691 134.997 234.516 135.062 234.352C135.128 234.188 135.16 234.012 135.16 233.824C135.16 233.566 135.082 233.363 134.926 233.215C134.772 233.066 134.559 232.992 134.285 232.992C134.066 232.992 133.854 233.033 133.648 233.113C133.445 233.194 133.21 233.34 132.941 233.551L132.445 232.945C132.763 232.677 133.072 232.487 133.371 232.375C133.671 232.263 133.99 232.207 134.328 232.207C134.859 232.207 135.285 232.346 135.605 232.625C135.926 232.901 136.086 233.273 136.086 233.742C136.086 234 136.039 234.245 135.945 234.477C135.854 234.708 135.712 234.948 135.52 235.195C135.329 235.44 135.012 235.772 134.566 236.191L133.574 237.152V237.191H136.285V238Z" fill="white"/>
<defs>
<filter id="filter0_d_1262_75140" x="81" y="214" width="41" height="41" filterUnits="userSpaceOnUse" color-interpolation-filters="sRGB">
<feFlood flood-opacity="0" result="BackgroundImageFix"/>
<feColorMatrix in="SourceAlpha" type="matrix" values="0 0 0 0 0 0 0 0 0 0 0 0 0 0 0 0 0 0 127 0" result="hardAlpha"/>
<feOffset dx="4"/>
<feGaussianBlur stdDeviation="2"/>
<feComposite in2="hardAlpha" operator="out"/>
<feColorMatrix type="matrix" values="0 0 0 0 0 0 0 0 0 0 0 0 0 0 0 0 0 0 0.25 0"/>
<feBlend mode="normal" in2="BackgroundImageFix" result="effect1_dropShadow_1262_75140"/>
<feBlend mode="normal" in="SourceGraphic" in2="effect1_dropShadow_1262_75140" result="shape"/>
</filter>
<filter id="filter1_d_1262_75140" x="114" y="214" width="41" height="41" filterUnits="userSpaceOnUse" color-interpolation-filters="sRGB">
<feFlood flood-opacity="0" result="BackgroundImageFix"/>
<feColorMatrix in="SourceAlpha" type="matrix" values="0 0 0 0 0 0 0 0 0 0 0 0 0 0 0 0 0 0 127 0" result="hardAlpha"/>
<feOffset dx="4"/>
<feGaussianBlur stdDeviation="2"/>
<feComposite in2="hardAlpha" operator="out"/>
<feColorMatrix type="matrix" values="0 0 0 0 0 0 0 0 0 0 0 0 0 0 0 0 0 0 0.25 0"/>
<feBlend mode="normal" in2="BackgroundImageFix" result="effect1_dropShadow_1262_75140"/>
<feBlend mode="normal" in="SourceGraphic" in2="effect1_dropShadow_1262_75140" result="shape"/>
</filter>
<filter id="filter2_d_1262_75140" x="147" y="214" width="41" height="41" filterUnits="userSpaceOnUse" color-interpolation-filters="sRGB">
<feFlood flood-opacity="0" result="BackgroundImageFix"/>
<feColorMatrix in="SourceAlpha" type="matrix" values="0 0 0 0 0 0 0 0 0 0 0 0 0 0 0 0 0 0 127 0" result="hardAlpha"/>
<feOffset dx="4"/>
<feGaussianBlur stdDeviation="2"/>
<feComposite in2="hardAlpha" operator="out"/>
<feColorMatrix type="matrix" values="0 0 0 0 0 0 0 0 0 0 0 0 0 0 0 0 0 0 0.25 0"/>
<feBlend mode="normal" in2="BackgroundImageFix" result="effect1_dropShadow_1262_75140"/>
<feBlend mode="normal" in="SourceGraphic" in2="effect1_dropShadow_1262_75140" result="shape"/>
</filter>
<filter id="filter3_d_1262_75140" x="180" y="214" width="41" height="41" filterUnits="userSpaceOnUse" color-interpolation-filters="sRGB">
<feFlood flood-opacity="0" result="BackgroundImageFix"/>
<feColorMatrix in="SourceAlpha" type="matrix" values="0 0 0 0 0 0 0 0 0 0 0 0 0 0 0 0 0 0 127 0" result="hardAlpha"/>
<feOffset dx="4"/>
<feGaussianBlur stdDeviation="2"/>
<feComposite in2="hardAlpha" operator="out"/>
<feColorMatrix type="matrix" values="0 0 0 0 0 0 0 0 0 0 0 0 0 0 0 0 0 0 0.25 0"/>
<feBlend mode="normal" in2="BackgroundImageFix" result="effect1_dropShadow_1262_75140"/>
<feBlend mode="normal" in="SourceGraphic" in2="effect1_dropShadow_1262_75140" result="shape"/>
</filter>
<filter id="filter4_d_1262_75140" x="213" y="214" width="41" height="41" filterUnits="userSpaceOnUse" color-interpolation-filters="sRGB">
<feFlood flood-opacity="0" result="BackgroundImageFix"/>
<feColorMatrix in="SourceAlpha" type="matrix" values="0 0 0 0 0 0 0 0 0 0 0 0 0 0 0 0 0 0 127 0" result="hardAlpha"/>
<feOffset dx="4"/>
<feGaussianBlur stdDeviation="2"/>
<feComposite in2="hardAlpha" operator="out"/>
<feColorMatrix type="matrix" values="0 0 0 0 0 0 0 0 0 0 0 0 0 0 0 0 0 0 0.25 0"/>
<feBlend mode="normal" in2="BackgroundImageFix" result="effect1_dropShadow_1262_75140"/>
<feBlend mode="normal" in="SourceGraphic" in2="effect1_dropShadow_1262_75140" result="shape"/>
</filter>
<filter id="filter5_d_1262_75140" x="81" y="181" width="41" height="41" filterUnits="userSpaceOnUse" color-interpolation-filters="sRGB">
<feFlood flood-opacity="0" result="BackgroundImageFix"/>
<feColorMatrix in="SourceAlpha" type="matrix" values="0 0 0 0 0 0 0 0 0 0 0 0 0 0 0 0 0 0 127 0" result="hardAlpha"/>
<feOffset dx="4"/>
<feGaussianBlur stdDeviation="2"/>
<feComposite in2="hardAlpha" operator="out"/>
<feColorMatrix type="matrix" values="0 0 0 0 0 0 0 0 0 0 0 0 0 0 0 0 0 0 0.25 0"/>
<feBlend mode="normal" in2="BackgroundImageFix" result="effect1_dropShadow_1262_75140"/>
<feBlend mode="normal" in="SourceGraphic" in2="effect1_dropShadow_1262_75140" result="shape"/>
</filter>
<filter id="filter6_d_1262_75140" x="114" y="181" width="41" height="41" filterUnits="userSpaceOnUse" color-interpolation-filters="sRGB">
<feFlood flood-opacity="0" result="BackgroundImageFix"/>
<feColorMatrix in="SourceAlpha" type="matrix" values="0 0 0 0 0 0 0 0 0 0 0 0 0 0 0 0 0 0 127 0" result="hardAlpha"/>
<feOffset dx="4"/>
<feGaussianBlur stdDeviation="2"/>
<feComposite in2="hardAlpha" operator="out"/>
<feColorMatrix type="matrix" values="0 0 0 0 0 0 0 0 0 0 0 0 0 0 0 0 0 0 0.25 0"/>
<feBlend mode="normal" in2="BackgroundImageFix" result="effect1_dropShadow_1262_75140"/>
<feBlend mode="normal" in="SourceGraphic" in2="effect1_dropShadow_1262_75140" result="shape"/>
</filter>
<filter id="filter7_d_1262_75140" x="147" y="181" width="41" height="41" filterUnits="userSpaceOnUse" color-interpolation-filters="sRGB">
<feFlood flood-opacity="0" result="BackgroundImageFix"/>
<feColorMatrix in="SourceAlpha" type="matrix" values="0 0 0 0 0 0 0 0 0 0 0 0 0 0 0 0 0 0 127 0" result="hardAlpha"/>
<feOffset dx="4"/>
<feGaussianBlur stdDeviation="2"/>
<feComposite in2="hardAlpha" operator="out"/>
<feColorMatrix type="matrix" values="0 0 0 0 0 0 0 0 0 0 0 0 0 0 0 0 0 0 0.25 0"/>
<feBlend mode="normal" in2="BackgroundImageFix" result="effect1_dropShadow_1262_75140"/>
<feBlend mode="normal" in="SourceGraphic" in2="effect1_dropShadow_1262_75140" result="shape"/>
</filter>
<filter id="filter8_d_1262_75140" x="180" y="181" width="41" height="41" filterUnits="userSpaceOnUse" color-interpolation-filters="sRGB">
<feFlood flood-opacity="0" result="BackgroundImageFix"/>
<feColorMatrix in="SourceAlpha" type="matrix" values="0 0 0 0 0 0 0 0 0 0 0 0 0 0 0 0 0 0 127 0" result="hardAlpha"/>
<feOffset dx="4"/>
<feGaussianBlur stdDeviation="2"/>
<feComposite in2="hardAlpha" operator="out"/>
<feColorMatrix type="matrix" values="0 0 0 0 0 0 0 0 0 0 0 0 0 0 0 0 0 0 0.25 0"/>
<feBlend mode="normal" in2="BackgroundImageFix" result="effect1_dropShadow_1262_75140"/>
<feBlend mode="normal" in="SourceGraphic" in2="effect1_dropShadow_1262_75140" result="shape"/>
</filter>
<filter id="filter9_d_1262_75140" x="213" y="181" width="41" height="41" filterUnits="userSpaceOnUse" color-interpolation-filters="sRGB">
<feFlood flood-opacity="0" result="BackgroundImageFix"/>
<feColorMatrix in="SourceAlpha" type="matrix" values="0 0 0 0 0 0 0 0 0 0 0 0 0 0 0 0 0 0 127 0" result="hardAlpha"/>
<feOffset dx="4"/>
<feGaussianBlur stdDeviation="2"/>
<feComposite in2="hardAlpha" operator="out"/>
<feColorMatrix type="matrix" values="0 0 0 0 0 0 0 0 0 0 0 0 0 0 0 0 0 0 0.25 0"/>
<feBlend mode="normal" in2="BackgroundImageFix" result="effect1_dropShadow_1262_75140"/>
<feBlend mode="normal" in="SourceGraphic" in2="effect1_dropShadow_1262_75140" result="shape"/>
</filter>
<filter id="filter10_d_1262_75140" x="81" y="148" width="41" height="41" filterUnits="userSpaceOnUse" color-interpolation-filters="sRGB">
<feFlood flood-opacity="0" result="BackgroundImageFix"/>
<feColorMatrix in="SourceAlpha" type="matrix" values="0 0 0 0 0 0 0 0 0 0 0 0 0 0 0 0 0 0 127 0" result="hardAlpha"/>
<feOffset dx="4"/>
<feGaussianBlur stdDeviation="2"/>
<feComposite in2="hardAlpha" operator="out"/>
<feColorMatrix type="matrix" values="0 0 0 0 0 0 0 0 0 0 0 0 0 0 0 0 0 0 0.25 0"/>
<feBlend mode="normal" in2="BackgroundImageFix" result="effect1_dropShadow_1262_75140"/>
<feBlend mode="normal" in="SourceGraphic" in2="effect1_dropShadow_1262_75140" result="shape"/>
</filter>
<filter id="filter11_d_1262_75140" x="114" y="148" width="41" height="41" filterUnits="userSpaceOnUse" color-interpolation-filters="sRGB">
<feFlood flood-opacity="0" result="BackgroundImageFix"/>
<feColorMatrix in="SourceAlpha" type="matrix" values="0 0 0 0 0 0 0 0 0 0 0 0 0 0 0 0 0 0 127 0" result="hardAlpha"/>
<feOffset dx="4"/>
<feGaussianBlur stdDeviation="2"/>
<feComposite in2="hardAlpha" operator="out"/>
<feColorMatrix type="matrix" values="0 0 0 0 0 0 0 0 0 0 0 0 0 0 0 0 0 0 0.25 0"/>
<feBlend mode="normal" in2="BackgroundImageFix" result="effect1_dropShadow_1262_75140"/>
<feBlend mode="normal" in="SourceGraphic" in2="effect1_dropShadow_1262_75140" result="shape"/>
</filter>
<filter id="filter12_d_1262_75140" x="147" y="148" width="41" height="41" filterUnits="userSpaceOnUse" color-interpolation-filters="sRGB">
<feFlood flood-opacity="0" result="BackgroundImageFix"/>
<feColorMatrix in="SourceAlpha" type="matrix" values="0 0 0 0 0 0 0 0 0 0 0 0 0 0 0 0 0 0 127 0" result="hardAlpha"/>
<feOffset dx="4"/>
<feGaussianBlur stdDeviation="2"/>
<feComposite in2="hardAlpha" operator="out"/>
<feColorMatrix type="matrix" values="0 0 0 0 0 0 0 0 0 0 0 0 0 0 0 0 0 0 0.25 0"/>
<feBlend mode="normal" in2="BackgroundImageFix" result="effect1_dropShadow_1262_75140"/>
<feBlend mode="normal" in="SourceGraphic" in2="effect1_dropShadow_1262_75140" result="shape"/>
</filter>
<filter id="filter13_d_1262_75140" x="180" y="148" width="41" height="41" filterUnits="userSpaceOnUse" color-interpolation-filters="sRGB">
<feFlood flood-opacity="0" result="BackgroundImageFix"/>
<feColorMatrix in="SourceAlpha" type="matrix" values="0 0 0 0 0 0 0 0 0 0 0 0 0 0 0 0 0 0 127 0" result="hardAlpha"/>
<feOffset dx="4"/>
<feGaussianBlur stdDeviation="2"/>
<feComposite in2="hardAlpha" operator="out"/>
<feColorMatrix type="matrix" values="0 0 0 0 0 0 0 0 0 0 0 0 0 0 0 0 0 0 0.25 0"/>
<feBlend mode="normal" in2="BackgroundImageFix" result="effect1_dropShadow_1262_75140"/>
<feBlend mode="normal" in="SourceGraphic" in2="effect1_dropShadow_1262_75140" result="shape"/>
</filter>
<filter id="filter14_d_1262_75140" x="213" y="148" width="41" height="41" filterUnits="userSpaceOnUse" color-interpolation-filters="sRGB">
<feFlood flood-opacity="0" result="BackgroundImageFix"/>
<feColorMatrix in="SourceAlpha" type="matrix" values="0 0 0 0 0 0 0 0 0 0 0 0 0 0 0 0 0 0 127 0" result="hardAlpha"/>
<feOffset dx="4"/>
<feGaussianBlur stdDeviation="2"/>
<feComposite in2="hardAlpha" operator="out"/>
<feColorMatrix type="matrix" values="0 0 0 0 0 0 0 0 0 0 0 0 0 0 0 0 0 0 0.25 0"/>
<feBlend mode="normal" in2="BackgroundImageFix" result="effect1_dropShadow_1262_75140"/>
<feBlend mode="normal" in="SourceGraphic" in2="effect1_dropShadow_1262_75140" result="shape"/>
</filter>
<filter id="filter15_d_1262_75140" x="81" y="115" width="41" height="41" filterUnits="userSpaceOnUse" color-interpolation-filters="sRGB">
<feFlood flood-opacity="0" result="BackgroundImageFix"/>
<feColorMatrix in="SourceAlpha" type="matrix" values="0 0 0 0 0 0 0 0 0 0 0 0 0 0 0 0 0 0 127 0" result="hardAlpha"/>
<feOffset dx="4"/>
<feGaussianBlur stdDeviation="2"/>
<feComposite in2="hardAlpha" operator="out"/>
<feColorMatrix type="matrix" values="0 0 0 0 0 0 0 0 0 0 0 0 0 0 0 0 0 0 0.25 0"/>
<feBlend mode="normal" in2="BackgroundImageFix" result="effect1_dropShadow_1262_75140"/>
<feBlend mode="normal" in="SourceGraphic" in2="effect1_dropShadow_1262_75140" result="shape"/>
</filter>
<filter id="filter16_d_1262_75140" x="114" y="115" width="41" height="41" filterUnits="userSpaceOnUse" color-interpolation-filters="sRGB">
<feFlood flood-opacity="0" result="BackgroundImageFix"/>
<feColorMatrix in="SourceAlpha" type="matrix" values="0 0 0 0 0 0 0 0 0 0 0 0 0 0 0 0 0 0 127 0" result="hardAlpha"/>
<feOffset dx="4"/>
<feGaussianBlur stdDeviation="2"/>
<feComposite in2="hardAlpha" operator="out"/>
<feColorMatrix type="matrix" values="0 0 0 0 0 0 0 0 0 0 0 0 0 0 0 0 0 0 0.25 0"/>
<feBlend mode="normal" in2="BackgroundImageFix" result="effect1_dropShadow_1262_75140"/>
<feBlend mode="normal" in="SourceGraphic" in2="effect1_dropShadow_1262_75140" result="shape"/>
</filter>
<filter id="filter17_d_1262_75140" x="147" y="115" width="41" height="41" filterUnits="userSpaceOnUse" color-interpolation-filters="sRGB">
<feFlood flood-opacity="0" result="BackgroundImageFix"/>
<feColorMatrix in="SourceAlpha" type="matrix" values="0 0 0 0 0 0 0 0 0 0 0 0 0 0 0 0 0 0 127 0" result="hardAlpha"/>
<feOffset dx="4"/>
<feGaussianBlur stdDeviation="2"/>
<feComposite in2="hardAlpha" operator="out"/>
<feColorMatrix type="matrix" values="0 0 0 0 0 0 0 0 0 0 0 0 0 0 0 0 0 0 0.25 0"/>
<feBlend mode="normal" in2="BackgroundImageFix" result="effect1_dropShadow_1262_75140"/>
<feBlend mode="normal" in="SourceGraphic" in2="effect1_dropShadow_1262_75140" result="shape"/>
</filter>
<filter id="filter18_d_1262_75140" x="180" y="115" width="41" height="41" filterUnits="userSpaceOnUse" color-interpolation-filters="sRGB">
<feFlood flood-opacity="0" result="BackgroundImageFix"/>
<feColorMatrix in="SourceAlpha" type="matrix" values="0 0 0 0 0 0 0 0 0 0 0 0 0 0 0 0 0 0 127 0" result="hardAlpha"/>
<feOffset dx="4"/>
<feGaussianBlur stdDeviation="2"/>
<feComposite in2="hardAlpha" operator="out"/>
<feColorMatrix type="matrix" values="0 0 0 0 0 0 0 0 0 0 0 0 0 0 0 0 0 0 0.25 0"/>
<feBlend mode="normal" in2="BackgroundImageFix" result="effect1_dropShadow_1262_75140"/>
<feBlend mode="normal" in="SourceGraphic" in2="effect1_dropShadow_1262_75140" result="shape"/>
</filter>
<filter id="filter19_d_1262_75140" x="213" y="115" width="41" height="41" filterUnits="userSpaceOnUse" color-interpolation-filters="sRGB">
<feFlood flood-opacity="0" result="BackgroundImageFix"/>
<feColorMatrix in="SourceAlpha" type="matrix" values="0 0 0 0 0 0 0 0 0 0 0 0 0 0 0 0 0 0 127 0" result="hardAlpha"/>
<feOffset dx="4"/>
<feGaussianBlur stdDeviation="2"/>
<feComposite in2="hardAlpha" operator="out"/>
<feColorMatrix type="matrix" values="0 0 0 0 0 0 0 0 0 0 0 0 0 0 0 0 0 0 0.25 0"/>
<feBlend mode="normal" in2="BackgroundImageFix" result="effect1_dropShadow_1262_75140"/>
<feBlend mode="normal" in="SourceGraphic" in2="effect1_dropShadow_1262_75140" result="shape"/>
</filter>
<filter id="filter20_d_1262_75140" x="81" y="82" width="41" height="41" filterUnits="userSpaceOnUse" color-interpolation-filters="sRGB">
<feFlood flood-opacity="0" result="BackgroundImageFix"/>
<feColorMatrix in="SourceAlpha" type="matrix" values="0 0 0 0 0 0 0 0 0 0 0 0 0 0 0 0 0 0 127 0" result="hardAlpha"/>
<feOffset dx="4"/>
<feGaussianBlur stdDeviation="2"/>
<feComposite in2="hardAlpha" operator="out"/>
<feColorMatrix type="matrix" values="0 0 0 0 0 0 0 0 0 0 0 0 0 0 0 0 0 0 0.25 0"/>
<feBlend mode="normal" in2="BackgroundImageFix" result="effect1_dropShadow_1262_75140"/>
<feBlend mode="normal" in="SourceGraphic" in2="effect1_dropShadow_1262_75140" result="shape"/>
</filter>
<filter id="filter21_d_1262_75140" x="114" y="82" width="41" height="41" filterUnits="userSpaceOnUse" color-interpolation-filters="sRGB">
<feFlood flood-opacity="0" result="BackgroundImageFix"/>
<feColorMatrix in="SourceAlpha" type="matrix" values="0 0 0 0 0 0 0 0 0 0 0 0 0 0 0 0 0 0 127 0" result="hardAlpha"/>
<feOffset dx="4"/>
<feGaussianBlur stdDeviation="2"/>
<feComposite in2="hardAlpha" operator="out"/>
<feColorMatrix type="matrix" values="0 0 0 0 0 0 0 0 0 0 0 0 0 0 0 0 0 0 0.25 0"/>
<feBlend mode="normal" in2="BackgroundImageFix" result="effect1_dropShadow_1262_75140"/>
<feBlend mode="normal" in="SourceGraphic" in2="effect1_dropShadow_1262_75140" result="shape"/>
</filter>
<filter id="filter22_d_1262_75140" x="147" y="82" width="41" height="41" filterUnits="userSpaceOnUse" color-interpolation-filters="sRGB">
<feFlood flood-opacity="0" result="BackgroundImageFix"/>
<feColorMatrix in="SourceAlpha" type="matrix" values="0 0 0 0 0 0 0 0 0 0 0 0 0 0 0 0 0 0 127 0" result="hardAlpha"/>
<feOffset dx="4"/>
<feGaussianBlur stdDeviation="2"/>
<feComposite in2="hardAlpha" operator="out"/>
<feColorMatrix type="matrix" values="0 0 0 0 0 0 0 0 0 0 0 0 0 0 0 0 0 0 0.25 0"/>
<feBlend mode="normal" in2="BackgroundImageFix" result="effect1_dropShadow_1262_75140"/>
<feBlend mode="normal" in="SourceGraphic" in2="effect1_dropShadow_1262_75140" result="shape"/>
</filter>
<filter id="filter23_d_1262_75140" x="180" y="82" width="41" height="41" filterUnits="userSpaceOnUse" color-interpolation-filters="sRGB">
<feFlood flood-opacity="0" result="BackgroundImageFix"/>
<feColorMatrix in="SourceAlpha" type="matrix" values="0 0 0 0 0 0 0 0 0 0 0 0 0 0 0 0 0 0 127 0" result="hardAlpha"/>
<feOffset dx="4"/>
<feGaussianBlur stdDeviation="2"/>
<feComposite in2="hardAlpha" operator="out"/>
<feColorMatrix type="matrix" values="0 0 0 0 0 0 0 0 0 0 0 0 0 0 0 0 0 0 0.25 0"/>
<feBlend mode="normal" in2="BackgroundImageFix" result="effect1_dropShadow_1262_75140"/>
<feBlend mode="normal" in="SourceGraphic" in2="effect1_dropShadow_1262_75140" result="shape"/>
</filter>
<filter id="filter24_d_1262_75140" x="213" y="82" width="41" height="41" filterUnits="userSpaceOnUse" color-interpolation-filters="sRGB">
<feFlood flood-opacity="0" result="BackgroundImageFix"/>
<feColorMatrix in="SourceAlpha" type="matrix" values="0 0 0 0 0 0 0 0 0 0 0 0 0 0 0 0 0 0 127 0" result="hardAlpha"/>
<feOffset dx="4"/>
<feGaussianBlur stdDeviation="2"/>
<feComposite in2="hardAlpha" operator="out"/>
<feColorMatrix type="matrix" values="0 0 0 0 0 0 0 0 0 0 0 0 0 0 0 0 0 0 0.25 0"/>
<feBlend mode="normal" in2="BackgroundImageFix" result="effect1_dropShadow_1262_75140"/>
<feBlend mode="normal" in="SourceGraphic" in2="effect1_dropShadow_1262_75140" result="shape"/>
</filter>
</defs>
</svg>
